<svg width="375" height="188" viewBox="0 0 375 188" fill="none" xmlns="http://www.w3.org/2000/svg">
<g clip-path="url(#clip0_918_11572)">
<rect width="375" height="188" fill="#1B76FF"/>
<path d="M241.501 51.9866C251.892 31.5699 274.129 36.2113 275.298 59.041C295.7 69.3395 290.966 91.5402 268.098 92.8072C257.701 113.214 235.48 108.576 234.301 85.7528C213.899 75.4543 218.626 53.2439 241.501 51.9866Z" fill="#9FE06C"/>
<path d="M273.13 76.7624L272.295 80.6763L268.077 79.7757L268.912 75.8618L273.13 76.7624ZM271.554 79.7548L272.078 77.301L269.653 76.7833L269.129 79.2371L271.554 79.7548ZM268.421 82.6056C268.536 82.0648 268.895 81.6996 269.496 81.51C270.104 81.3218 270.881 81.3285 271.825 81.5301C272.755 81.7288 273.46 82.0382 273.938 82.4584C274.417 82.8786 274.598 83.3591 274.483 83.8999C274.367 84.4406 274.005 84.8051 273.397 84.9933C272.796 85.1829 272.026 85.1777 271.089 84.9776C270.145 84.776 269.433 84.4651 268.955 84.0449C268.483 83.6261 268.305 83.1464 268.421 82.6056ZM269.348 82.8036C269.28 83.1213 269.414 83.4079 269.75 83.6634C270.086 83.9189 270.584 84.117 271.242 84.2576C271.895 84.3969 272.426 84.4185 272.837 84.3225C273.25 84.2197 273.489 84.0129 273.556 83.7019C273.622 83.391 273.487 83.1077 273.151 82.8522C272.815 82.5967 272.321 82.3994 271.669 82.2601C271.003 82.118 270.465 82.095 270.054 82.191C269.649 82.2884 269.414 82.4926 269.348 82.8036ZM275.032 76.4898L275.969 76.6899L274.832 82.0132L273.895 81.813L275.032 76.4898Z" fill="black"/>
<path d="M263.319 74.9747L262.633 78.1889L260.177 77.6647L259.77 79.5709C260.342 79.686 260.859 79.7786 261.32 79.8487C261.782 79.9121 262.27 79.9561 262.783 79.9808L262.694 80.7464C262.115 80.7289 261.571 80.6834 261.061 80.6099C260.56 80.531 259.976 80.4206 259.31 80.2785L258.709 80.1501L259.439 76.7331L261.894 77.2573L262.262 75.5336L259.796 75.0072L259.957 74.2568L263.319 74.9747ZM264.561 74.4448L265.437 74.6318L264.732 77.9373L265.893 78.1853L266.64 74.6872L267.527 74.8764L265.617 83.8195L264.731 83.6303L265.731 78.9458L264.569 78.6978L263.667 82.926L262.79 82.739L264.561 74.4448Z" fill="black"/>
<path d="M258.049 73.8072L257.85 74.7401C257.681 75.531 257.509 76.2364 257.334 76.8563C257.166 77.4778 256.917 78.195 256.587 79.0081L255.667 78.7268C255.992 77.9693 256.239 77.2798 256.407 76.6584C256.582 76.0384 256.754 75.333 256.923 74.5421L256.962 74.3596L251.704 73.2372L251.865 72.4869L258.049 73.8072ZM249.709 78.2923L257.839 80.0281L257.675 80.7988L249.544 79.0629L249.709 78.2923Z" fill="black"/>
<path d="M244.559 77.4049L244.901 75.8028L242.303 75.2482L242.907 72.4192L248.144 73.5373L248.419 72.2495L243.162 71.1271L243.322 70.3768L249.506 71.6972L248.915 74.4653L243.668 73.345L243.38 74.6936L248.831 75.8573L248.671 76.6077L245.828 76.0008L245.486 77.6028L249.103 78.375L248.941 79.1355L240.8 77.3975L240.963 76.637L244.559 77.4049Z" fill="black"/>
<path d="M240.412 76.4665L240.247 77.2371L232.107 75.4991L232.271 74.7285L240.412 76.4665ZM234.297 68.6833L241.001 70.1146L240.839 70.8751L239.483 70.5858L238.843 73.5871L240.177 73.872L240.017 74.6224L233.354 73.1998L233.514 72.4494L234.839 72.7322L235.479 69.7309L234.134 69.4438L234.297 68.6833ZM237.916 73.3891L238.556 70.3878L236.417 69.931L235.776 72.9323L237.916 73.3891Z" fill="black"/>
<path d="M259.555 69.9024L258.658 69.711L262.594 61.8576L263.48 62.0469L259.555 69.9024Z" fill="black"/>
<path d="M259.286 62.5081L257.044 62.0295L255.65 68.5594L254.743 68.3658L256.137 61.8359L253.896 61.3574L254.082 60.4854L259.472 61.636L259.286 62.5081Z" fill="black"/>
<path d="M252.869 60.2266L251.289 67.6285L250.392 67.4371L251.973 60.0352L252.869 60.2266Z" fill="black"/>
<path d="M378.533 31.2188C375.793 30.1138 372.9 29.9473 370.193 30.5743C368.68 28.2503 366.484 26.36 363.743 25.255C361.003 24.15 358.11 23.9835 355.404 24.6105C353.886 22.2848 351.69 20.3945 348.949 19.2895C346.209 18.1845 343.316 18.018 340.61 18.645C339.096 16.3209 336.9 14.4307 334.16 13.3256C326.877 10.3889 318.519 14.0894 315.488 21.586C312.458 29.0826 315.9 37.5415 323.183 40.4782C325.924 41.5832 328.817 41.7497 331.523 41.1227C333.037 43.4467 335.233 45.337 337.973 46.442C340.714 47.547 343.606 47.7135 346.313 47.0865C347.827 49.4106 350.023 51.3008 352.763 52.4058C355.503 53.5109 358.396 53.6774 361.103 53.0504C362.616 55.3744 364.812 57.2646 367.553 58.3697C374.831 61.3047 383.193 57.6059 386.224 50.1093C389.258 42.6144 385.812 34.1539 378.533 31.2188Z" fill="#F1A3FE"/>
<path d="M373.457 40.3528L371.963 44.0586L373.275 44.5876L372.964 45.3588L371.652 44.8298L369.895 49.1866L368.973 48.815L372.536 39.9812L373.457 40.3528ZM363.903 43.9759C364.898 44.3771 365.68 44.6808 366.249 44.8869L366.612 43.9855C366.141 43.7101 365.812 43.3716 365.625 42.97C365.447 42.5644 365.444 42.148 365.616 41.7206C365.748 41.3935 365.951 41.1414 366.224 40.9643C366.504 40.7899 366.828 40.6993 367.195 40.6923C367.572 40.6813 367.968 40.7593 368.382 40.9262C368.796 41.0931 369.131 41.31 369.389 41.5767C369.655 41.8395 369.826 42.1294 369.9 42.4465C369.98 42.7663 369.955 43.0897 369.823 43.4169C369.65 43.8442 369.356 44.1409 368.94 44.3068C368.533 44.4688 368.064 44.4855 367.534 44.357L367.183 45.2284C368.089 45.5398 368.874 45.7786 369.537 45.9449L369.34 46.6342C368.441 46.4579 367.556 46.2174 366.685 45.9129C365.815 45.6083 364.828 45.2339 363.727 44.7896L363.903 43.9759ZM366.236 38.6521L368.41 39.5285L368.822 38.5069L369.743 38.8785L369.331 39.9001L371.495 40.7725L371.2 41.5036L365.941 39.3833L366.236 38.6521ZM366.487 42.072C366.372 42.3591 366.39 42.6306 366.543 42.8863C366.703 43.1448 366.97 43.3494 367.344 43.5002C367.718 43.651 368.049 43.6873 368.336 43.6093C368.63 43.5339 368.836 43.3526 368.951 43.0655C369.067 42.7784 369.045 42.5056 368.885 42.2471C368.735 41.9847 368.473 41.7781 368.099 41.6273C367.725 41.4765 367.39 41.4422 367.093 41.5242C366.805 41.6023 366.603 41.7849 366.487 42.072Z" fill="black"/>
<path d="M365.273 37.0531L361.711 45.8869L360.79 45.5153L364.352 36.6815L365.273 37.0531ZM355.489 40.5833C356.517 40.998 357.321 41.3144 357.901 41.5326L358.269 40.6212C357.781 40.3471 357.441 40.0079 357.247 39.6036C357.062 39.1953 357.057 38.7742 357.232 38.3402C357.364 38.013 357.567 37.7609 357.84 37.5838C358.12 37.4095 358.447 37.3202 358.821 37.3159C359.205 37.3076 359.607 37.3882 360.028 37.5579C360.448 37.7275 360.791 37.947 361.055 38.2165C361.328 38.482 361.505 38.7746 361.586 39.0943C361.666 39.4141 361.641 39.7375 361.509 40.0647C361.336 40.492 361.039 40.7873 360.616 40.9506C360.202 41.1099 359.727 41.1239 359.19 40.9927L358.839 41.8641C359.786 42.1916 360.617 42.4493 361.333 42.6371L361.123 43.3324C360.199 43.1386 359.279 42.88 358.361 42.5566C357.444 42.2332 356.424 41.8453 355.302 41.393L355.489 40.5833ZM357.838 35.2777L360.062 36.1742L360.482 35.1326L361.403 35.5042L360.983 36.5458L363.197 37.4384L362.902 38.1695L357.543 36.0088L357.838 35.2777ZM358.093 38.6875C357.98 38.9679 358.006 39.2421 358.169 39.5099C358.342 39.7738 358.616 39.9811 358.99 40.1319C359.37 40.2853 359.711 40.3257 360.012 40.253C360.323 40.1764 360.534 39.9978 360.647 39.7174C360.763 39.4303 360.738 39.1561 360.572 38.895C360.408 38.6271 360.132 38.4151 359.745 38.259C359.371 38.1082 359.029 38.0711 358.719 38.1478C358.418 38.2205 358.209 38.4004 358.093 38.6875Z" fill="black"/>
<path d="M349.478 31.4525C349.872 31.6114 350.183 31.8609 350.41 32.2011C350.645 32.544 350.78 32.9595 350.816 33.4476C350.855 33.929 350.785 34.4482 350.607 35.0052L352.43 35.7402L353.779 32.395L354.69 32.7625L351.116 41.6263L350.205 41.2588L352.135 36.4714L350.322 35.7404C350.067 36.2971 349.753 36.7488 349.38 37.0954C349.017 37.4379 348.626 37.6568 348.207 37.7519C347.795 37.8497 347.385 37.8164 346.978 37.6522C346.551 37.4799 346.218 37.1982 345.98 36.8071C345.748 36.4188 345.633 35.9532 345.635 35.4104C345.639 34.861 345.766 34.2758 346.016 33.6548C346.267 33.0338 346.58 32.5273 346.955 32.1353C347.331 31.7433 347.736 31.4878 348.173 31.3687C348.615 31.2522 349.051 31.2802 349.478 31.4525ZM346.878 34.0021C346.598 34.6965 346.498 35.3005 346.578 35.8141C346.658 36.3277 346.902 36.6667 347.309 36.8309C347.716 36.9951 348.127 36.9201 348.541 36.6057C348.955 36.2914 349.302 35.787 349.582 35.0926C349.862 34.3981 349.961 33.7975 349.878 33.2906C349.798 32.777 349.554 32.438 349.147 32.2738C348.739 32.1096 348.329 32.1846 347.915 32.499C347.503 32.8067 347.158 33.3077 346.878 34.0021Z" fill="black"/>
<path d="M340.641 27.5161L340.221 28.5577L344.307 30.2055L344.727 29.1638L345.638 29.5314L344.209 33.0769L341.695 32.0632L341.331 32.9646L344.877 34.3943L344.582 35.1254L336.6 31.9066L336.894 31.1754L340.43 32.6011L340.793 31.6997L338.309 30.6981L339.739 27.1526L340.641 27.5161ZM337.351 32.9896L338.262 33.3571L337.571 35.0698L342.729 37.1497L342.426 37.9009L336.357 35.4534L337.351 32.9896ZM343.588 31.9882L344.016 30.9266L339.93 29.2788L339.502 30.3405L343.588 31.9882Z" fill="black"/>
<path d="M332.626 24.238C333.06 24.413 333.42 24.6554 333.706 24.965C333.993 25.2746 334.176 25.62 334.255 26.0013C334.334 26.3825 334.297 26.7634 334.144 27.144C333.99 27.5246 333.753 27.8248 333.431 28.0445C333.112 28.2575 332.742 28.3761 332.321 28.4003C331.9 28.4246 331.472 28.3492 331.038 28.1742C330.604 27.9991 330.244 27.7568 329.957 27.4472C329.678 27.1403 329.497 26.7995 329.415 26.425C329.342 26.0464 329.383 25.6668 329.536 25.2862C329.69 24.9056 329.924 24.6042 330.239 24.3818C330.56 24.1621 330.928 24.0388 331.343 24.0118C331.764 23.9876 332.192 24.063 332.626 24.238ZM330.418 25.6416C330.272 26.0022 330.287 26.3498 330.463 26.6846C330.638 27.0193 330.93 27.2688 331.337 27.433C331.751 27.5999 332.137 27.6237 332.496 27.5044C332.855 27.3851 333.107 27.1452 333.252 26.7846C333.398 26.424 333.382 26.0764 333.207 25.7417C333.034 25.4003 332.741 25.1461 332.327 24.9792C331.919 24.8149 331.535 24.7958 331.174 24.9218C330.815 25.0411 330.563 25.2811 330.418 25.6416ZM329.806 28.4575L335.555 30.7757L334.663 32.9891L329.825 31.0385L329.474 31.9098L334.592 33.9736L334.301 34.6947L328.292 32.2715L329.208 29.998L334.026 31.9406L334.353 31.1293L329.515 29.1786L329.806 28.4575ZM336.613 25.4965L337.534 25.868L335.721 30.3651L334.799 29.9935L336.613 25.4965Z" fill="black"/>
<path d="M222.881 91.4949C225.062 86.4526 231.446 84.8725 235.728 88.3151C237.802 89.9829 240.549 90.5575 243.118 89.8607C248.42 88.4224 253.636 92.4283 253.614 97.9222C253.603 100.584 254.867 103.09 257.013 104.664C261.444 107.912 261.564 114.488 257.254 117.896C255.167 119.547 253.996 122.098 254.103 124.757C254.326 130.246 249.26 134.44 243.908 133.196C241.316 132.593 238.591 133.268 236.579 135.01C232.426 138.606 225.989 137.26 223.625 132.301C222.48 129.898 220.254 128.189 217.637 127.702C212.236 126.697 209.275 120.825 211.679 115.885C212.843 113.491 212.792 110.685 211.541 108.336C208.959 103.486 211.704 97.5102 217.065 96.3091C219.662 95.7273 221.824 93.9377 222.881 91.4949Z" fill="#FFF868"/>
<path d="M241.344 111.649L241.865 113.755L243.117 113.445L243.299 114.18L242.047 114.49L242.571 116.606L241.657 116.832L240.43 111.875L241.344 111.649ZM235.049 113.818L238.913 112.862L239.095 113.597L236.135 114.33L236.742 116.784C237.616 116.567 238.32 116.372 238.853 116.198C239.387 116.024 239.908 115.814 240.416 115.568L240.695 116.269C240.162 116.528 239.608 116.749 239.035 116.933C238.469 117.115 237.696 117.328 236.716 117.57L236.02 117.742L235.049 113.818ZM237.136 118.415L242.679 117.043L243.483 120.292L237.94 121.664L237.136 118.415ZM242.409 119.788L241.964 117.99L238.199 118.922L238.644 120.72L242.409 119.788Z" fill="black"/>
<path d="M229.132 115.167L229.363 116.101C229.509 116.69 229.831 117.183 230.33 117.58C230.827 117.97 231.421 118.196 232.11 118.257L231.818 119.078C231.307 119.028 230.835 118.882 230.402 118.637C229.969 118.393 229.598 118.074 229.29 117.679C229.229 118.228 229.062 118.734 228.79 119.195C228.517 119.656 228.153 120.045 227.697 120.361L227.031 119.756C227.636 119.361 228.063 118.844 228.313 118.206C228.563 117.568 228.606 116.917 228.442 116.255L228.228 115.391L229.132 115.167ZM228.916 122.305C228.79 121.795 228.947 121.335 229.386 120.924C229.832 120.511 230.506 120.193 231.407 119.97C232.314 119.746 233.058 119.713 233.638 119.871C234.225 120.028 234.582 120.362 234.708 120.872C234.833 121.375 234.672 121.833 234.226 122.246C233.786 122.657 233.113 122.974 232.206 123.199C231.305 123.422 230.561 123.455 229.974 123.298C229.394 123.139 229.041 122.808 228.916 122.305ZM229.801 122.086C229.871 122.371 230.101 122.549 230.492 122.622C230.889 122.692 231.402 122.649 232.031 122.494C232.667 122.336 233.141 122.135 233.452 121.889C233.764 121.643 233.885 121.378 233.814 121.093C233.742 120.801 233.511 120.62 233.12 120.548C232.73 120.476 232.217 120.518 231.581 120.676C230.952 120.831 230.478 121.033 230.16 121.28C229.848 121.526 229.728 121.795 229.801 122.086ZM231.939 113.987L232.853 113.761L233.399 115.966L234.661 115.654L234.848 116.409L233.586 116.721L234.161 119.046L233.247 119.272L231.939 113.987Z" fill="black"/>
<path d="M233.784 101.969C234.162 101.875 234.524 101.919 234.871 102.1C235.217 102.275 235.523 102.575 235.79 103.001C236.057 103.427 236.269 103.954 236.424 104.584C236.58 105.213 236.64 105.781 236.604 106.289C236.566 106.791 236.436 107.202 236.214 107.524C235.99 107.84 235.689 108.044 235.311 108.138C234.934 108.231 234.572 108.187 234.225 108.006C233.884 107.823 233.58 107.519 233.313 107.093C233.046 106.667 232.835 106.14 232.679 105.511C232.525 104.888 232.467 104.326 232.504 103.825C232.54 103.317 232.667 102.906 232.884 102.592C233.107 102.27 233.407 102.062 233.784 101.969ZM233.514 105.304C233.687 106.006 233.916 106.533 234.2 106.884C234.482 107.229 234.782 107.362 235.1 107.284C235.424 107.203 235.631 106.945 235.72 106.508C235.807 106.065 235.764 105.492 235.59 104.79C235.418 104.095 235.191 103.575 234.908 103.23C234.625 102.878 234.32 102.743 233.996 102.823C233.678 102.902 233.475 103.163 233.388 103.606C233.3 104.043 233.341 104.609 233.514 105.304ZM236.349 100.786L237.203 100.574L238.01 103.833L239.092 103.565L238.239 100.117L239.104 99.9036L241.272 108.666L240.408 108.88L239.274 104.3L238.192 104.568L239.219 108.72L238.365 108.932L236.349 100.786Z" fill="black"/>
<path d="M230.392 102.07L231.988 108.517L231.084 108.741L230.521 106.466L228.365 107C228.22 107.296 228.01 107.552 227.733 107.768C227.456 107.984 227.139 108.136 226.781 108.225C226.357 108.33 225.947 108.333 225.55 108.234C225.16 108.134 224.824 107.943 224.544 107.661C224.268 107.371 224.078 107.014 223.973 106.59C223.868 106.166 223.869 105.761 223.978 105.376C224.093 104.989 224.3 104.66 224.598 104.39C224.902 104.111 225.265 103.919 225.689 103.814C226.047 103.725 226.395 103.713 226.734 103.777C227.072 103.834 227.377 103.958 227.649 104.151L229.815 103.615L229.488 102.294L230.392 102.07ZM224.827 106.378C224.93 106.796 225.147 107.104 225.478 107.303C225.813 107.494 226.183 107.54 226.587 107.44C226.991 107.34 227.293 107.128 227.494 106.804C227.694 106.474 227.742 106.1 227.638 105.683C227.535 105.265 227.319 104.96 226.99 104.768C226.66 104.568 226.293 104.519 225.889 104.619C225.485 104.719 225.18 104.935 224.974 105.267C224.773 105.591 224.724 105.961 224.827 106.378ZM226.183 109.258L227.097 109.032L227.601 111.069L232.568 109.839L232.753 110.584L226.871 112.04L226.183 109.258ZM228.241 104.795C228.368 105.024 228.459 105.248 228.513 105.466C228.573 105.711 228.595 105.941 228.578 106.156L230.336 105.721L230 104.36L228.241 104.795Z" fill="black"/>
<g clip-path="url(#clip1_918_11572)">
<path d="M396 171.096V140.409C390.103 127.713 380.113 117.284 367.718 110.855C370.771 106.831 373.592 102.414 376.09 97.6275C378.865 92.3319 381.038 86.9437 382.634 81.625C383.467 78.8269 383.443 75.89 382.703 73.1844C381.062 67.3569 374.957 64.1656 369.245 66.1544C366.585 67.0794 364.18 68.7444 362.353 71.0337C358.908 75.4044 355.74 80.2606 352.988 85.5794C349.773 91.7306 347.368 97.9975 345.703 104.149C343.368 103.894 341.009 103.732 338.604 103.732C333.794 103.732 329.123 104.287 324.637 105.305C325.908 97.4194 326.232 88.8862 325.423 80.0756C324.822 73.485 323.619 67.195 321.908 61.275C321.006 58.1762 319.248 55.4706 316.913 53.3894C311.895 48.9494 304.31 49.6431 300.193 54.9387C298.274 57.39 297.048 60.3731 296.725 63.5875C296.147 69.7156 296.123 76.1212 296.725 82.7119C297.765 94.0431 300.587 104.542 304.657 113.607C295.962 119.157 288.7 126.765 283.59 135.761C282.734 135.876 281.855 135.946 280.977 135.946C279.404 135.946 277.855 135.761 276.375 135.414C275.843 135.298 275.311 135.229 274.733 135.229C270.825 135.229 267.68 138.397 267.68 142.282C267.68 142.976 267.818 143.646 268.003 144.271H267.98C271.68 154.422 274.386 165.014 275.982 175.975V175.929C276.606 180.091 277.623 184.138 278.988 188H379.073C388.415 188 395.977 180.438 395.977 171.096H396Z" fill="white"/>
<path d="M310.762 110.207C313.306 108.959 315.965 107.872 318.671 106.97C320.174 101.443 320.752 95.1761 320.151 88.5624C319.827 85.0011 319.179 81.6018 318.254 78.4336C317.769 76.7686 316.821 75.2886 315.549 74.1786C312.843 71.7736 308.75 72.1668 306.53 75.0111C305.489 76.3293 304.842 77.948 304.657 79.6824C304.333 82.9893 304.333 86.4349 304.657 89.9961C305.374 97.6505 307.571 104.611 310.739 110.207H310.762Z" fill="#FFC2C2"/>
<path d="M363.234 108.705C365.477 105.837 367.489 102.577 369.2 98.9923C370.634 95.9629 371.744 92.8873 372.53 89.8579C372.946 88.2623 372.877 86.6204 372.391 85.1173C371.35 81.8798 367.835 80.2148 364.667 81.4635C363.187 82.0416 361.869 83.036 360.898 84.3541C359.048 86.8748 357.383 89.696 355.949 92.7254C353.984 96.8648 352.665 101.074 351.902 105.144C355.834 105.976 359.626 107.179 363.234 108.705Z" fill="#FFC2C2"/>
<path d="M315.662 153.567C317.808 153.567 319.547 151.828 319.547 149.682C319.547 147.536 317.808 145.797 315.662 145.797C313.517 145.797 311.777 147.536 311.777 149.682C311.777 151.828 313.517 153.567 315.662 153.567Z" fill="#1B76FF"/>
<path d="M355.186 153.567C357.331 153.567 359.071 151.828 359.071 149.682C359.071 147.536 357.331 145.797 355.186 145.797C353.04 145.797 351.301 147.536 351.301 149.682C351.301 151.828 353.04 153.567 355.186 153.567Z" fill="#1B76FF"/>
<path d="M335.342 155.926L337.469 155.972C339.828 156.018 341.285 158.308 340.152 159.765L339.157 161.06C339.157 161.06 339.134 161.083 339.111 161.106L338.695 161.591C336.914 163.603 333.769 163.603 331.988 161.591L331.572 161.106C331.572 161.106 331.549 161.083 331.526 161.06L330.532 159.765C329.422 158.308 330.878 156.018 333.214 155.972L335.342 155.926Z" fill="#1B76FF"/>
</g>
<path d="M38.1 68.57C32.49 68.57 28.41 65.45 28.41 60.86C28.41 56.27 32.49 53 38.1 53C43.71 53 47.79 56.27 47.79 60.86C47.79 65.45 43.71 68.57 38.1 68.57ZM38.1 64.16C40.17 64.16 41.73 62.81 41.73 60.89C41.73 58.97 40.17 57.56 38.1 57.56C36.03 57.56 34.47 58.97 34.47 60.89C34.47 62.81 36.03 64.16 38.1 64.16ZM25.2 74.27V69.38H51V74.27H41.16V80.75H35.04V74.27H25.2ZM76.9629 80.75H71.2029V53.84H76.9629V80.75ZM69.8529 76.97H53.7129V63.2H62.5929V58.97H53.6529V54.23H68.4129V67.88H59.5929V72.11H69.8529V76.97ZM115.364 80.75H110.324V68.3H108.374V80.36H103.604V53.9H108.374V62.9H110.324V53.84H115.364V80.75ZM102.434 54.59V59.39H99.0141V60.74C99.0141 62.03 98.8341 63.5 98.5041 65.03L103.544 73.43L100.064 77.42L96.6141 70.82C95.5641 73.25 94.1541 75.71 92.4441 77.9L88.7241 73.82C92.4141 69.83 93.8241 64.88 93.8241 60.74V59.39H90.0741V54.59H102.434ZM119.727 53.87H126.207V58.88H142.137V63.17H119.727V53.87ZM117.927 68.99V64.7H143.727V68.99H117.927ZM130.827 69.68C135.927 69.68 139.497 72.05 139.497 75.65C139.497 79.25 135.927 81.62 130.827 81.62C125.727 81.62 122.157 79.25 122.157 75.65C122.157 72.05 125.727 69.68 130.827 69.68ZM130.827 73.25C129.237 73.25 128.097 74.15 128.097 75.5C128.097 76.85 129.237 77.75 130.827 77.75C132.417 77.75 133.557 76.85 133.557 75.5C133.557 74.15 132.417 73.25 130.827 73.25ZM48.96 110.19H43.2V99.24H27.24V94.23H48.96V110.19ZM51 118.95H25.2V114.03H28.74V104.97H34.11V114.03H36.51V104.97H41.79V114.03H51V118.95ZM70.0629 111.6H52.3629V107.52H58.3929V106.05C55.3929 105.42 53.6829 103.77 53.6829 101.25C53.6829 100.14 54.1029 99.18 54.8829 98.43H52.4829V94.68H58.3029V92.67H64.1529V94.68H69.7929V98.43H67.7229C68.5029 99.18 68.9229 100.14 68.9229 101.25C68.9229 103.77 67.2129 105.42 64.2129 106.05V107.52H70.0629V111.6ZM76.6629 113.49H71.0229V93.84H76.6629V100.2H79.5129V105.3H76.6629V113.49ZM61.3029 102.75C62.6829 102.75 63.6429 101.88 63.6429 100.59C63.6429 99.3 62.6829 98.43 61.3029 98.43C59.9229 98.43 58.9629 99.3 58.9629 100.59C58.9629 101.88 59.9229 102.75 61.3029 102.75ZM77.1429 116.04V120.39H54.9129V112.59H60.9129V116.04H77.1429ZM88.3758 106.8C84.0258 106.8 80.5458 104.85 80.5458 101.37C80.5458 100.14 81.1458 99.18 82.1658 98.49H79.4958V94.68H85.4358V92.64H91.2858V94.68H97.0458V98.49H94.5858C95.6058 99.18 96.2058 100.14 96.2058 101.37C96.2058 104.85 92.7258 106.8 88.3758 106.8ZM103.676 106.62H98.0358V93.84H103.676V97.53H106.826V102.63H103.676V106.62ZM88.3758 102.99C89.9658 102.99 91.1058 102.03 91.1058 100.74C91.1058 99.45 89.9658 98.49 88.3758 98.49C86.7858 98.49 85.6458 99.45 85.6458 100.74C85.6458 102.03 86.7858 102.99 88.3758 102.99ZM97.6758 111H82.3158V107.4H103.676V115.35H88.3758V116.67H104.156V120.57H82.3758V112.26H97.6758V111ZM131.739 120.75H126.219V93.84H131.739V102.54H134.889V108.09H131.739V120.75ZM111.489 117.54L107.199 113.73C110.409 109.68 111.219 104.94 111.219 99.69H107.919V94.59H116.469V99.36C116.469 105.78 115.629 111.72 111.489 117.54ZM120.279 118.8L115.989 114.93C118.899 110.61 119.679 105.24 119.679 99.69H117.129V94.59H124.929V99.36C124.929 106.11 124.329 112.44 120.279 118.8ZM161.452 119.25H135.652V114.54H139.702V110.04H143.242C140.062 108.63 138.082 105.84 138.082 102.3C138.082 97.05 142.372 93.36 148.552 93.36C154.732 93.36 159.022 97.05 159.022 102.3C159.022 105.84 157.042 108.63 153.862 110.04H157.402V114.54H161.452V119.25ZM148.552 106.35C151.102 106.35 152.842 104.67 152.842 102.3C152.842 99.93 151.102 98.25 148.552 98.25C146.002 98.25 144.262 99.93 144.262 102.3C144.262 104.67 146.002 106.35 148.552 106.35ZM148.552 111.09C147.502 111.09 146.542 110.97 145.612 110.79V114.54H151.492V110.79C150.562 110.97 149.602 111.09 148.552 111.09ZM165.454 101.55L162.154 97.23C163.984 95.28 166.954 93.9 170.494 93.9C175.564 93.9 178.894 96.69 178.894 100.98C178.894 103.44 177.514 105.21 175.294 107.16L172.804 109.32L172.594 111.99H168.034L167.674 107.28L171.244 104.28C172.264 103.41 172.864 102.42 172.864 101.28C172.864 100.02 171.694 99.12 169.894 99.12C168.274 99.12 166.534 100.14 165.454 101.55ZM170.314 120C168.424 120 166.954 118.53 166.954 116.73C166.954 114.93 168.424 113.46 170.314 113.46C172.204 113.46 173.674 114.93 173.674 116.73C173.674 118.53 172.204 120 170.314 120Z" fill="white"/>
<path d="M35.31 140.97V154.11H34.185V140.97H35.31ZM25.455 142.23H31.635V143.175H26.565V149.88C27.935 149.88 29.075 149.85 29.985 149.79C30.905 149.73 31.83 149.61 32.76 149.43L32.88 150.39C31.91 150.57 30.955 150.69 30.015 150.75C29.085 150.81 27.915 150.84 26.505 150.84H25.455V142.23ZM44.7304 142.32V143.265H41.7904V145.035C41.7904 145.715 41.9404 146.41 42.2404 147.12C42.5504 147.83 42.9654 148.475 43.4854 149.055C44.0054 149.625 44.5754 150.055 45.1954 150.345L44.5504 151.245C43.8204 150.885 43.1604 150.34 42.5704 149.61C41.9804 148.88 41.5404 148.075 41.2504 147.195C40.9504 148.145 40.4954 149.015 39.8854 149.805C39.2754 150.595 38.6054 151.18 37.8754 151.56L37.2154 150.675C37.8254 150.375 38.3954 149.92 38.9254 149.31C39.4654 148.7 39.8954 148.015 40.2154 147.255C40.5354 146.495 40.6954 145.755 40.6954 145.035V143.265H37.6654V142.32H44.7304ZM46.3504 140.97H47.4754V146.31H49.6504V147.255H47.4754V154.095H46.3504V140.97ZM60.9607 140.985V150.57H59.8207V140.985H60.9607ZM50.5207 145.125C50.5207 144.505 50.6657 143.95 50.9557 143.46C51.2557 142.97 51.6657 142.59 52.1857 142.32C52.7057 142.04 53.2857 141.9 53.9257 141.9C54.5657 141.9 55.1457 142.04 55.6657 142.32C56.1857 142.59 56.5907 142.97 56.8807 143.46C57.1807 143.95 57.3307 144.505 57.3307 145.125C57.3307 145.745 57.1807 146.3 56.8807 146.79C56.5907 147.27 56.1857 147.65 55.6657 147.93C55.1457 148.2 54.5657 148.335 53.9257 148.335C53.2857 148.335 52.7057 148.2 52.1857 147.93C51.6657 147.65 51.2557 147.265 50.9557 146.775C50.6657 146.285 50.5207 145.735 50.5207 145.125ZM51.6157 145.125C51.6157 145.545 51.7157 145.925 51.9157 146.265C52.1257 146.605 52.4057 146.87 52.7557 147.06C53.1057 147.25 53.4957 147.345 53.9257 147.345C54.3657 147.345 54.7607 147.25 55.1107 147.06C55.4607 146.87 55.7357 146.605 55.9357 146.265C56.1457 145.925 56.2507 145.545 56.2507 145.125C56.2507 144.465 56.0307 143.925 55.5907 143.505C55.1507 143.085 54.5957 142.875 53.9257 142.875C53.4957 142.875 53.1007 142.97 52.7407 143.16C52.3907 143.35 52.1157 143.62 51.9157 143.97C51.7157 144.31 51.6157 144.695 51.6157 145.125ZM52.5757 149.595H53.6857V152.865H61.3657V153.795H52.5757V149.595ZM78.0381 146.475V147.39H72.6681V148.74H76.5081V151.71H68.7681V153.06H76.9131V153.945H67.6731V150.885H75.4131V149.61H67.6281V148.74H71.5431V147.39H66.1881V146.475H78.0381ZM66.8331 144.945C67.6031 144.875 68.3331 144.72 69.0231 144.48C69.7231 144.24 70.2931 143.935 70.7331 143.565C71.1731 143.195 71.4131 142.785 71.4531 142.335H67.2831V141.42H76.9731V142.335H72.7881C72.8281 142.785 73.0681 143.195 73.5081 143.565C73.9481 143.935 74.5131 144.24 75.2031 144.48C75.9031 144.72 76.6381 144.875 77.4081 144.945L77.0331 145.8C75.9331 145.68 74.9331 145.415 74.0331 145.005C73.1431 144.595 72.5081 144.07 72.1281 143.43C71.7481 144.07 71.1081 144.595 70.2081 145.005C69.3181 145.415 68.3181 145.68 67.2081 145.8L66.8331 144.945ZM90.1284 140.97V154.095H89.0484V140.97H90.1284ZM79.0134 150.435C80.4034 149.605 81.4684 148.61 82.2084 147.45C82.9484 146.28 83.3734 144.99 83.4834 143.58H79.5534V142.65H84.6084C84.6084 143.99 84.3884 145.23 83.9484 146.37H86.3184V141.315H87.3834V153.405H86.3184V147.285H83.5434C82.7034 148.895 81.4134 150.22 79.6734 151.26L79.0134 150.435ZM105.361 142.26V143.52C105.361 144.62 105.331 145.61 105.271 146.49C105.211 147.37 105.061 148.4 104.821 149.58L103.711 149.445C103.941 148.385 104.096 147.33 104.176 146.28L96.2108 146.745L96.0458 145.755L104.221 145.425C104.241 144.965 104.251 144.33 104.251 143.52V143.19H96.3908V142.26H105.361ZM94.9658 151.335H99.6308V147.915H100.741V151.335H106.816V152.265H94.9658V151.335ZM118.516 140.97V149.055H117.376V140.97H118.516ZM108.586 142.005H114.751V142.935H109.696V146.805C111.186 146.805 112.391 146.775 113.311 146.715C114.231 146.655 115.141 146.53 116.041 146.34L116.161 147.27C115.221 147.45 114.276 147.575 113.326 147.645C112.376 147.705 111.151 147.735 109.651 147.735H108.586V142.005ZM109.771 151.575C109.771 150.795 110.161 150.185 110.941 149.745C111.731 149.295 112.806 149.07 114.166 149.07C115.526 149.07 116.596 149.295 117.376 149.745C118.166 150.185 118.561 150.795 118.561 151.575C118.561 152.365 118.171 152.98 117.391 153.42C116.611 153.86 115.536 154.08 114.166 154.08C112.796 154.08 111.721 153.86 110.941 153.42C110.161 152.98 109.771 152.365 109.771 151.575ZM110.911 151.575C110.911 152.075 111.201 152.47 111.781 152.76C112.361 153.05 113.156 153.195 114.166 153.195C115.176 153.195 115.971 153.05 116.551 152.76C117.141 152.47 117.436 152.075 117.436 151.575C117.436 151.075 117.146 150.685 116.566 150.405C115.986 150.115 115.186 149.97 114.166 149.97C113.156 149.97 112.361 150.115 111.781 150.405C111.201 150.685 110.911 151.075 110.911 151.575ZM133.914 140.97V143.835H135.879V144.765H133.914V147.66H132.789V140.97H133.914ZM124.014 144.36C124.014 143.8 124.159 143.3 124.449 142.86C124.739 142.41 125.139 142.065 125.649 141.825C126.159 141.575 126.734 141.45 127.374 141.45C128.024 141.45 128.604 141.575 129.114 141.825C129.634 142.065 130.039 142.41 130.329 142.86C130.619 143.3 130.764 143.8 130.764 144.36C130.764 144.93 130.619 145.435 130.329 145.875C130.039 146.315 129.634 146.66 129.114 146.91C128.604 147.15 128.024 147.27 127.374 147.27C126.734 147.27 126.159 147.15 125.649 146.91C125.139 146.66 124.739 146.315 124.449 145.875C124.159 145.435 124.014 144.93 124.014 144.36ZM125.109 144.36C125.109 144.94 125.324 145.42 125.754 145.8C126.184 146.17 126.724 146.355 127.374 146.355C128.044 146.355 128.594 146.17 129.024 145.8C129.454 145.42 129.669 144.94 129.669 144.36C129.669 143.78 129.454 143.305 129.024 142.935C128.594 142.555 128.044 142.365 127.374 142.365C126.724 142.365 126.184 142.555 125.754 142.935C125.324 143.305 125.109 143.78 125.109 144.36ZM125.634 148.29H133.914V151.47H126.774V153H134.394V153.915H125.664V150.615H132.804V149.19H125.634V148.29ZM147.309 140.955V154.11H146.199V148.5H143.469V147.585H146.199V144.915H143.559V143.985H146.199V140.955H147.309ZM137.004 142.17H142.719V146.82H138.144V150.09C139.214 150.09 140.179 150.065 141.039 150.015C141.899 149.955 142.799 149.85 143.739 149.7L143.844 150.645C142.874 150.795 141.949 150.9 141.069 150.96C140.189 151.01 139.169 151.035 138.009 151.035H137.034V145.89H141.609V143.1H137.004V142.17ZM159.444 140.955V146.175H161.619V147.12H159.444V154.11H158.319V140.955H159.444ZM149.949 142.26H156.039V143.175H151.059V149.865C152.359 149.865 153.454 149.835 154.344 149.775C155.244 149.715 156.149 149.595 157.059 149.415L157.194 150.375C156.234 150.555 155.289 150.675 154.359 150.735C153.439 150.795 152.309 150.825 150.969 150.825H149.949V142.26ZM168.1 141.84C169.02 141.84 169.84 141.985 170.56 142.275C171.28 142.555 171.84 142.955 172.24 143.475C172.65 143.985 172.855 144.58 172.855 145.26C172.855 145.9 172.675 146.465 172.315 146.955C171.965 147.445 171.475 147.835 170.845 148.125C170.215 148.415 169.485 148.59 168.655 148.65V151.455H174.07V152.385H162.175V151.455H167.545V148.65C166.725 148.6 165.995 148.43 165.355 148.14C164.725 147.84 164.23 147.445 163.87 146.955C163.52 146.455 163.345 145.89 163.345 145.26C163.345 144.58 163.545 143.985 163.945 143.475C164.355 142.955 164.92 142.555 165.64 142.275C166.36 141.985 167.18 141.84 168.1 141.84ZM164.44 145.26C164.44 145.75 164.595 146.19 164.905 146.58C165.225 146.96 165.66 147.255 166.21 147.465C166.77 147.675 167.4 147.78 168.1 147.78C168.8 147.78 169.43 147.675 169.99 147.465C170.55 147.255 170.985 146.96 171.295 146.58C171.615 146.19 171.775 145.75 171.775 145.26C171.775 144.76 171.615 144.32 171.295 143.94C170.985 143.56 170.55 143.265 169.99 143.055C169.43 142.845 168.8 142.74 168.1 142.74C167.4 142.74 166.77 142.845 166.21 143.055C165.66 143.265 165.225 143.56 164.905 143.94C164.595 144.32 164.44 144.76 164.44 145.26Z" fill="white"/>
</g>
<defs>
<clipPath id="clip0_918_11572">
<rect width="375" height="188" fill="white"/>
</clipPath>
<clipPath id="clip1_918_11572">
<rect width="148" height="148" fill="white" transform="translate(248 40)"/>
</clipPath>
</defs>
</svg>
