<svg width="141" height="141" viewBox="0 0 141 141" fill="none" xmlns="http://www.w3.org/2000/svg">
<g clip-path="url(#clip0_10568_71482)">
<rect x="0.5" y="0.5" width="140" height="140" rx="70" fill="#E5F0FF"/>
<path d="M59.9082 38.7723C62.9257 34.8866 68.4377 34.4012 72.0986 37.6395C73.7881 39.1776 75.075 41.1611 75.7188 43.4276C76.9659 47.759 77.8514 52.3742 78.2939 57.1913C78.8974 63.6682 78.6558 69.9026 77.7305 75.6913C80.9892 74.9627 84.4091 74.5575 87.9092 74.5575C89.6794 74.5575 91.4099 74.6383 93.0996 74.8407C94.3066 70.307 96.0768 65.7328 98.4102 61.1991C100.422 57.313 102.755 53.7505 105.249 50.5526C106.577 48.8929 108.347 47.6783 110.278 46.9901C114.462 45.5329 118.888 47.8408 120.095 52.1317C120.658 54.1152 120.658 56.2607 120.055 58.3251C118.888 62.2112 117.278 66.1783 115.267 70.0643C113.416 73.586 111.364 76.8242 109.151 79.7792C123.916 87.511 134.015 103.056 134.015 120.948C134.015 126.897 132.897 132.586 130.864 137.813C126.589 139.674 121.871 140.71 116.91 140.71H58.9502C54.0046 140.71 49.2995 139.681 45.0342 137.831C43.0012 132.601 41.8838 126.907 41.8838 120.948C41.8838 104.513 50.4135 90.0616 63.167 81.8036C60.1899 75.1244 58.1375 67.4331 57.373 59.1347C56.9305 54.3175 56.9305 49.6212 57.373 45.1278C57.6145 42.7801 58.5002 40.5534 59.9082 38.7723Z" fill="white"/>
<path d="M76.3646 109.876C77.862 109.876 79.0759 108.662 79.0759 107.164C79.0759 105.667 77.862 104.453 76.3646 104.453C74.8672 104.453 73.6533 105.667 73.6533 107.164C73.6533 108.662 74.8672 109.876 76.3646 109.876Z" fill="#98A3A9"/>
<path d="M99.5335 109.876C101.031 109.876 102.245 108.662 102.245 107.164C102.245 105.667 101.031 104.453 99.5335 104.453C98.0361 104.453 96.8223 105.667 96.8223 107.164C96.8223 108.662 98.0361 109.876 99.5335 109.876Z" fill="#98A3A9"/>
<path d="M87.9462 110.852L88.9555 110.877C90.0745 110.902 90.7657 112.161 90.2281 112.962L89.7564 113.673C89.7564 113.673 89.7454 113.686 89.7344 113.699L89.537 113.966C88.6922 115.072 87.2002 115.072 86.3554 113.966L86.158 113.699C86.158 113.699 86.147 113.686 86.136 113.673L85.6643 112.962C85.1377 112.161 85.8288 110.902 86.9369 110.877L87.9462 110.852Z" fill="#98A3A9"/>
<path d="M66.6514 79.9921C68.9936 78.8153 71.4157 77.806 73.9303 76.9382C75.2562 71.862 75.7422 66.0825 75.1064 60.017C74.7732 56.7578 74.1422 53.6441 73.2662 50.7272C72.7948 49.1914 71.9094 47.8671 70.7411 46.8565C68.2207 44.6818 64.4523 45.0708 62.4374 47.7072C61.5006 48.934 60.9047 50.4162 60.7523 52.0103C60.4977 55.0425 60.518 58.2273 60.8513 61.4865C61.5751 68.5092 63.6839 74.8701 66.6514 79.9921Z" fill="#FFE5E5"/>
<path d="M106.956 78.8785C109.024 76.2503 110.884 73.2596 112.458 69.9582C113.785 67.1618 114.812 64.3394 115.541 61.5688C115.918 60.1059 115.853 58.5912 115.41 57.2059C114.448 54.2283 111.209 52.7007 108.282 53.8531C106.929 54.3839 105.706 55.2902 104.809 56.5072C103.105 58.8247 101.57 61.4011 100.243 64.1976C98.4355 68.0039 97.2129 71.8619 96.5106 75.6035C100.127 76.3672 103.626 77.4675 106.969 78.8785L106.956 78.8785Z" fill="#FFE5E5"/>
<path fill-rule="evenodd" clip-rule="evenodd" d="M42.1733 126.008C42.0651 124.963 41.992 123.907 41.9553 122.841C41.6724 114.633 43.5811 106.857 47.1555 100.078C46.5554 100.176 45.9444 100.235 45.3223 100.257C44.1925 100.296 43.0784 100.203 42.0207 99.9886C41.6447 99.9212 41.2492 99.8745 40.8457 99.8884C38.0616 99.9843 35.8695 102.311 35.9653 105.092C35.9822 105.584 36.0893 106.053 36.2461 106.5L36.2266 106.521C38.7682 112.755 40.7692 119.271 42.1733 126.008Z" fill="white"/>
<path d="M75.7698 99.121C80.1566 100.041 82.9674 104.343 82.0475 108.73C81.1275 113.117 76.8251 115.928 72.4383 115.008C68.0514 114.088 65.2407 109.786 66.1606 105.399C67.0805 101.012 71.3829 98.2011 75.7698 99.121Z" stroke="#C1C8CC" stroke-width="1.68"/>
<circle cx="101.322" cy="106.959" r="8.31064" transform="rotate(11.8434 101.322 106.959)" stroke="#C1C8CC" stroke-width="1.68"/>
<path d="M82.1521 106.024C84.1757 105.49 87.7461 104.697 93.0129 106.104" stroke="#C1C8CC" stroke-width="1.68"/>
<ellipse cx="39.583" cy="103.75" rx="2.625" ry="3.5" fill="white"/>
</g>
<defs>
<clipPath id="clip0_10568_71482">
<rect x="0.5" y="0.5" width="140" height="140" rx="70" fill="white"/>
</clipPath>
</defs>
</svg>
