<svg width="32" height="32" viewBox="0 0 32 32" fill="none" xmlns="http://www.w3.org/2000/svg">
<g clip-path="url(#clip0_1443_34159)">
<rect width="32" height="32" rx="16" fill="#DEE1E3"/>
<path fill-rule="evenodd" clip-rule="evenodd" d="M22.832 14.4036C22.3692 15.2843 21.8561 16.0942 21.3027 16.8332C24.9951 18.7667 27.5205 22.6541 27.5205 27.1286C27.5205 33.5265 22.3591 38.7198 16.0005 38.7198C9.64183 38.7198 4.48047 33.5366 4.48047 27.1286C4.48047 23.0185 6.61343 19.4045 9.80281 17.3393C9.05829 15.669 8.54517 13.7456 8.35401 11.6703C8.24333 10.4656 8.24333 9.29129 8.35401 8.1676C8.41437 7.58045 8.63572 7.02367 8.98786 6.57824C9.74244 5.60641 11.1208 5.48493 12.0364 6.29479C12.459 6.67948 12.7809 7.17552 12.9419 7.74243C13.2538 8.82562 13.4751 9.97968 13.5858 11.1844C13.7367 12.8041 13.6763 14.3631 13.4449 15.8107C14.2599 15.6285 15.1151 15.5273 15.9904 15.5273C16.4331 15.5273 16.8657 15.5475 17.2883 15.5981C17.5901 14.4643 18.0328 13.3204 18.6164 12.1866C19.1194 11.2147 19.703 10.3239 20.3268 9.52413C20.6588 9.10907 21.1015 8.80537 21.5844 8.63328C22.6308 8.26884 23.7375 8.84587 24.0393 9.91894C24.1802 10.415 24.1802 10.9515 24.0293 11.4678C23.7375 12.4396 23.335 13.4317 22.832 14.4036Z" fill="white"/>
<path d="M13.1205 24.32C13.4739 24.32 13.7605 24.0335 13.7605 23.68C13.7605 23.3266 13.4739 23.04 13.1205 23.04C12.767 23.04 12.4805 23.3266 12.4805 23.68C12.4805 24.0335 12.767 24.32 13.1205 24.32Z" fill="#C1C8CC"/>
<path d="M18.8802 24.32C19.2337 24.32 19.5202 24.0335 19.5202 23.68C19.5202 23.3266 19.2337 23.04 18.8802 23.04C18.5268 23.04 18.2402 23.3266 18.2402 23.68C18.2402 24.0335 18.5268 24.32 18.8802 24.32Z" fill="#C1C8CC"/>
<path d="M15.9986 24.6396L16.2607 24.6458C16.5512 24.652 16.7307 24.9584 16.5911 25.1533L16.4686 25.3266C16.4686 25.3266 16.4658 25.3297 16.4629 25.3328L16.4117 25.3977C16.1923 25.6669 15.8049 25.6669 15.5856 25.3977L15.5343 25.3328C15.5343 25.3328 15.5314 25.3297 15.5286 25.3266L15.4061 25.1533C15.2694 24.9584 15.4488 24.652 15.7365 24.6458L15.9986 24.6396Z" fill="#C1C8CC"/>
</g>
<defs>
<clipPath id="clip0_1443_34159">
<rect width="32" height="32" rx="16" fill="white"/>
</clipPath>
</defs>
</svg>
