<svg width="160" height="160" viewBox="0 0 160 160" fill="none" xmlns="http://www.w3.org/2000/svg">
<g filter="url(#filter0_i_3400_24641)">
<g clip-path="url(#clip0_3400_24641)">
<rect width="160" height="160" rx="80" fill="#1B76FF"/>
<path d="M124.477 68.7586C127.213 65.1698 129.734 61.2423 131.966 56.9759C134.437 52.2579 136.391 47.4645 137.828 42.7214C138.572 40.2243 138.56 37.6269 137.879 35.2051C136.416 30.0102 130.945 27.1744 125.838 28.9562C123.468 29.7844 121.312 31.265 119.686 33.3104C116.61 37.2002 113.773 41.5293 111.302 46.2474C108.427 51.7309 106.271 57.3147 104.796 62.7857C102.716 62.5598 100.598 62.4218 98.4419 62.4218C94.1427 62.4218 89.9695 62.9112 85.9477 63.8146C87.095 56.7877 87.3723 49.2087 86.6411 41.3536C86.099 35.4937 85.0273 29.8847 83.5018 24.6146C82.6949 21.854 81.1189 19.4448 79.0387 17.6002C74.5503 13.6476 67.7674 14.275 64.0859 18.9805C62.3839 21.1639 61.2744 23.824 60.9844 26.685C60.4675 32.1308 60.4423 37.8402 60.9844 43.7127C61.9174 53.8013 64.439 63.1496 68.07 71.218C60.291 76.1493 53.8107 82.9378 49.2341 90.9435C48.465 91.0439 47.6833 91.0941 46.8891 91.0941C45.477 91.0941 44.0901 90.9309 42.7789 90.6172C42.3125 90.5169 41.8208 90.4416 41.3165 90.4416C37.8367 90.4416 35 93.2523 35 96.7281C35 97.343 35.1135 97.9327 35.29 98.4974L35.2648 98.5225C38.5806 107.532 41.0013 116.968 42.4259 126.718L42.4511 126.68C46.3469 153.997 69.9233 175.003 98.4419 175.003C129.684 175.003 155 149.794 155 118.712C155 96.9665 142.607 78.1194 124.477 68.7335V68.7586Z" fill="white"/>
<path d="M73.529 68.1951C75.811 67.0784 78.1686 66.1247 80.6145 65.3091C81.951 60.4028 82.4805 54.8064 81.9257 48.9214C81.6358 45.7593 81.0558 42.7352 80.2363 39.8993C79.795 38.4061 78.9503 37.1137 77.8282 36.1224C75.4076 33.9892 71.7513 34.328 69.7719 36.8627C68.8516 38.0422 68.259 39.4727 68.0951 41.0161C67.8177 43.9523 67.8051 47.0392 68.0951 50.2013C68.7255 57.0149 70.7049 63.201 73.529 68.1951Z" fill="#FFC2C2"/>
<path d="M120.442 66.8646C122.447 64.3174 124.25 61.4188 125.775 58.219C127.061 55.5086 128.057 52.7732 128.763 50.0879C129.129 48.67 129.066 47.2018 128.637 45.8592C127.704 42.9732 124.565 41.4925 121.728 42.6093C120.417 43.1237 119.232 44.0021 118.362 45.1816C116.71 47.4277 115.223 49.9248 113.937 52.6351C112.184 56.3243 110.999 60.0636 110.318 63.69C113.823 64.4303 117.215 65.4969 120.455 66.8646H120.442Z" fill="#FFC2C2"/>
<path d="M77.9007 106.784C79.8155 106.784 81.3678 105.239 81.3678 103.334C81.3678 101.428 79.8155 99.8828 77.9007 99.8828C75.9859 99.8828 74.4336 101.428 74.4336 103.334C74.4336 105.239 75.9859 106.784 77.9007 106.784Z" fill="#1B76FF"/>
<path d="M113.252 106.784C115.167 106.784 116.719 105.239 116.719 103.334C116.719 101.428 115.167 99.8828 113.252 99.8828C111.337 99.8828 109.785 101.428 109.785 103.334C109.785 105.239 111.337 106.784 113.252 106.784Z" fill="#1B76FF"/>
<path d="M95.5125 108.906L97.4163 108.944C99.5218 108.982 100.82 111.027 99.8244 112.307L98.9292 113.449C98.9292 113.449 98.904 113.474 98.8914 113.486L98.5132 113.913C96.9246 115.72 94.1005 115.72 92.5119 113.913L92.1337 113.486C92.1337 113.486 92.1085 113.461 92.0959 113.449L91.2007 112.307C90.2047 111.014 91.5033 108.982 93.6088 108.944L95.5125 108.906Z" fill="#1B76FF"/>
</g>
</g>
<defs>
<filter id="filter0_i_3400_24641" x="0" y="0" width="163" height="160" filterUnits="userSpaceOnUse" color-interpolation-filters="sRGB">
<feFlood flood-opacity="0" result="BackgroundImageFix"/>
<feBlend mode="normal" in="SourceGraphic" in2="BackgroundImageFix" result="shape"/>
<feColorMatrix in="SourceAlpha" type="matrix" values="0 0 0 0 0 0 0 0 0 0 0 0 0 0 0 0 0 0 127 0" result="hardAlpha"/>
<feOffset dx="3"/>
<feGaussianBlur stdDeviation="10"/>
<feComposite in2="hardAlpha" operator="arithmetic" k2="-1" k3="1"/>
<feColorMatrix type="matrix" values="0 0 0 0 0 0 0 0 0 0 0 0 0 0 0 0 0 0 0.03 0"/>
<feBlend mode="normal" in2="shape" result="effect1_innerShadow_3400_24641"/>
</filter>
<clipPath id="clip0_3400_24641">
<rect width="160" height="160" rx="80" fill="white"/>
</clipPath>
</defs>
</svg>
