<svg width="280" height="168" viewBox="0 0 280 168" fill="none" xmlns="http://www.w3.org/2000/svg">
    <path d="M60.6605 13.3826C60.6605 13.267 60.5716 13.145 60.5716 13.0294C60.5716 12.9138 60.6742 12.7918 60.6674 12.6762C60.6674 12.5606 60.5716 12.445 60.5647 12.3294C60.5579 12.2138 60.4621 12.1047 60.4552 11.9891C60.4415 11.8735 60.4415 11.7579 60.4278 11.6423C60.4142 11.5267 60.4552 11.4047 60.4347 11.2891C60.4142 11.1735 60.4142 11.0579 60.3936 10.9423C60.3731 10.8267 60.2499 10.7304 60.2225 10.6148C60.1952 10.4992 60.2431 10.3708 60.2088 10.2552C60.1815 10.1396 60.0925 10.0433 60.0651 9.92767C60.0309 9.81207 60.1199 9.67079 60.0857 9.5552C60.0514 9.44603 59.9077 9.36255 59.8666 9.25337C59.8256 9.13778 59.7366 9.0543 59.675 8.95797C59.6134 8.8488 59.6271 8.7011 59.545 8.61762C59.4629 8.52771 59.3123 8.50845 59.2096 8.44423C59.107 8.37359 59.0522 8.23231 58.9359 8.18736C58.8195 8.1424 58.6621 8.21947 58.5389 8.19378C58.4158 8.16809 58.3063 7.98828 58.1831 7.98828C58.0599 7.98828 57.9367 8.11672 57.8135 8.13598C57.6903 8.15525 57.5534 8.12314 57.4302 8.16167C57.3139 8.2002 57.1702 8.21947 57.0607 8.28368C56.9512 8.34148 56.8143 8.39928 56.7253 8.47634C56.6295 8.5534 56.6295 8.72037 56.5542 8.81669C56.4858 8.91302 56.3694 8.9965 56.3284 9.10567C56.2873 9.21484 56.2873 9.34328 56.2736 9.4653C56.2599 9.57447 56.3831 9.68364 56.4037 9.80565C56.4174 9.91482 56.3558 10.0433 56.3968 10.1588C56.4379 10.268 56.4789 10.3836 56.5132 10.4928C56.5474 10.6084 56.6158 10.7111 56.65 10.8267C56.6843 10.9423 56.5884 11.0836 56.6158 11.1992C56.6432 11.3148 56.7664 11.4111 56.7869 11.5267C56.8074 11.6423 56.9033 11.7515 56.9238 11.8671C56.9443 11.9826 56.7938 12.1239 56.8074 12.2395C56.8211 12.3551 56.8759 12.4707 56.8827 12.5863C56.8896 12.7019 56.8485 12.8239 56.8554 12.9395C56.8554 13.0551 57.0128 13.1707 57.0128 13.2927C57.0128 13.4083 56.9512 13.5303 56.9512 13.6459C56.9512 13.7615 56.9991 13.8899 56.9922 14.0055C56.9854 14.1211 56.8827 14.2303 56.869 14.3523C56.8554 14.4679 56.7595 14.577 56.739 14.6926C56.7185 14.8082 56.7322 14.9302 56.7048 15.0458C56.6774 15.1614 56.7527 15.2963 56.7185 15.4119C56.6911 15.5275 56.6911 15.6495 56.6569 15.7651C56.6227 15.8807 56.5268 15.977 56.4858 16.0862C56.4447 16.1953 56.3489 16.2917 56.3078 16.4008C56.2599 16.51 56.2463 16.632 56.1983 16.7412C56.1504 16.8504 56.0957 16.9531 56.0341 17.0623C55.9793 17.165 56.0341 17.3256 55.9656 17.4283C55.9041 17.5311 55.8356 17.6338 55.774 17.7366C55.7124 17.8393 55.4592 17.8265 55.3908 17.9292C55.3223 18.0256 55.2744 18.1347 55.1991 18.2311C55.1239 18.3274 55.0486 18.4109 54.9664 18.5072C54.8912 18.5971 54.8912 18.7512 54.8022 18.8411C54.7201 18.931 54.6448 19.0274 54.5558 19.1108C54.4668 19.1943 54.2752 19.1815 54.1862 19.2585C54.0973 19.342 54.0768 19.4897 53.9809 19.5668C53.8851 19.6439 53.7414 19.6631 53.6456 19.7402C53.5498 19.8108 53.5156 19.9649 53.4129 20.0356C53.3102 20.1062 53.1939 20.1512 53.0912 20.2218C52.9886 20.286 52.8928 20.3567 52.7833 20.4209C52.6806 20.4787 52.5163 20.4337 52.4068 20.4851C52.2973 20.5365 52.1878 20.5686 52.0715 20.62C51.962 20.6649 51.9072 20.8319 51.7909 20.8768C51.6814 20.9218 51.5651 20.9667 51.4487 21.0053C51.3529 21.0374 51.2365 21.0053 51.1339 21.0181C51.1339 20.9346 51.1202 20.8512 51.1202 20.7677C51.1202 20.6521 51.1407 20.5365 51.1407 20.4209C51.1407 20.3053 51.1613 20.1897 51.1613 20.0741C51.1613 19.9585 51.175 19.8429 51.1681 19.7273C51.1681 19.6117 51.0791 19.5026 51.0655 19.387C51.0586 19.2714 51.0175 19.1622 51.0039 19.0466C50.9902 18.931 50.8944 18.8283 50.8807 18.7127C50.867 18.5971 50.8396 18.4879 50.8191 18.3788C50.7985 18.2632 50.9765 18.1155 50.9491 18.0063C50.9286 17.8907 50.8191 17.7944 50.7917 17.6852C50.7643 17.576 50.6754 17.4797 50.6411 17.3641C50.6069 17.2549 50.7164 17.1072 50.6754 16.9981C50.6411 16.8889 50.4358 16.8247 50.3948 16.7219C50.3537 16.6128 50.4427 16.4586 50.4016 16.3559C50.3605 16.2467 50.3058 16.1375 50.2579 16.0348C50.21 15.9256 50.1484 15.8293 50.0936 15.7265C50.0389 15.6238 49.8746 15.5724 49.813 15.4697C49.7583 15.3669 49.7309 15.2513 49.6693 15.155C49.6077 15.0523 49.5872 14.9367 49.5187 14.8403C49.4503 14.744 49.3408 14.6798 49.2655 14.5835C49.1971 14.4871 49.2108 14.333 49.1355 14.2431C49.0602 14.1532 48.937 14.0954 48.8549 14.0119C48.7728 13.9284 48.7317 13.8 48.6496 13.7165C48.5606 13.633 48.3827 13.6459 48.2937 13.5688C48.1979 13.4918 48.0952 13.4404 47.9994 13.3697C47.9036 13.2991 47.8831 13.1257 47.7804 13.0615C47.6777 12.9973 47.4861 13.0743 47.3835 13.0166C47.274 12.9588 47.2192 12.8175 47.1097 12.7725C47.0002 12.7211 46.8633 12.7404 46.747 12.6955C46.6306 12.6569 46.5417 12.5606 46.4253 12.5285C46.309 12.4964 46.1926 12.4579 46.0763 12.4322C45.9599 12.4065 45.8231 12.4707 45.6999 12.4514C45.5835 12.4322 45.474 12.323 45.3508 12.3102C45.2276 12.2973 45.1045 12.3358 44.9813 12.3294C44.8581 12.3294 44.7417 12.278 44.6185 12.278C44.4954 12.278 44.3859 12.3936 44.2627 12.4001C44.1395 12.4065 44.0163 12.3358 43.8931 12.3487C43.7699 12.3615 43.6467 12.3808 43.5304 12.4001C43.4072 12.4193 43.284 12.4193 43.1676 12.445C43.0513 12.4771 42.9281 12.5092 42.8118 12.5413C42.6954 12.5799 42.6133 12.689 42.4969 12.734C42.3806 12.7789 42.2643 12.8046 42.1548 12.856C42.0453 12.9074 41.9084 12.9138 41.8057 12.9716C41.7031 13.0294 41.5936 13.0872 41.4909 13.1578C41.3882 13.222 41.2856 13.2927 41.1898 13.3633C41.094 13.434 40.9845 13.5046 40.8955 13.5817C40.8065 13.6587 40.7655 13.7872 40.6833 13.8707C40.6012 13.9541 40.6012 14.1018 40.5259 14.1917C40.4506 14.2816 40.3617 14.3587 40.2932 14.4486C40.2248 14.5449 40.0195 14.5578 39.9579 14.6541C39.8963 14.7504 39.8963 14.8853 39.8347 14.988C39.7799 15.0908 39.6362 15.155 39.5883 15.2642C39.5404 15.3669 39.4925 15.4825 39.4446 15.5853C39.3967 15.6944 39.5336 15.8614 39.4925 15.9706C39.4514 16.0798 39.3693 16.1761 39.3419 16.2852C39.3077 16.3944 39.1982 16.4907 39.1708 16.5999C39.1435 16.7091 39.164 16.8311 39.1435 16.9467C39.1229 17.0623 39.0408 17.1715 39.0271 17.2806C39.0134 17.3962 38.9929 17.5118 38.9861 17.6274C38.9861 17.743 39.0887 17.865 39.0887 17.9742C39.0887 18.0898 39.0545 18.2054 39.0613 18.321C39.0613 18.4366 39.1435 18.5457 39.1572 18.6613C39.1708 18.7769 39.1572 18.8925 39.1777 19.0017C39.1982 19.1173 39.294 19.2136 39.3214 19.3228C39.3488 19.4384 39.3488 19.5475 39.383 19.6567C39.4172 19.7659 39.3419 19.9071 39.383 20.0163C39.4241 20.1255 39.4035 20.2603 39.4446 20.3631C39.4925 20.4723 39.5883 20.5622 39.6362 20.6649C39.691 20.7677 39.7389 20.8768 39.8005 20.9732C39.8552 21.0759 39.9031 21.1851 39.9647 21.2878C40.0332 21.3842 40.0742 21.5062 40.1427 21.5961C40.2111 21.6924 40.348 21.7438 40.4233 21.8337C40.4985 21.9236 40.608 21.9878 40.6902 22.0777C40.7723 22.1676 40.7723 22.3217 40.8544 22.4052C40.9366 22.4887 41.1624 22.4438 41.2514 22.5208C41.3403 22.6043 41.3472 22.7648 41.4362 22.8355C41.5251 22.9126 41.5867 23.0281 41.6757 23.1052C41.7715 23.1758 41.8605 23.2657 41.9563 23.33C42.0521 23.4006 42.1479 23.4777 42.2506 23.5419C42.3532 23.6061 42.5312 23.5612 42.6338 23.6254C42.7365 23.6832 42.8186 23.7795 42.9281 23.8373C43.0376 23.8951 43.1129 24.0043 43.2224 24.0556C43.3319 24.107 43.4346 24.1841 43.5441 24.229C43.6536 24.274 43.7904 24.274 43.9068 24.3189C44.0231 24.3639 44.1532 24.3639 44.2695 24.4024C44.3859 24.4409 44.5022 24.4795 44.6185 24.5116C44.7349 24.5437 44.8718 24.5244 44.9881 24.5501C45.1045 24.5822 45.2276 24.5822 45.3508 24.6079C45.4672 24.6336 45.5767 24.7107 45.693 24.7363C45.8162 24.7556 45.9463 24.7042 46.0694 24.7235C46.1926 24.7428 46.309 24.7492 46.4322 24.762C46.3979 24.7877 46.3774 24.8198 46.3637 24.8519C46.3295 24.9611 46.3637 25.096 46.3295 25.2051C46.2953 25.3143 46.3432 25.4492 46.3021 25.5648C46.2679 25.6739 46.0763 25.7381 46.0352 25.8473C45.9942 25.9565 46.0284 26.0913 45.9873 26.2005C45.9463 26.3097 46.0147 26.4574 45.9736 26.5666C45.9326 26.6757 45.7615 26.7399 45.7136 26.8491C45.6657 26.9583 45.7272 27.106 45.6862 27.2087C45.6451 27.3115 45.5082 27.3885 45.4603 27.4977C45.4124 27.6069 45.4193 27.7353 45.3714 27.8381C45.3235 27.9472 45.2208 28.0307 45.1729 28.1335C45.125 28.2362 44.9813 28.3069 44.9265 28.4096C44.8718 28.5124 44.9265 28.6665 44.8649 28.7692C44.8102 28.872 44.7759 28.9876 44.7212 29.0903C44.6596 29.1931 44.5775 29.283 44.5159 29.3793C44.4543 29.4821 44.2832 29.5206 44.2216 29.6169C44.16 29.7197 44.2763 29.9187 44.2079 30.0151C44.1395 30.1114 44.0779 30.2206 44.0094 30.3169C43.941 30.4132 43.811 30.471 43.7357 30.5673C43.6672 30.6637 43.503 30.6958 43.4277 30.7857C43.3593 30.8692 43.3593 31.004 43.2908 31.0939C43.284 30.9848 43.284 30.8756 43.2635 30.7664C43.2429 30.6508 43.3251 30.5224 43.2977 30.4068C43.2772 30.2912 43.1266 30.2013 43.0992 30.0921C43.0718 29.9765 43.0102 29.8738 42.976 29.7646C42.9418 29.6554 42.9213 29.5398 42.8802 29.4307C42.8391 29.3215 42.8665 29.1866 42.8186 29.0839C42.7707 28.9747 42.6612 28.8977 42.6133 28.7885C42.5585 28.6857 42.5722 28.5509 42.5175 28.4481C42.4627 28.3454 42.4011 28.2426 42.3327 28.1399C42.2711 28.0436 42.2164 27.9344 42.1479 27.8316C42.0795 27.7353 42.0453 27.6133 41.97 27.517C41.8947 27.4207 41.7783 27.3629 41.6962 27.273C41.6209 27.183 41.5114 27.1124 41.4293 27.0289C41.3472 26.9454 41.3061 26.817 41.2172 26.7335C41.1282 26.65 40.9981 26.6115 40.9092 26.528C40.8202 26.451 40.786 26.3033 40.6902 26.2262C40.5944 26.1491 40.478 26.0978 40.3822 26.0271C40.2864 25.9565 40.1084 25.9886 40.0058 25.918C39.9031 25.8537 39.8278 25.7446 39.7252 25.6868C39.6225 25.6225 39.5541 25.4941 39.4514 25.4363C39.3419 25.3785 39.2256 25.3336 39.1161 25.2758C39.0066 25.2244 38.9039 25.1409 38.7944 25.0895C38.6849 25.0382 38.5686 24.9868 38.4522 24.9418C38.3359 24.8969 38.2127 24.8584 38.0964 24.8198C37.98 24.7813 37.8568 24.7428 37.7405 24.7042C37.6241 24.6657 37.4872 24.685 37.3641 24.6529C37.2477 24.6207 37.1245 24.5758 37.0082 24.5501C36.885 24.5244 36.7481 24.5886 36.6249 24.563C36.5017 24.5373 36.3991 24.4152 36.2759 24.4024C36.1527 24.3831 36.0295 24.3382 35.9063 24.3253C35.7831 24.3125 35.6531 24.2932 35.5299 24.2868C35.4067 24.2804 35.2767 24.3189 35.1535 24.3189C35.0303 24.3189 34.9003 24.3125 34.7771 24.3189C34.6539 24.3189 34.5307 24.396 34.4075 24.4088C34.2843 24.4217 34.1475 24.3703 34.0311 24.3831C33.9079 24.4024 33.7779 24.4024 33.6547 24.4217C33.5315 24.4474 33.4425 24.5886 33.3193 24.6208C33.1962 24.6529 33.0935 24.7042 32.9703 24.7428C32.854 24.7813 32.7308 24.7941 32.6144 24.8327C32.4981 24.8776 32.3407 24.8198 32.2243 24.8648C32.1148 24.9162 31.9985 24.9675 31.889 25.0253C31.7795 25.0831 31.6768 25.1602 31.5742 25.2244C31.4647 25.2886 31.3552 25.3464 31.2525 25.4106C31.1498 25.4748 31.0677 25.5712 30.9719 25.6482C30.8761 25.7189 30.8419 25.8666 30.7529 25.9436C30.6571 26.0207 30.575 26.1042 30.4928 26.1877C30.4039 26.2711 30.3491 26.3739 30.267 26.4638C30.1849 26.5537 30.0754 26.6115 30.0001 26.7014C29.9248 26.7977 29.7948 26.8491 29.7263 26.9454C29.6579 27.0418 29.6237 27.1574 29.5621 27.2601C29.5005 27.3629 29.4936 27.4849 29.4389 27.594C29.3841 27.6968 29.2883 27.7803 29.2404 27.8894C29.1925 27.9986 29.1514 28.1078 29.1104 28.217C29.0693 28.3261 28.9461 28.416 28.9119 28.5252C28.8777 28.6344 28.9735 28.7821 28.9461 28.8912C28.9187 29.0068 28.9256 29.1224 28.9051 29.238C28.8845 29.3536 28.7134 29.4499 28.6997 29.5655C28.6861 29.6811 28.8161 29.8096 28.8092 29.9252C28.8092 30.0407 28.6381 30.1563 28.6381 30.2719C28.6381 30.3875 28.7613 30.5031 28.7682 30.6187C28.7682 30.7343 28.7613 30.8499 28.7682 30.9655C28.7819 31.0811 28.775 31.1967 28.7956 31.3123C28.8161 31.4279 28.7956 31.5499 28.8161 31.6655C28.8435 31.7811 28.8298 31.9031 28.864 32.0187C28.8914 32.1343 29.0625 32.2113 29.0967 32.3205C29.1309 32.4297 29.2404 32.5196 29.2815 32.6287C29.3225 32.7379 29.1857 32.9113 29.2336 33.0205C29.2815 33.1296 29.3362 33.2388 29.391 33.3416C29.4389 33.4443 29.6716 33.47 29.7263 33.5792C29.7811 33.6819 29.8016 33.8039 29.8632 33.9003C29.9248 34.003 29.8358 34.1892 29.9043 34.2856C29.9727 34.3819 30.0959 34.4525 30.1643 34.5489C30.2328 34.6452 30.3149 34.7351 30.397 34.825C30.4723 34.9213 30.6434 34.9406 30.7255 35.0305C30.8076 35.1204 30.8624 35.2231 30.9514 35.313C31.0403 35.3965 31.0198 35.5828 31.1088 35.6662C31.1978 35.7497 31.4031 35.7176 31.492 35.7947C31.5878 35.8717 31.5673 36.0708 31.67 36.1479C31.7658 36.2185 31.9095 36.2442 32.0053 36.3148C32.108 36.3855 32.2038 36.4626 32.3065 36.5268C32.4091 36.591 32.5802 36.5525 32.6897 36.6103C32.7992 36.668 32.8608 36.8029 32.9703 36.8607C33.0798 36.9121 33.2372 36.88 33.3467 36.9313C33.4631 36.9827 33.5589 37.0598 33.6752 37.0983C33.7916 37.1433 33.9079 37.1882 34.0243 37.2267C34.1406 37.2653 34.2638 37.2845 34.387 37.3167C34.5033 37.3488 34.6402 37.3295 34.7566 37.3552C34.8797 37.3809 34.955 37.5992 35.0782 37.6249C35.2014 37.6506 35.352 37.5286 35.4752 37.5478C35.5983 37.5671 35.7147 37.6056 35.8379 37.6185C35.9611 37.6313 36.0774 37.7341 36.2006 37.7469C36.3238 37.7533 36.4538 37.6377 36.5839 37.6377C36.5976 37.6377 36.6181 37.6377 36.6318 37.6442C36.536 37.7212 36.4538 37.8111 36.358 37.8818C36.2622 37.9588 36.1664 38.0295 36.0637 38.1001C35.9611 38.1707 35.8995 38.2928 35.7968 38.3506C35.6942 38.4148 35.5231 38.3762 35.4136 38.4405C35.3109 38.5047 35.2767 38.6845 35.1672 38.7423C35.0577 38.8001 34.9413 38.8515 34.8318 38.9028C34.7223 38.9606 34.517 38.8386 34.4075 38.89C34.298 38.9414 34.2364 39.0955 34.1269 39.1404C34.0174 39.1918 33.8805 39.1982 33.771 39.2496C33.6547 39.2946 33.5247 39.2881 33.4083 39.3331C33.292 39.378 33.1962 39.4615 33.0798 39.5065C32.9635 39.545 32.8334 39.5514 32.7171 39.59C32.6007 39.6285 32.5255 39.7826 32.4091 39.8212C32.2928 39.8597 32.1354 39.7826 32.019 39.8212C31.9027 39.8533 31.8069 39.9817 31.6905 40.0074C31.5742 40.0395 31.4578 40.1037 31.3415 40.1294C31.2183 40.1551 31.0951 40.1744 30.9719 40.2C30.8487 40.2257 30.7324 40.2707 30.6092 40.2964C30.486 40.3221 30.356 40.3092 30.2328 40.3349C30.1096 40.3606 29.9864 40.367 29.8632 40.3927C29.74 40.412 29.6237 40.4698 29.5005 40.489C29.3773 40.5083 29.2473 40.5019 29.1241 40.5147C29.0009 40.534 28.8777 40.5404 28.7545 40.5532C28.6313 40.5661 28.5081 40.5661 28.3849 40.5789C28.2617 40.5918 28.1454 40.6817 28.0222 40.7009C27.899 40.7202 27.769 40.6624 27.6458 40.6753C27.5226 40.6881 27.3994 40.7138 27.2762 40.7266C27.153 40.7395 27.0367 40.8037 26.9135 40.8165C26.7903 40.8294 26.6603 40.7652 26.5371 40.7716C26.4139 40.7844 26.2839 40.7074 26.1607 40.7138C26.0375 40.7202 25.9211 40.8101 25.7979 40.823C25.6748 40.8294 25.5447 40.778 25.4215 40.7844C25.2983 40.7908 25.1683 40.7459 25.0451 40.7523C24.9219 40.7587 24.8124 40.9578 24.6892 40.9642C24.5661 40.9707 24.436 40.945 24.3128 40.9514C24.1896 40.9578 24.0665 40.9514 23.9433 40.9642C23.8201 40.9707 23.69 40.8743 23.5669 40.8808C23.4368 40.8872 23.3068 40.945 23.1904 40.9771C23.0673 41.0092 22.9235 41.022 22.8209 41.067C22.7045 41.1184 22.6772 41.2982 22.5882 41.3688C22.4924 41.4459 22.3966 41.5037 22.3144 41.5936C22.2323 41.6835 22.1776 41.7798 22.1228 41.8826C22.068 41.9853 21.8559 42.0367 21.8217 42.1523C21.7875 42.2679 21.9038 42.4156 21.8833 42.5312C21.8696 42.6467 21.7669 42.7688 21.7738 42.8843C21.7806 42.9999 21.8217 43.122 21.8559 43.2376C21.8901 43.3531 21.897 43.488 21.9517 43.5908C22.0065 43.6935 22.157 43.7513 22.2391 43.8412C22.3213 43.9311 22.3418 44.0917 22.4513 44.1623C22.554 44.2265 22.7182 44.2008 22.8414 44.2458C22.9509 44.2843 23.0741 44.2715 23.2041 44.2843C23.3205 44.2971 23.4231 44.3806 23.5532 44.3742C23.5942 44.3935 23.5737 44.432 23.5737 44.432C23.6969 44.4256 23.8201 44.432 23.9433 44.432C24.0665 44.4256 24.1828 44.3614 24.306 44.3485C24.4292 44.3421 24.5387 44.2137 24.6619 44.2072C24.7851 44.2008 24.9151 44.3421 25.0383 44.3357C25.1615 44.3293 25.2778 44.265 25.401 44.2522C25.5242 44.2458 25.6542 44.31 25.7774 44.3036C25.9006 44.2971 26.0101 44.1238 26.1333 44.1109C26.2565 44.0981 26.3728 44.0724 26.496 44.066C26.6192 44.0531 26.7561 44.2137 26.8793 44.2072C27.0025 44.1944 27.1188 44.1045 27.2352 44.0917C27.3583 44.0788 27.4815 44.1045 27.6047 44.0917C27.7279 44.0788 27.8579 44.1109 27.9743 44.0981C28.0975 44.0852 28.2138 44.0403 28.337 44.0274C28.4602 44.0146 28.5766 43.9632 28.6997 43.9504C28.8229 43.9375 28.953 43.9568 29.0693 43.944C29.1925 43.9247 29.302 43.854 29.4252 43.8348C29.5484 43.8155 29.6647 43.7962 29.7879 43.777C29.9111 43.7577 30.0343 43.7513 30.1575 43.732C30.2807 43.7128 30.3833 43.61 30.5065 43.5908C30.6297 43.5715 30.7597 43.6229 30.8829 43.5972C31.0061 43.5779 31.1225 43.5458 31.2457 43.5201C31.3688 43.4944 31.5057 43.5522 31.6289 43.5265C31.7521 43.5008 31.8753 43.488 31.9916 43.4623C32.108 43.4366 32.2106 43.3275 32.3338 43.3018C32.4502 43.2761 32.5734 43.2375 32.6897 43.2054C32.8061 43.1733 32.895 43.0321 33.0114 42.9999C33.1277 42.9678 33.2988 43.1027 33.422 43.0706C33.5383 43.0385 33.6547 42.9871 33.771 42.955C33.8874 42.9165 33.9764 42.8073 34.0927 42.7688C34.209 42.7302 34.3185 42.6724 34.4349 42.6339C34.5512 42.5954 34.6813 42.5954 34.7976 42.5504C34.914 42.5055 34.9824 42.3578 35.0919 42.3128C35.2082 42.2679 35.3999 42.4027 35.5162 42.3578C35.6257 42.3128 35.6599 42.0945 35.7694 42.0431C35.8789 41.9917 36.0774 42.1137 36.1869 42.0624C36.2964 42.011 36.3854 41.9147 36.4949 41.8633C36.6044 41.8119 36.6591 41.6642 36.7686 41.6128C36.8781 41.555 37.0219 41.5679 37.1314 41.5101C37.234 41.4523 37.3504 41.4009 37.453 41.3367C37.5557 41.2725 37.6241 41.1569 37.7268 41.0927C37.8294 41.0285 37.9937 41.0477 38.0895 40.9771C38.1922 40.9129 38.1785 40.7009 38.2811 40.6303C38.377 40.5597 38.5001 40.5275 38.6028 40.4569C38.6986 40.3863 38.8697 40.3991 38.9655 40.3285C39.0613 40.2578 39.0477 40.0652 39.1435 39.9881C39.2324 39.9111 39.4514 39.9624 39.5404 39.8854C39.6294 39.8083 39.6773 39.6863 39.7663 39.6028C39.8552 39.5193 39.8484 39.3524 39.9305 39.2689C40.0126 39.1854 40.2453 39.2304 40.3274 39.1404C40.4096 39.057 40.4506 38.9285 40.5328 38.845C40.6149 38.7551 40.5807 38.5817 40.656 38.4918C40.7312 38.4019 40.8134 38.312 40.8886 38.2221C40.9639 38.1322 41.0324 38.0359 41.1008 37.9396C41.1692 37.8432 41.4156 37.8625 41.4841 37.7662C41.5525 37.6699 41.6278 37.5735 41.6962 37.4772C41.7647 37.3809 41.6962 37.2075 41.7578 37.1047C41.8194 37.002 42.011 36.9699 42.0726 36.8735C42.1342 36.7708 42.1753 36.6552 42.23 36.5525C42.2506 36.5203 42.2506 36.4754 42.2506 36.4369C42.2916 36.424 42.3395 36.4112 42.3738 36.3919C42.4833 36.3341 42.5038 36.135 42.6133 36.0772C42.7228 36.0194 42.8734 36.0323 42.9829 35.9681C43.0855 35.9039 43.2156 35.8717 43.3182 35.8075C43.4209 35.7433 43.4414 35.5699 43.5441 35.4993C43.6467 35.4286 43.7973 35.4222 43.8931 35.3516C43.9889 35.2809 44.0026 35.1076 44.0984 35.0369C44.1942 34.9599 44.4269 35.0369 44.5227 34.9599C44.6185 34.8828 44.5775 34.6644 44.6665 34.5874C44.7554 34.5103 44.8512 34.4333 44.9402 34.3498C45.0292 34.2663 45.2345 34.292 45.3166 34.2085C45.4056 34.125 45.4603 34.0094 45.5425 33.9259C45.6246 33.8425 45.6793 33.7269 45.7615 33.637C45.8436 33.5471 45.9668 33.4957 46.0489 33.4058C46.131 33.3159 46.1789 33.2003 46.2542 33.1104C46.3295 33.0205 46.4116 32.9241 46.4869 32.8342C46.5622 32.7379 46.6922 32.6865 46.7675 32.5902C46.8428 32.4939 46.8428 32.3526 46.9112 32.2563C46.9797 32.1599 47.055 32.0636 47.1234 31.9673C47.1918 31.871 47.2808 31.7811 47.3492 31.6847C47.4177 31.5884 47.5067 31.4985 47.5682 31.4022C47.6298 31.2994 47.5477 31.1196 47.6093 31.0169C47.6709 30.9141 47.8215 30.8627 47.8831 30.76C47.9447 30.6572 47.972 30.5416 48.0336 30.4389C48.0952 30.3362 48.1773 30.2462 48.2321 30.1371C48.2868 30.0343 48.2868 29.8995 48.3416 29.7967C48.3963 29.694 48.5401 29.6233 48.5948 29.5206C48.6496 29.4178 48.7385 29.3215 48.7864 29.2188C48.8344 29.116 48.8754 29.0004 48.9233 28.8912C48.9712 28.7821 48.9918 28.6665 49.0397 28.5573C49.0876 28.4481 48.9918 28.2876 49.0397 28.1784C49.0876 28.0693 49.1355 27.9665 49.1834 27.8573C49.2313 27.7482 49.334 27.6647 49.3819 27.5555C49.4229 27.4463 49.4366 27.3243 49.4777 27.2152C49.5187 27.106 49.6625 27.0289 49.6967 26.9133C49.7377 26.8042 49.8267 26.7078 49.8609 26.5922C49.902 26.4831 49.7857 26.3225 49.8267 26.2134C49.8609 26.1042 49.9431 26.0014 49.9773 25.8923C50.0115 25.7831 50.0115 25.6611 50.0457 25.5455C50.0799 25.4299 50.1484 25.3271 50.1826 25.218C50.2168 25.1024 50.2168 24.9804 50.2442 24.8712C50.251 24.8391 50.2647 24.8134 50.2784 24.7877C50.3468 24.7877 50.4084 24.7941 50.47 24.7877C50.5932 24.7684 50.7301 24.8391 50.8533 24.8134C50.9765 24.7877 51.0586 24.6272 51.1818 24.6015C51.2981 24.5758 51.4487 24.6529 51.5651 24.6208C51.6814 24.5886 51.8046 24.5694 51.9278 24.5373C52.0441 24.5052 52.1742 24.4859 52.2905 24.4538C52.4069 24.4153 52.4753 24.2547 52.5916 24.2098C52.708 24.1712 52.8312 24.1584 52.9475 24.1134C53.0639 24.0685 53.2144 24.1134 53.3308 24.0685C53.4403 24.0235 53.5498 23.9593 53.6593 23.9143C53.7688 23.863 53.8851 23.818 53.9946 23.7666C54.1041 23.7153 54.1383 23.5226 54.241 23.4712C54.3505 23.4135 54.5284 23.4712 54.6311 23.407C54.7406 23.3492 54.8433 23.2786 54.9459 23.2144C55.0486 23.1502 55.1239 23.041 55.2265 22.9768C55.3292 22.9125 55.4455 22.8612 55.5482 22.7905C55.6508 22.7199 55.7261 22.6236 55.8219 22.5529C55.9177 22.4823 56.0136 22.3988 56.1094 22.3282C56.2052 22.2511 56.3626 22.2447 56.4584 22.1676C56.5542 22.0906 56.6706 22.0328 56.7595 21.9493C56.8485 21.8722 56.8827 21.7309 56.9717 21.6475C57.0607 21.564 57.1565 21.4869 57.2386 21.4034C57.3207 21.3199 57.3413 21.1722 57.4234 21.0888C57.5055 20.9989 57.6972 20.9989 57.7724 20.9089C57.8546 20.819 57.834 20.6521 57.9093 20.5622C57.9846 20.4723 58.0188 20.3502 58.0872 20.2539C58.1625 20.1576 58.3336 20.1319 58.4021 20.0356C58.4705 19.9393 58.5595 19.8558 58.6279 19.753C58.6964 19.6567 58.7716 19.5604 58.8332 19.4576C58.8948 19.3549 58.8469 19.1943 58.9085 19.0916C58.9701 18.9888 59.0796 18.9182 59.1412 18.809C59.196 18.7063 59.2096 18.5778 59.2644 18.4751C59.3191 18.3723 59.5176 18.3274 59.5724 18.2246C59.6271 18.1219 59.5724 17.9678 59.6203 17.8586C59.6682 17.7494 59.6408 17.6146 59.6819 17.5054C59.7229 17.3962 59.8735 17.3256 59.9146 17.21C59.9556 17.1008 59.8666 16.9531 59.9009 16.8375C59.9351 16.7284 60.0925 16.6513 60.1267 16.5357C60.1609 16.4201 60.2157 16.3174 60.2431 16.2018C60.2704 16.0862 60.1883 15.9513 60.2157 15.8357C60.2431 15.7201 60.3183 15.6174 60.3389 15.5018C60.3594 15.3862 60.3799 15.2706 60.4005 15.155C60.421 15.0394 60.4347 14.9238 60.4484 14.8082C60.4621 14.6926 60.6126 14.5899 60.6263 14.4743C60.64 14.3587 60.5031 14.2303 60.5168 14.1147C60.5237 13.9991 60.5784 13.8835 60.5853 13.7679C60.5853 13.6523 60.6811 13.5367 60.6811 13.4211L60.6605 13.3826ZM36.4812 34.3048C36.358 34.2984 36.2211 34.3048 36.0979 34.2984C35.9748 34.2856 35.8447 34.2599 35.7215 34.2406C35.5983 34.2149 35.482 34.1379 35.3588 34.1122C35.2356 34.0801 35.1124 34.048 34.9961 34.003C34.8797 33.9645 34.7702 33.8938 34.6539 33.8489C34.5376 33.7975 34.4828 33.6498 34.3733 33.592C34.2638 33.5342 34.1817 33.4571 34.079 33.3865C33.9764 33.3159 33.86 33.2838 33.7642 33.2067C33.6684 33.1296 33.552 33.0783 33.4699 32.9948C33.3878 32.9113 33.2509 32.8599 33.1756 32.7636C33.1003 32.6737 33.1551 32.5003 33.0867 32.3976C33.0182 32.3012 32.8334 32.2691 32.7718 32.1599C32.7171 32.0572 32.7171 31.9288 32.6692 31.8132C32.6213 31.704 32.5186 31.6141 32.4776 31.4985C32.4433 31.3893 32.3749 31.2802 32.3407 31.1581C32.3133 31.0426 32.2928 30.9205 32.2722 30.8049C32.2517 30.6829 32.2654 30.5545 32.2517 30.4453C32.2449 30.3233 32.327 30.2013 32.3338 30.0857C32.3338 29.9637 32.3133 29.8417 32.3338 29.7261C32.3544 29.6041 32.4365 29.5013 32.4707 29.3921C32.5118 29.2766 32.5391 29.1674 32.6007 29.0646C32.6623 28.9555 32.7034 28.8463 32.7787 28.7564C32.854 28.6601 32.9908 28.628 33.0867 28.5509C33.1825 28.4738 33.2167 28.3261 33.3262 28.2619C33.4288 28.1977 33.5657 28.1848 33.6821 28.1399C33.7984 28.0949 33.8942 27.9922 34.0174 27.9601C34.1338 27.928 34.257 27.8638 34.3801 27.8445C34.5033 27.8252 34.6402 27.9151 34.7702 27.9087C34.8934 27.9023 35.0166 27.9408 35.1467 27.9408C35.2698 27.9408 35.393 27.9087 35.5231 27.9151C35.6463 27.928 35.7968 27.7995 35.92 27.8188C36.0432 27.8381 36.1459 27.9922 36.269 28.0179C36.3922 28.0436 36.5017 28.1078 36.6181 28.1463C36.7413 28.1784 36.8645 28.1913 36.9876 28.2298C37.104 28.2748 37.193 28.3711 37.3093 28.4225C37.4257 28.4738 37.5831 28.4353 37.6926 28.4931C37.8021 28.5509 37.8842 28.6536 37.9937 28.7179C38.0964 28.7821 38.2538 28.7885 38.3496 28.8591C38.4522 28.9362 38.5891 28.9812 38.6781 29.0646C38.7671 29.1481 38.7739 29.3087 38.856 29.3921C38.9381 29.4821 39.0271 29.5655 39.1024 29.6554C39.1777 29.7518 39.2598 29.8417 39.3282 29.938C39.3898 30.0408 39.3282 30.2013 39.3762 30.304C39.4309 30.4068 39.472 30.5095 39.513 30.6187C39.5541 30.7279 39.6088 30.8242 39.6431 30.9398C39.6773 31.0554 39.7731 31.1453 39.7936 31.2609C39.8142 31.3765 39.8415 31.4857 39.8552 31.6077C39.8689 31.7233 39.9853 31.8389 39.9853 31.9544C39.9853 32.07 39.9168 32.1921 39.91 32.3076C39.9031 32.4232 39.8689 32.5388 39.8484 32.6544C39.8347 32.77 39.6841 32.8599 39.6568 32.9755C39.6294 33.0911 39.8073 33.2452 39.7731 33.3608C39.7389 33.47 39.6431 33.5663 39.602 33.6755C39.5473 33.7012 39.4925 33.7204 39.4377 33.7397C39.3214 33.7782 39.2393 33.9259 39.1229 33.9645C38.9997 33.9966 38.8902 34.0608 38.7671 34.0865C38.6439 34.1186 38.5275 34.1764 38.4043 34.2021C38.2811 34.2278 38.1237 34.0993 38.0005 34.1122C37.8773 34.1314 37.761 34.2278 37.6378 34.2406C37.5146 34.2535 37.3777 34.1379 37.2546 34.1443C37.1314 34.1443 37.0082 34.1957 36.885 34.1957C36.7618 34.1957 36.6249 34.3241 36.5017 34.3177L36.4812 34.3048ZM45.9599 21.5126C45.8368 21.4869 45.7546 21.3199 45.6383 21.2878C45.5219 21.2557 45.3508 21.3649 45.2345 21.3264C45.1181 21.2878 45.0702 21.0888 44.9607 21.0374C44.8512 20.986 44.7691 20.8961 44.6596 20.8447C44.5501 20.7869 44.4338 20.7612 44.3311 20.697C44.2284 20.6328 44.03 20.6842 43.9342 20.6135C43.8383 20.5429 43.852 20.3502 43.7631 20.2732C43.6741 20.1897 43.4551 20.2218 43.3798 20.1319C43.3045 20.042 43.3798 19.8429 43.3182 19.7466C43.2498 19.6503 43.0992 19.6053 43.0445 19.5026C42.9897 19.3998 42.8665 19.3228 42.8186 19.2136C42.7707 19.1108 42.8391 18.9567 42.8049 18.8475C42.7707 18.7384 42.6817 18.6356 42.6544 18.5265C42.6338 18.4109 42.7639 18.2824 42.757 18.1733C42.7502 18.0577 42.5517 17.9485 42.5585 17.8329C42.5654 17.7173 42.7091 17.6146 42.7365 17.5054C42.757 17.3898 42.7023 17.2614 42.7365 17.1522C42.7776 17.043 42.9076 16.9724 42.9623 16.8696C43.0171 16.7669 43.065 16.6641 43.1334 16.5742C43.2019 16.4779 43.2087 16.3302 43.2908 16.2531C43.373 16.1697 43.4414 16.0476 43.5441 15.9834C43.6399 15.9192 43.7973 15.9064 43.9068 15.8614C44.0163 15.8165 44.1668 15.8743 44.2832 15.8486C44.3995 15.8229 44.5022 15.6495 44.6254 15.6495C44.7417 15.6495 44.8718 15.7394 44.995 15.7587C45.1113 15.7779 45.255 15.7458 45.3714 15.7843C45.4809 15.8229 45.5972 15.8807 45.7136 15.9321C45.8162 15.9834 45.8983 16.0862 46.001 16.1568C46.0968 16.221 46.2405 16.2403 46.3363 16.3238C46.4322 16.4008 46.3637 16.6256 46.4459 16.7091C46.528 16.7926 46.7744 16.754 46.8496 16.8439C46.9249 16.9339 46.8975 17.0944 46.9591 17.1971C47.0207 17.2935 47.0002 17.4283 47.055 17.5311C47.1097 17.6338 47.2055 17.7109 47.2466 17.8201C47.2876 17.9292 47.3219 18.032 47.3561 18.1476C47.3903 18.2567 47.5614 18.3402 47.5888 18.4494C47.6093 18.5586 47.4451 18.7063 47.4587 18.8154C47.4724 18.931 47.5614 19.0338 47.5751 19.1494C47.5819 19.265 47.5067 19.3806 47.5067 19.4961C47.5067 19.6117 47.7051 19.7273 47.7051 19.8429C47.7051 19.9585 47.6777 20.0741 47.6709 20.1897C47.6641 20.3053 47.6572 20.4209 47.6504 20.5365C47.6367 20.6521 47.5066 20.7548 47.493 20.864C47.4793 20.9796 47.5066 21.1016 47.493 21.2108C47.4724 21.3264 47.3219 21.4163 47.3013 21.5254C47.3013 21.5383 47.3013 21.5575 47.2945 21.5704C47.2261 21.5897 47.1576 21.6089 47.0892 21.6025C46.966 21.5961 46.8291 21.6603 46.7128 21.641C46.5896 21.6282 46.4938 21.4355 46.3706 21.4163C46.2474 21.397 46.09 21.5383 45.9736 21.5126H45.9599Z"
          fill="#FFE357"/>
    <path d="M43.3116 165.132C43.2192 164.97 43.404 165.071 43.599 164.92C43.6812 164.849 43.7633 164.748 43.8762 164.657C43.9686 164.586 44.0815 164.516 44.1842 164.425C44.2765 164.344 44.3587 164.253 44.4613 164.162C44.5537 164.082 44.6564 164.001 44.759 163.92C44.8514 163.839 44.9438 163.748 45.0464 163.657C45.1388 163.577 45.2004 163.456 45.3031 163.365C45.3954 163.274 45.4878 163.193 45.5802 163.102C45.6726 163.011 45.7547 162.92 45.8471 162.819C45.9395 162.729 46.0319 162.648 46.1243 162.547C46.2064 162.456 46.3193 162.375 46.4014 162.284C46.4835 162.193 46.5451 162.072 46.6273 161.981C46.7094 161.89 46.8018 161.8 46.8942 161.699C46.9763 161.598 47.0481 161.497 47.1303 161.396C47.2124 161.295 47.3048 161.214 47.3869 161.113C47.469 161.012 47.5203 160.891 47.5922 160.79C47.664 160.689 47.7462 160.588 47.818 160.487C47.8899 160.386 47.9823 160.295 48.0541 160.184C48.126 160.083 48.1773 159.962 48.2492 159.851C48.321 159.74 48.3723 159.629 48.4442 159.518C48.5058 159.406 48.5879 159.306 48.6495 159.194C48.7111 159.083 48.7829 158.972 48.8343 158.861C48.8959 158.75 48.9472 158.629 48.9985 158.508C49.1833 158.558 49.173 158.599 49.327 158.71C49.481 158.821 49.4502 158.861 49.6041 158.972C49.7581 159.083 49.7889 159.043 49.9429 159.154C50.0969 159.265 50.0763 159.295 50.2303 159.406C50.3843 159.518 50.3946 159.507 50.5485 159.619C50.7025 159.73 50.7231 159.709 50.877 159.82C51.031 159.932 51.0105 159.962 51.1645 160.073C51.3184 160.184 51.339 160.164 51.4929 160.275C51.6469 160.386 51.6572 160.366 51.8214 160.477C51.9754 160.588 51.9754 160.588 52.1294 160.699C52.2833 160.81 52.2628 160.84 52.4271 160.951C52.581 161.062 52.6529 161.002 52.7658 161.153C52.8787 161.305 52.6632 161.274 52.5502 161.487C52.4989 161.577 52.4373 161.688 52.3655 161.82C52.3039 161.921 52.2526 162.032 52.1807 162.153C52.1191 162.254 52.0575 162.375 51.9857 162.486C51.9241 162.587 51.8727 162.708 51.8009 162.819C51.7393 162.92 51.6572 163.031 51.5853 163.143C51.5135 163.243 51.4313 163.344 51.3595 163.456C51.2876 163.556 51.2466 163.688 51.1747 163.789C51.1029 163.89 51.0105 163.991 50.9386 164.092C50.8668 164.193 50.8154 164.314 50.7333 164.415C50.6615 164.516 50.5896 164.627 50.5177 164.728C50.4459 164.829 50.3432 164.92 50.2714 165.021C50.1893 165.122 50.0969 165.212 50.025 165.313C49.9429 165.414 49.8916 165.536 49.8095 165.637C49.7273 165.738 49.6452 165.839 49.5631 165.929C49.481 166.03 49.3886 166.121 49.3065 166.212C49.2141 166.303 49.1217 166.394 49.0293 166.485C48.9369 166.576 48.8343 166.656 48.7419 166.737C48.6495 166.828 48.5468 166.909 48.4442 166.99C48.3415 167.08 48.2697 167.192 48.1773 167.272C48.0746 167.353 47.9515 167.404 47.8488 167.474C47.7359 167.545 47.6435 167.646 47.5409 167.707C47.4279 167.777 47.2945 167.807 47.1816 167.858C47.0584 167.908 46.9455 167.959 46.8326 167.999C46.6683 167.919 46.6786 167.898 46.5246 167.777C46.3809 167.656 46.3912 167.646 46.2372 167.525C46.0935 167.404 46.1037 167.394 45.9498 167.272C45.8061 167.151 45.7855 167.171 45.6418 167.05C45.4981 166.929 45.5186 166.899 45.3749 166.778C45.2312 166.656 45.2312 166.656 45.0875 166.535C44.9438 166.414 44.9232 166.434 44.7795 166.313C44.6358 166.192 44.6153 166.212 44.4716 166.091C44.3279 165.97 44.3484 165.939 44.2047 165.818C44.061 165.697 44.0712 165.687 43.9173 165.566C43.7736 165.445 43.7736 165.435 43.6196 165.334C43.4656 165.223 43.4348 165.253 43.3322 165.091L43.3116 165.132Z"
          fill="#FFC2C2"/>
    <path d="M32.6891 103.507C32.8688 103.337 32.8389 103.635 33.0785 103.847C33.1784 103.943 33.2883 104.081 33.4281 104.197C33.5379 104.293 33.6977 104.357 33.8375 104.463C33.9574 104.558 34.0772 104.675 34.2071 104.781C34.3269 104.877 34.4268 105.026 34.5666 105.132C34.6964 105.227 34.8562 105.28 34.996 105.376C35.1258 105.472 35.2257 105.62 35.3655 105.716C35.4953 105.811 35.6352 105.896 35.775 105.992C35.9048 106.087 36.0746 106.13 36.2044 106.225C36.3342 106.31 36.4641 106.427 36.6039 106.512C36.7437 106.597 36.8835 106.671 37.0233 106.756C37.1631 106.841 37.283 106.969 37.4228 107.053C37.5626 107.138 37.7024 107.223 37.8422 107.308C37.9821 107.393 38.1418 107.425 38.2916 107.51C38.4315 107.584 38.5813 107.659 38.7211 107.744C38.8609 107.818 39.0107 107.892 39.1605 107.966C39.3103 108.041 39.4401 108.136 39.5899 108.211C39.7397 108.274 39.8995 108.306 40.0493 108.37C40.1991 108.434 40.3289 108.55 40.4788 108.614C40.6286 108.678 40.7883 108.71 40.9381 108.763C41.0879 108.816 41.2477 108.848 41.4075 108.901C41.5573 108.954 41.7171 108.986 41.8769 109.028C42.0367 109.071 42.1765 109.134 42.3363 109.177C42.3163 109.432 42.2364 109.4 42.1366 109.633C42.0367 109.867 42.0367 109.867 41.9368 110.101C41.837 110.334 41.8669 110.345 41.777 110.578C41.6772 110.812 41.6572 110.801 41.5673 111.035C41.4674 111.268 41.4974 111.279 41.3975 111.513C41.2977 111.746 41.2577 111.725 41.1579 111.958C41.058 112.192 41.1079 112.213 41.008 112.447C40.9082 112.68 40.9082 112.68 40.8083 112.914C40.7084 113.148 40.6885 113.137 40.5886 113.371C40.4887 113.604 40.5187 113.615 40.4188 113.848C40.319 114.082 40.319 114.082 40.2191 114.315C40.1192 114.549 40.1692 114.591 39.9994 114.783C39.8396 114.974 39.8296 114.687 39.53 114.591C39.4002 114.549 39.2404 114.507 39.0706 114.443C38.9308 114.39 38.771 114.347 38.6112 114.284C38.4714 114.23 38.3116 114.167 38.1518 114.103C38.002 114.05 37.8522 114.008 37.6924 113.944C37.5426 113.891 37.3729 113.88 37.2231 113.816C37.0733 113.753 36.9235 113.689 36.7737 113.625C36.6239 113.562 36.494 113.445 36.3442 113.381C36.1944 113.317 36.0346 113.286 35.8848 113.222C35.735 113.158 35.5752 113.116 35.4254 113.052C35.2756 112.988 35.1358 112.893 34.986 112.829C34.8362 112.755 34.7064 112.659 34.5566 112.585C34.4068 112.511 34.267 112.426 34.1272 112.351C33.9774 112.277 33.8276 112.213 33.6877 112.128C33.5479 112.043 33.3981 111.958 33.2583 111.874C33.1185 111.789 32.9887 111.682 32.8489 111.597C32.709 111.513 32.5592 111.449 32.4194 111.353C32.2796 111.258 32.1598 111.141 32.0299 111.045C31.8901 110.95 31.7303 110.897 31.6005 110.801C31.4707 110.695 31.3508 110.568 31.231 110.461C31.1012 110.345 30.9713 110.249 30.8515 110.132C30.7317 110.016 30.6617 109.846 30.5519 109.718C30.442 109.591 30.3122 109.485 30.2123 109.347C30.1125 109.209 30.0426 109.06 29.9727 108.911C30.0326 108.667 30.0725 108.688 30.1824 108.465C30.3022 108.243 30.2723 108.232 30.3821 108.009C30.492 107.786 30.5119 107.797 30.6318 107.574C30.7416 107.351 30.7816 107.372 30.8914 107.149C31.0113 106.926 31.0013 106.926 31.1111 106.703C31.221 106.48 31.191 106.459 31.3009 106.247C31.4207 106.024 31.4607 106.045 31.5705 105.832C31.6804 105.61 31.6704 105.599 31.7903 105.376C31.9101 105.153 31.9201 105.164 32.0299 104.941C32.1498 104.718 32.0998 104.696 32.2197 104.474C32.3395 104.251 32.3695 104.272 32.4494 104.028C32.5393 103.783 32.5093 103.741 32.6891 103.571V103.507Z"
          fill="#4C94FF"/>
    <path d="M15.152 135.77C15.3041 135.629 15.2788 135.877 15.4816 136.054C15.5661 136.133 15.659 136.248 15.7773 136.346C15.8703 136.425 16.0055 136.478 16.1238 136.567C16.2252 136.646 16.3266 136.744 16.4365 136.832C16.5379 136.912 16.6224 137.036 16.7407 137.124C16.8505 137.204 16.9857 137.248 17.104 137.328C17.2139 137.407 17.2984 137.531 17.4167 137.611C17.5266 137.69 17.6449 137.761 17.7632 137.841C17.873 137.92 18.0167 137.956 18.1265 138.035C18.2364 138.106 18.3462 138.204 18.4646 138.274C18.5829 138.345 18.7012 138.407 18.8195 138.478C18.9378 138.549 19.0392 138.655 19.1575 138.726C19.2758 138.796 19.3941 138.867 19.5124 138.938C19.6307 139.009 19.7659 139.035 19.8927 139.106C20.011 139.168 20.1377 139.23 20.256 139.301C20.3743 139.363 20.5011 139.424 20.6278 139.486C20.7546 139.548 20.8645 139.628 20.9912 139.69C21.118 139.743 21.2532 139.77 21.3799 139.823C21.5067 139.876 21.6165 139.973 21.7433 140.026C21.87 140.079 22.0052 140.106 22.132 140.15C22.2588 140.194 22.394 140.221 22.5292 140.265C22.6559 140.309 22.7911 140.336 22.9263 140.371C23.0615 140.407 23.1798 140.46 23.3151 140.495C23.2982 140.707 23.2305 140.681 23.146 140.875C23.0615 141.07 23.0615 141.07 22.977 141.265C22.8925 141.459 22.9179 141.468 22.8418 141.663C22.7573 141.858 22.7404 141.849 22.6644 142.043C22.5799 142.238 22.6052 142.247 22.5207 142.441C22.4362 142.636 22.4024 142.618 22.3179 142.813C22.2334 143.008 22.2757 143.025 22.1912 143.22C22.1067 143.415 22.1067 143.415 22.0222 143.609C21.9376 143.804 21.9207 143.795 21.8362 143.99C21.7517 144.184 21.7771 144.193 21.6926 144.388C21.6081 144.583 21.6081 144.583 21.5236 144.777C21.4391 144.972 21.4813 145.007 21.3377 145.166C21.2025 145.326 21.194 145.087 20.9405 145.007C20.8306 144.972 20.6954 144.936 20.5518 144.883C20.4335 144.839 20.2983 144.804 20.1631 144.751C20.0448 144.706 19.9096 144.653 19.7744 144.6C19.6476 144.556 19.5208 144.521 19.3856 144.468C19.2589 144.423 19.1152 144.414 18.9885 144.361C18.8617 144.308 18.735 144.255 18.6082 144.202C18.4815 144.149 18.3716 144.052 18.2448 143.999C18.1181 143.946 17.9829 143.919 17.8561 143.866C17.7294 143.813 17.5942 143.777 17.4674 143.724C17.3407 143.671 17.2223 143.592 17.0956 143.539C16.9688 143.477 16.859 143.397 16.7322 143.335C16.6055 143.273 16.4872 143.202 16.3689 143.14C16.2421 143.078 16.1154 143.025 15.997 142.955C15.8787 142.884 15.752 142.813 15.6337 142.742C15.5154 142.671 15.4055 142.583 15.2872 142.512C15.1689 142.441 15.0422 142.388 14.9239 142.309C14.8055 142.229 14.7041 142.132 14.5943 142.052C14.476 141.973 14.3408 141.928 14.2309 141.849C14.1211 141.76 14.0197 141.654 13.9183 141.566C13.8084 141.468 13.6986 141.389 13.5971 141.291C13.4957 141.194 13.4366 141.052 13.3436 140.946C13.2507 140.84 13.1408 140.752 13.0563 140.637C12.9718 140.522 12.9127 140.398 12.8535 140.274C12.9042 140.07 12.938 140.088 13.031 139.902C13.1324 139.716 13.107 139.708 13.2 139.522C13.2929 139.336 13.3098 139.345 13.4112 139.159C13.5042 138.973 13.538 138.991 13.6309 138.805C13.7324 138.619 13.7239 138.619 13.8169 138.434C13.9098 138.248 13.8845 138.23 13.9774 138.053C14.0788 137.867 14.1126 137.885 14.2056 137.708C14.2985 137.522 14.2901 137.513 14.3915 137.328C14.4929 137.142 14.5013 137.151 14.5943 136.965C14.6957 136.779 14.6534 136.761 14.7548 136.576C14.8562 136.39 14.8816 136.407 14.9492 136.204C15.0253 136.001 14.9999 135.965 15.152 135.824V135.77Z"
          fill="#FFDB2A"/>
    <path d="M214.631 45.4591C214.551 45.4204 214.513 45.3072 214.436 45.2626C214.359 45.2179 214.242 45.2418 214.167 45.1912C214.093 45.1406 214.058 45.036 213.984 44.9854C213.91 44.9348 213.875 44.8302 213.809 44.7763C213.738 44.7198 213.666 44.6777 213.594 44.6212C213.523 44.5647 213.429 44.5411 213.363 44.4872C213.297 44.4333 213.217 44.3802 213.154 44.3203C213.091 44.2605 213.075 44.1432 213.01 44.0749C212.947 44.0151 212.844 43.9949 212.784 43.9291C212.724 43.8633 212.691 43.7672 212.631 43.7014C212.571 43.6357 212.438 43.6373 212.383 43.5741C212.326 43.5025 212.327 43.3785 212.275 43.3094C212.217 43.2378 212.199 43.1409 212.158 43.0625C212.114 42.9756 212.013 42.9266 211.988 42.8415C211.961 42.748 212.013 42.6414 212.008 42.5437C212.003 42.4461 211.93 42.3522 211.949 42.259C211.963 42.1632 212.079 42.0876 212.112 41.9936C212.145 41.8996 212.071 41.7539 212.116 41.6736C212.16 41.5848 212.299 41.5569 212.358 41.4758C212.423 41.3973 212.451 41.2863 212.526 41.2274C212.598 41.1599 212.666 41.0755 212.749 41.0277C212.831 40.9799 212.92 40.9058 213.008 40.8749C213.096 40.8441 213.205 40.9043 213.297 40.8905C213.387 40.8826 213.489 40.8366 213.575 40.849C213.661 40.8615 213.744 40.9087 213.829 40.9501C213.904 40.9862 213.93 41.1086 213.999 41.171C214.065 41.225 214.176 41.2274 214.23 41.305C214.288 41.3767 214.345 41.4484 214.405 41.5141C214.466 41.5799 214.506 41.6727 214.566 41.7384C214.627 41.8042 214.754 41.8 214.817 41.8598C214.881 41.9197 214.893 42.0428 214.962 42.1052C215.03 42.1677 215.059 42.2697 215.131 42.3262C215.202 42.3827 215.35 42.337 215.416 42.3909C215.487 42.4474 215.542 42.525 215.608 42.579C215.682 42.6295 215.771 42.6505 215.848 42.6951C215.923 42.7457 215.937 42.8918 216.014 42.9365C216.091 42.9811 216.194 42.9869 216.271 43.0316C216.351 43.0703 216.406 43.1623 216.486 43.2011C216.566 43.2398 216.678 43.2134 216.761 43.2462C216.841 43.2849 216.947 43.2559 217.03 43.2888C217.113 43.3216 217.188 43.3721 217.27 43.4049C217.356 43.4318 217.413 43.5324 217.499 43.5593C217.585 43.5862 217.667 43.6334 217.751 43.6518C217.839 43.6727 217.941 43.6412 218.029 43.6621C218.121 43.6772 218.214 43.6489 218.306 43.664C218.397 43.679 218.48 43.7119 218.569 43.7184C218.659 43.7249 218.748 43.7315 218.84 43.7321C218.929 43.7386 219.016 43.8317 219.102 43.8298C219.195 43.8304 219.29 43.8251 219.379 43.8172C219.469 43.8093 219.563 43.6427 219.656 43.6289C219.746 43.621 219.835 43.6276 219.927 43.6138C220.02 43.6 220.107 43.5836 220.197 43.5613C220.284 43.5449 220.388 43.6024 220.478 43.5801C220.568 43.5578 220.661 43.544 220.751 43.5217C220.844 43.4935 220.902 43.3606 220.998 43.3264C221.086 43.2956 221.19 43.3388 221.281 43.302C221.368 43.2712 221.439 43.1808 221.524 43.1415C221.609 43.1022 221.722 43.142 221.81 43.0968C221.895 43.0574 221.973 42.9926 222.056 42.9448C222.136 42.9029 222.221 42.8636 222.304 42.8157C222.381 42.7653 222.418 42.6366 222.498 42.5802C222.575 42.5298 222.642 42.4598 222.717 42.4009C222.792 42.342 222.921 42.3751 222.999 42.3103C223.074 42.2514 223.149 42.1925 223.222 42.125C223.28 42.0728 223.31 41.9847 223.355 41.9188C223.308 41.8812 223.255 41.8409 223.196 41.8125C223.116 41.7738 223.041 41.7376 222.964 41.693C222.887 41.6483 222.804 41.6155 222.732 41.5734C222.655 41.5288 222.572 41.496 222.503 41.448C222.434 41.4 222.391 41.2987 222.322 41.2507C222.253 41.2027 222.196 41.131 222.124 41.0745C222.058 41.0206 222.023 40.916 221.957 40.862C221.891 40.8081 221.831 40.7424 221.765 40.6885C221.702 40.6286 221.532 40.6928 221.469 40.633C221.405 40.5732 221.382 40.4593 221.324 40.402C221.261 40.3422 221.237 40.2427 221.177 40.1769C221.116 40.1112 220.978 40.1247 220.926 40.0556C220.865 39.9898 220.911 39.8288 220.854 39.7571C220.796 39.6855 220.663 39.6871 220.611 39.618C220.559 39.5489 220.51 39.4739 220.461 39.3989C220.412 39.3239 220.374 39.2396 220.324 39.1645C220.275 39.0895 220.315 38.9548 220.268 38.8739C220.227 38.7955 220.159 38.7331 220.118 38.6547C220.077 38.5764 220.009 38.5139 219.971 38.4297C219.932 38.3454 219.936 38.2444 219.903 38.1627C219.873 38.0751 219.763 38.0293 219.734 37.9417C219.704 37.8541 219.715 37.7498 219.694 37.6588C219.672 37.5678 219.604 37.491 219.588 37.4026C219.571 37.3142 219.648 37.1976 219.635 37.1033C219.621 37.009 219.632 36.9191 219.624 36.8274C219.616 36.7356 219.51 36.6551 219.511 36.5601C219.511 36.465 219.639 36.3657 219.639 36.2707C219.644 36.1782 219.577 36.0869 219.585 35.9885C219.599 35.8927 219.661 35.8057 219.68 35.7124C219.699 35.6192 219.675 35.5197 219.7 35.4291C219.724 35.3384 219.743 35.2452 219.776 35.1512C219.806 35.0631 219.9 34.9916 219.935 34.9061C219.971 34.8206 219.942 34.7041 219.98 34.6127C220.02 34.5298 220.09 34.4539 220.139 34.3676C220.179 34.2847 220.201 34.1856 220.25 34.0993C220.296 34.019 220.419 33.9833 220.473 33.8996C220.524 33.8219 220.528 33.7065 220.587 33.6254C220.647 33.5443 220.703 33.4692 220.765 33.3966C220.827 33.324 220.873 33.2292 220.937 33.1652C221.005 33.0952 221.072 33.0252 221.141 32.9637C221.214 32.8963 221.317 32.8876 221.392 32.8287C221.467 32.7698 221.529 32.6972 221.606 32.6468C221.687 32.5905 221.738 32.4983 221.821 32.4505C221.904 32.4027 221.981 32.3522 222.064 32.3044C222.144 32.2625 222.232 32.2173 222.314 32.1839C222.399 32.1446 222.487 32.0993 222.567 32.0718C222.654 32.041 222.751 32.0586 222.842 32.0363C222.932 32.014 223.022 32.0723 223.115 32.0585C223.202 32.0421 223.289 32.0113 223.374 32.0009C223.463 31.993 223.549 31.8586 223.638 31.8507C223.728 31.8428 223.813 31.8986 223.905 31.8992C223.992 31.8972 224.092 31.8283 224.181 31.8348C224.27 31.8414 224.356 31.8538 224.446 31.8604C224.532 31.8728 224.589 32.0252 224.673 32.0435C224.756 32.0619 224.852 32.0422 224.935 32.0606C225.019 32.079 225.123 32.0415 225.209 32.0684C225.289 32.0927 225.366 32.1517 225.443 32.182C225.526 32.2148 225.627 32.1976 225.707 32.2364C225.787 32.2751 225.873 32.302 225.945 32.3441C226.025 32.3828 226.057 32.5078 226.128 32.5499C226.206 32.5945 226.292 32.6214 226.363 32.6635C226.438 32.714 226.478 32.8068 226.544 32.8608C226.61 32.9147 226.69 32.9534 226.756 33.0073C226.823 33.0612 226.849 33.1692 226.912 33.2291C226.975 33.2889 227.044 33.3369 227.105 33.4026C227.165 33.4684 227.281 33.4734 227.339 33.5451C227.391 33.6142 227.484 33.6522 227.542 33.7239C227.594 33.793 227.615 33.8984 227.659 33.9708C227.708 34.0458 227.754 34.1268 227.795 34.2051C227.836 34.2835 227.894 34.3552 227.932 34.4395C227.97 34.5238 228.027 34.5955 228.065 34.6797C228.098 34.7614 228.081 34.8776 228.11 34.9652C228.14 35.0529 228.137 35.1538 228.167 35.2415C228.197 35.3291 228.292 35.39 228.314 35.481C228.336 35.5719 228.218 35.7052 228.231 35.7996C228.247 35.8879 228.351 35.9599 228.367 36.0483C228.38 36.1426 228.432 36.2261 228.445 36.3204C228.453 36.4122 228.472 36.5091 228.48 36.6008C228.488 36.6925 228.498 36.7927 228.498 36.8878C228.498 36.9829 228.403 37.0832 228.4 37.1842C228.4 37.2793 228.426 37.3728 228.421 37.4653C228.415 37.5578 228.453 37.6565 228.444 37.7549C228.431 37.8507 228.444 37.945 228.43 38.0408C228.416 38.1367 228.365 38.2288 228.346 38.3221C228.327 38.4153 228.275 38.5075 228.256 38.6007C228.237 38.694 228.212 38.7846 228.19 38.8838C228.166 38.9744 228.098 39.0589 228.071 39.1554C228.046 39.2461 227.992 39.3298 227.965 39.4263C227.935 39.5144 227.943 39.6206 227.913 39.7086C227.88 39.8026 227.789 39.8682 227.759 39.9563C227.721 40.0477 227.675 40.128 227.64 40.2135C227.67 40.2061 227.7 40.1987 227.724 40.2031C227.808 40.2214 227.881 40.3009 227.964 40.3193C228.048 40.3376 228.118 40.423 228.21 40.438C228.294 40.4564 228.411 40.352 228.502 40.367C228.589 40.3795 228.665 40.453 228.748 40.4714C228.835 40.4838 228.902 40.5895 228.988 40.602C229.074 40.6145 229.186 40.5218 229.272 40.5343C229.358 40.5468 229.431 40.6406 229.518 40.6531C229.604 40.6655 229.709 40.5992 229.795 40.6117C229.884 40.6182 229.966 40.6799 230.05 40.6838C230.14 40.6904 230.235 40.6562 230.325 40.6627C230.414 40.6693 230.513 40.6004 230.597 40.6043C230.687 40.6109 230.768 40.7014 230.854 40.6994C230.947 40.7 231.032 40.7269 231.119 40.7249C231.211 40.7256 231.301 40.7033 231.388 40.7013C231.475 40.6993 231.57 40.599 231.66 40.5911C231.749 40.5832 231.837 40.7425 231.926 40.7346C232.016 40.7267 232.108 40.7273 232.198 40.7195C232.287 40.7116 232.373 40.6434 232.466 40.6296C232.559 40.6158 232.64 40.5162 232.73 40.5083C232.814 40.4978 232.902 40.5476 232.986 40.5372C232.917 40.4892 232.846 40.4471 232.785 40.3958C232.719 40.3419 232.602 40.3368 232.539 40.277C232.476 40.2171 232.475 40.0847 232.414 40.019C232.354 39.9532 232.305 39.8782 232.253 39.8091C232.193 39.7433 232.129 39.6835 232.077 39.6144C232.025 39.5453 231.923 39.5106 231.874 39.4356C231.825 39.3606 231.815 39.2604 231.768 39.1794C231.719 39.1044 231.628 39.0605 231.582 38.9795C231.541 38.9012 231.495 38.8202 231.457 38.736C231.419 38.6517 231.37 38.5766 231.332 38.4924C231.294 38.4081 231.231 38.3338 231.201 38.2462C231.171 38.1586 231.177 38.0516 231.147 37.964C231.118 37.8764 231.112 37.7788 231.091 37.6878C231.069 37.5968 231.007 37.5226 230.988 37.4257C230.966 37.3347 230.991 37.2296 230.978 37.1353C230.964 37.041 230.877 36.9623 230.869 36.8706C230.856 36.7763 230.873 36.6746 230.859 36.5803C230.851 36.4885 230.939 36.3771 230.939 36.282C230.939 36.187 230.899 36.0942 230.899 35.9991C230.899 35.904 230.84 35.8094 230.845 35.717C230.851 35.6245 230.868 35.5227 230.876 35.4243C230.885 35.3259 230.871 35.2316 230.88 35.1332C230.893 35.0374 230.902 34.939 230.916 34.8432C230.929 34.7474 230.957 34.6508 230.976 34.5575C230.995 34.4643 231.017 34.3651 231.044 34.2686C231.064 34.1753 231.134 34.085 231.159 33.9943C231.186 33.8977 231.205 33.8045 231.232 33.7079C231.265 33.6139 231.359 33.5424 231.397 33.451C231.43 33.357 231.393 33.2439 231.431 33.1525C231.469 33.061 231.486 32.9593 231.524 32.8679C231.567 32.7791 231.6 32.6851 231.643 32.5962C231.687 32.5074 231.767 32.4366 231.816 32.3504C231.865 32.2641 231.908 32.1753 231.962 32.0916C232.016 32.008 232.113 31.9594 232.167 31.8757C232.226 31.7946 232.24 31.6844 232.3 31.6033C232.356 31.5281 232.413 31.4385 232.475 31.366C232.537 31.2934 232.673 31.2858 232.734 31.2132C232.802 31.1432 232.879 31.0928 232.951 31.0254C233.024 30.958 233.075 30.8802 233.153 30.8154C233.223 30.7539 233.248 30.62 233.329 30.5637C233.404 30.5047 233.484 30.4484 233.564 30.3921C233.645 30.3358 233.735 30.299 233.815 30.2571C233.898 30.2093 233.978 30.153 234.063 30.1136C234.151 30.0684 234.239 30.052 234.324 30.0127C234.409 29.9734 234.516 30.0106 234.599 29.9772C234.686 29.9464 234.771 29.9215 234.859 29.8907C234.952 29.8624 235.035 29.8664 235.126 29.8441C235.216 29.8218 235.296 29.7654 235.388 29.7516C235.481 29.7378 235.567 29.6696 235.657 29.6617C235.746 29.6539 235.835 29.6748 235.927 29.6754C236.019 29.6761 236.099 29.7148 236.189 29.7213C236.278 29.7279 236.368 29.6911 236.46 29.7062C236.546 29.7186 236.636 29.7252 236.724 29.7462C236.811 29.7586 236.921 29.7093 237.001 29.7336C237.09 29.7546 237.143 29.8754 237.224 29.8997C237.309 29.9266 237.378 29.9746 237.461 30.0074C237.544 30.0403 237.677 29.958 237.757 29.9967C237.837 30.0354 237.871 30.1689 237.943 30.211C238.023 30.2497 238.16 30.1844 238.238 30.2291C238.315 30.2737 238.338 30.4021 238.412 30.4526C238.487 30.5032 238.569 30.536 238.636 30.59C238.707 30.6465 238.787 30.6852 238.85 30.745C238.916 30.7989 239.005 30.8343 239.073 30.8968C239.136 30.9566 239.222 30.9979 239.282 31.0637C239.342 31.1294 239.324 31.2745 239.385 31.3402C239.445 31.406 239.458 31.5147 239.51 31.5838C239.567 31.6555 239.733 31.6261 239.783 31.7011C239.832 31.7761 239.878 31.8571 239.927 31.9321C239.976 32.0071 239.901 32.1755 239.95 32.2505C239.996 32.3315 240.062 32.3854 240.106 32.4723C240.147 32.5506 240.303 32.5678 240.341 32.6521C240.379 32.7364 240.373 32.8433 240.408 32.9335C240.441 33.0152 240.468 33.1087 240.498 33.1964C240.528 33.284 240.475 33.405 240.502 33.4986C240.529 33.5921 240.573 33.6645 240.594 33.7555C240.616 33.8465 240.744 33.9084 240.76 33.9968C240.779 34.0937 240.681 34.2144 240.694 34.3087C240.707 34.403 240.846 34.4702 240.854 34.5619C240.862 34.6536 240.824 34.7595 240.829 34.8571C240.834 34.9548 240.847 35.0491 240.847 35.1441C240.847 35.2392 240.752 35.3396 240.748 35.4405C240.743 35.533 240.808 35.6302 240.799 35.7286C240.791 35.827 240.707 35.9181 240.693 36.0139C240.679 36.1098 240.69 36.21 240.67 36.3032C240.651 36.3965 240.637 36.4923 240.615 36.5915C240.596 36.6847 240.558 36.7761 240.531 36.8727C240.504 36.9693 240.444 37.0503 240.406 37.1418C240.373 37.2358 240.486 37.3706 240.453 37.4646C240.42 37.5586 240.28 37.6154 240.245 37.7009C240.207 37.7923 240.188 37.8855 240.15 37.9769C240.107 38.0658 240.133 38.1882 240.089 38.277C240.046 38.3658 239.915 38.4049 239.871 38.4937C239.866 38.5055 239.86 38.5174 239.854 38.5292C239.942 38.4984 240.035 38.4702 240.117 38.4368C240.202 38.3974 240.29 38.3666 240.37 38.3247C240.455 38.2854 240.561 38.2853 240.64 38.2434C240.723 38.1955 240.768 38.0634 240.851 38.0156C240.933 37.9678 241.062 38.0153 241.145 37.9675C241.222 37.9171 241.305 37.8548 241.383 37.8044C241.46 37.754 241.466 37.5665 241.541 37.5076C241.621 37.4512 241.742 37.4733 241.817 37.4144C241.892 37.3554 241.952 37.2744 242.027 37.2155C242.102 37.1565 242.153 37.0644 242.226 36.997C242.301 36.938 242.397 36.9039 242.466 36.8424C242.536 36.7809 242.593 36.6913 242.663 36.6298C242.735 36.5624 242.867 36.5752 242.935 36.5052C243.007 36.4378 243.019 36.3046 243.087 36.2346C243.154 36.1646 243.271 36.1552 243.338 36.0852C243.405 36.0152 243.491 35.9614 243.558 35.8914C243.625 35.8214 243.684 35.7404 243.751 35.6704C243.819 35.6004 243.891 35.5329 243.958 35.4629C244.02 35.3904 244.066 35.2956 244.128 35.223C244.19 35.1504 244.25 35.0694 244.311 34.9968C244.373 34.9242 244.456 34.8619 244.518 34.7894C244.58 34.7168 244.626 34.622 244.683 34.5469C244.739 34.4717 244.793 34.388 244.858 34.3095C244.915 34.2344 244.966 34.1422 245.023 34.067C245.082 33.986 245.186 33.9485 245.246 33.8674C245.305 33.7863 245.319 33.676 245.376 33.6009C245.435 33.5198 245.502 33.4498 245.556 33.3661C245.616 33.285 245.701 33.2313 245.761 33.1502C245.82 33.0691 245.829 32.9563 245.883 32.8726C245.937 32.789 245.941 32.6736 246 32.5925C246.054 32.5088 246.161 32.4654 246.215 32.3817C246.269 32.298 246.284 32.1878 246.34 32.1126C246.394 32.029 246.414 31.9213 246.47 31.8461C246.524 31.7625 246.695 31.7645 246.754 31.6834C246.808 31.5997 246.841 31.5057 246.895 31.4221C246.949 31.3384 246.998 31.2521 247.049 31.1744C247.103 31.0907 247.091 30.9676 247.145 30.8839C247.202 30.7943 247.29 30.7346 247.357 30.6646C247.427 30.5887 247.49 30.5017 247.565 30.4428C247.645 30.3865 247.771 30.4399 247.856 30.4006C247.941 30.3613 248.021 30.3194 248.108 30.303C248.195 30.2866 248.282 30.2847 248.369 30.2827C248.461 30.2833 248.573 30.1618 248.662 30.1828C248.751 30.2038 248.798 30.3365 248.878 30.3752C248.958 30.414 249.075 30.3901 249.15 30.4407C249.224 30.4913 249.287 30.5656 249.347 30.6313C249.407 30.6971 249.489 30.7587 249.539 30.8338C249.585 30.9147 249.565 31.0368 249.586 31.1278C249.616 31.2154 249.709 31.2967 249.708 31.3917C249.708 31.4868 249.626 31.5864 249.61 31.6881C249.591 31.7814 249.529 31.8539 249.493 31.9539C249.453 32.0368 249.469 32.1396 249.412 32.2292C249.408 32.264 249.44 32.265 249.44 32.265C249.389 32.3428 249.346 32.4316 249.292 32.5153C249.241 32.593 249.147 32.6501 249.096 32.7278C249.044 32.8056 248.916 32.8387 248.865 32.9164C248.814 32.9942 248.852 33.1447 248.801 33.2224C248.75 33.3001 248.656 33.3572 248.605 33.435C248.554 33.5127 248.542 33.6315 248.491 33.7092C248.44 33.787 248.282 33.7986 248.226 33.8738C248.175 33.9515 248.104 34.0275 248.048 34.1026C247.997 34.1804 248.043 34.342 247.987 34.4171C247.93 34.4923 247.829 34.5383 247.769 34.6194C247.713 34.6945 247.683 34.797 247.626 34.8722C247.57 34.9474 247.539 35.0499 247.48 35.1309C247.42 35.212 247.346 35.2709 247.286 35.352C247.23 35.4272 247.152 35.492 247.095 35.5672C247.039 35.6423 247.003 35.7423 246.947 35.8174C246.89 35.8926 246.794 35.9412 246.737 36.0163C246.681 36.0915 246.614 36.1615 246.554 36.2426C246.492 36.3152 246.444 36.4014 246.382 36.474C246.32 36.5466 246.211 36.5815 246.154 36.6567C246.092 36.7292 246.07 36.8428 246.008 36.9154C245.946 36.988 245.879 37.058 245.817 37.1306C245.755 37.2031 245.738 37.3193 245.671 37.3893C245.609 37.4619 245.55 37.543 245.482 37.613C245.415 37.683 245.309 37.712 245.242 37.782C245.174 37.852 245.105 37.9135 245.038 37.9835C244.97 38.0535 244.846 38.0518 244.779 38.1218C244.711 38.1918 244.733 38.3634 244.664 38.4249C244.596 38.4949 244.516 38.5512 244.452 38.6153C244.379 38.6827 244.273 38.6972 244.201 38.7647C244.131 38.8262 244.051 38.8825 243.981 38.944C243.912 39.0055 243.86 39.0976 243.785 39.1566C243.715 39.2181 243.588 39.2079 243.513 39.2668C243.438 39.3257 243.451 39.515 243.377 39.574C243.302 39.6329 243.149 39.5665 243.074 39.6254C242.999 39.6843 242.996 39.8659 242.919 39.9164C242.842 39.9668 242.749 39.995 242.668 40.0513C242.591 40.1017 242.472 40.0882 242.395 40.1386C242.317 40.189 242.265 40.2956 242.182 40.3434C242.105 40.3938 242.025 40.4502 241.942 40.498C241.859 40.5458 241.756 40.54 241.674 40.5879C241.591 40.6357 241.536 40.7482 241.456 40.7901C241.376 40.832 241.241 40.7445 241.156 40.7838C241.07 40.8232 241.003 40.8932 240.918 40.9325C240.833 40.9718 240.775 41.0903 240.69 41.1296C240.607 41.163 240.488 41.0832 240.397 41.12C240.31 41.1508 240.261 41.3177 240.174 41.3485C240.086 41.3793 239.989 41.3617 239.901 41.3925C239.814 41.4233 239.705 41.3487 239.62 41.3736C239.535 41.3985 239.47 41.5721 239.38 41.5944C239.29 41.6167 239.193 41.5991 239.106 41.6155C239.016 41.6378 238.916 41.5455 238.829 41.5618C238.741 41.5782 238.651 41.6005 238.564 41.6169C238.477 41.6333 238.387 41.6412 238.295 41.655C238.202 41.6688 238.118 41.8406 238.029 41.8485C237.939 41.8563 237.846 41.8701 237.757 41.878C237.667 41.8859 237.579 41.7699 237.489 41.7778C237.402 41.7797 237.304 41.9005 237.212 41.8998C237.119 41.8992 237.028 41.8842 236.944 41.8802C236.917 41.8817 236.885 41.8662 236.864 41.8415C236.839 41.8659 236.814 41.8904 236.786 41.9063C236.709 41.9567 236.567 41.8955 236.489 41.9459C236.407 41.9937 236.357 42.1088 236.269 42.1541C236.186 42.2019 236.111 42.2753 236.031 42.3172C235.946 42.3565 235.828 42.3141 235.743 42.3534C235.657 42.3927 235.595 42.4942 235.51 42.5335C235.424 42.5728 235.307 42.516 235.225 42.5494C235.139 42.5887 235.096 42.7726 235.008 42.8034C234.92 42.8343 234.797 42.7231 234.709 42.7539C234.621 42.7847 234.534 42.8155 234.446 42.8463C234.358 42.8772 234.294 43.0219 234.201 43.0501C234.111 43.0724 234.019 43.0718 233.929 43.0941C233.839 43.1164 233.744 43.1073 233.654 43.1296C233.564 43.1519 233.481 43.2142 233.386 43.2339C233.298 43.2503 233.204 43.2412 233.111 43.255C233.024 43.2714 232.929 43.2911 232.841 43.3075C232.749 43.3213 232.663 43.3895 232.57 43.4033C232.478 43.4171 232.384 43.3647 232.295 43.3726C232.205 43.3805 232.113 43.3943 232.02 43.4081C231.93 43.416 231.837 43.4442 231.748 43.4521C231.658 43.46 231.565 43.4882 231.475 43.4961C231.386 43.504 231.298 43.3735 231.214 43.3696C231.127 43.3715 231.027 43.4549 230.94 43.4568C230.848 43.4562 230.759 43.4353 230.67 43.4287C230.578 43.4281 230.488 43.4504 230.396 43.4498C230.304 43.4492 230.224 43.396 230.135 43.3895C230.046 43.3829 229.943 43.4578 229.854 43.4512C229.765 43.4447 229.672 43.4729 229.577 43.4638C229.488 43.4573 229.396 43.4422 229.31 43.4298C229.221 43.4232 229.133 43.3878 229.046 43.3754C228.957 43.3688 228.891 43.2343 228.802 43.2277C228.715 43.2153 228.626 43.2087 228.534 43.1937C228.448 43.1812 228.349 43.2213 228.258 43.2063C228.171 43.1938 228.086 43.1525 228 43.14C227.913 43.1276 227.803 43.1913 227.719 43.1729C227.633 43.1605 227.532 43.1776 227.446 43.1652C227.357 43.1442 227.302 43.0148 227.213 42.9938C227.124 42.9729 227.029 42.9926 226.94 42.9716C226.851 42.9507 226.774 42.906 226.685 42.885C226.596 42.8641 226.501 42.8694 226.418 42.851C226.329 42.83 226.255 42.7795 226.166 42.7585C226.145 42.7482 226.123 42.7523 226.099 42.7479C226.076 42.7952 226.053 42.8426 226.022 42.8789C225.96 42.9515 225.95 43.0787 225.889 43.1513C225.827 43.2239 225.683 43.2204 225.621 43.293C225.554 43.363 225.55 43.4928 225.483 43.5628C225.416 43.6328 225.354 43.7054 225.287 43.7754C225.22 43.8454 225.155 43.9239 225.091 43.988C225.018 44.0554 224.889 44.0367 224.814 44.0956C224.744 44.1571 224.685 44.2382 224.61 44.2971C224.535 44.356 224.506 44.4814 224.432 44.5403C224.357 44.5992 224.274 44.6471 224.199 44.706C224.124 44.7649 224.049 44.8238 223.972 44.8742C223.894 44.9246 223.76 44.8745 223.683 44.9249C223.605 44.9753 223.568 45.1185 223.486 45.1663C223.403 45.2142 223.315 45.2594 223.232 45.3072C223.149 45.355 223.051 45.3663 222.966 45.4056C222.883 45.4534 222.803 45.5098 222.718 45.5491C222.633 45.5884 222.54 45.6022 222.455 45.6415C222.37 45.6808 222.282 45.7117 222.192 45.7484C222.106 45.7877 222.038 45.8866 221.948 45.9233C221.86 45.9541 221.777 46.0164 221.689 46.0472C221.602 46.078 221.5 46.0434 221.407 46.0716C221.319 46.1024 221.232 46.1332 221.139 46.1615C221.048 46.1838 220.949 46.1432 220.859 46.1655C220.769 46.1879 220.695 46.313 220.605 46.3353C220.515 46.3576 220.414 46.2797 220.327 46.2961C220.24 46.3125 220.146 46.2889 220.056 46.2968C219.963 46.3106 219.879 46.4161 219.789 46.424C219.7 46.4319 219.607 46.4602 219.517 46.468C219.427 46.4759 219.335 46.4897 219.248 46.4917C219.158 46.4996 219.069 46.398 218.983 46.3999C218.891 46.3993 218.8 46.4505 218.707 46.4499C218.615 46.4493 218.53 46.4079 218.441 46.4014C218.352 46.3949 218.245 46.5189 218.156 46.5124C218.066 46.5058 217.993 46.412 217.899 46.4028C217.81 46.3963 217.733 46.3228 217.647 46.3103C217.561 46.2979 217.453 46.3701 217.366 46.3577C217.28 46.3452 217.213 46.2251 217.13 46.2067C217.041 46.1857 216.93 46.2639 216.847 46.2456C216.758 46.2246 216.669 46.218 216.58 46.1971C216.494 46.1702 216.441 46.0637 216.355 46.0368C216.269 46.01 216.171 46.0212 216.094 45.9909C216.008 45.9641 215.928 45.9253 215.847 45.901C215.764 45.8682 215.681 45.8354 215.601 45.7967C215.521 45.7579 215.397 45.8225 215.314 45.7896C215.234 45.7509 215.203 45.6115 215.123 45.5728C215.043 45.534 214.948 45.5249 214.868 45.4862C214.788 45.4474 214.682 45.462 214.605 45.4174L214.631 45.4591ZM237.79 37.1208C237.833 37.032 237.895 36.945 237.933 36.8535C237.977 36.7647 238.012 36.6648 238.045 36.5708C238.078 36.4768 238.078 36.3673 238.103 36.2767C238.13 36.1801 238.157 36.0835 238.179 35.9843C238.202 35.8852 238.196 35.7875 238.21 35.6917C238.224 35.5959 238.154 35.4961 238.154 35.401C238.163 35.3026 238.141 35.2117 238.138 35.1225C238.133 35.0249 238.158 34.9342 238.147 34.834C238.134 34.7397 238.148 34.6439 238.126 34.5529C238.104 34.462 238.124 34.3543 238.094 34.2667C238.064 34.179 237.927 34.1493 237.889 34.065C237.851 33.9807 237.907 33.8393 237.861 33.7584C237.814 33.6774 237.732 33.6302 237.677 33.5526C237.625 33.4835 237.607 33.3722 237.55 33.3005C237.489 33.2347 237.449 33.1419 237.38 33.0795C237.317 33.0197 237.243 32.9547 237.172 32.8982C237.103 32.8357 237.013 32.7918 236.944 32.7439C236.864 32.6907 236.753 32.7027 236.675 32.658C236.59 32.6167 236.524 32.5484 236.447 32.5181C236.358 32.4827 236.263 32.5025 236.174 32.4815C236.085 32.4605 236.002 32.4421 235.91 32.4415C235.818 32.4409 235.726 32.4259 235.639 32.4423C235.546 32.4561 235.473 32.5379 235.383 32.5746C235.295 32.6055 235.185 32.5742 235.102 32.622C235.02 32.6698 234.957 32.7568 234.882 32.8157C234.807 32.8746 234.706 32.9062 234.634 32.9736C234.566 33.0436 234.473 33.1007 234.416 33.1759C234.354 33.2485 234.361 33.3835 234.301 33.4646C234.247 33.5482 234.225 33.6474 234.171 33.7311C234.128 33.8199 234.05 33.8847 234.007 33.9735C233.963 34.0624 233.826 34.1132 233.788 34.2046C233.75 34.2961 233.814 34.4221 233.781 34.5161C233.749 34.6101 233.746 34.7111 233.726 34.8043C233.699 34.9009 233.656 34.9897 233.634 35.0889C233.612 35.1881 233.644 35.2842 233.63 35.38C233.616 35.4758 233.529 35.5729 233.521 35.6713C233.512 35.7697 233.545 35.8658 233.545 35.9609C233.544 36.0559 233.484 36.1659 233.497 36.2602C233.508 36.3604 233.48 36.4714 233.502 36.5624C233.52 36.6592 233.621 36.7227 233.646 36.8078C233.673 36.9013 233.686 36.9956 233.719 37.0773C233.749 37.165 233.775 37.2585 233.814 37.3428C233.852 37.4271 233.989 37.4424 234.033 37.5149C234.079 37.5958 234.126 37.6623 234.184 37.734C234.241 37.8057 234.276 37.8815 234.337 37.9472C234.397 38.013 234.421 38.1125 234.49 38.1749C234.553 38.2347 234.616 38.2946 234.687 38.3511C234.762 38.4017 234.785 38.53 234.862 38.5746C234.939 38.6193 235.045 38.6192 235.12 38.6553C235.2 38.694 235.289 38.715 235.371 38.7478C235.452 38.7865 235.573 38.7135 235.656 38.7463C235.742 38.7732 235.774 38.95 235.86 38.9769C235.944 38.9953 236.042 38.9696 236.134 38.9847C236.167 38.9569 236.206 38.9317 236.242 38.898C236.314 38.8305 236.444 38.8348 236.512 38.7648C236.584 38.6974 236.664 38.6411 236.732 38.5711C236.799 38.5011 236.887 38.4414 236.949 38.3688C237.011 38.2962 236.989 38.1391 237.053 38.0606C237.118 37.9821 237.222 37.9446 237.282 37.8635C237.341 37.7824 237.316 37.6456 237.37 37.5619C237.424 37.4782 237.501 37.4134 237.55 37.3271C237.599 37.2409 237.736 37.2045 237.779 37.1156L237.79 37.1208ZM225.733 38.6033C225.766 38.5093 225.691 38.3925 225.718 38.2959C225.746 38.1994 225.881 38.1256 225.905 38.0349C225.924 37.9417 225.814 37.8298 225.828 37.7339C225.842 37.6381 225.815 37.5446 225.82 37.4521C225.826 37.3596 225.853 37.263 225.851 37.1739C225.851 37.0788 225.965 36.9659 225.952 36.8715C225.944 36.7798 225.816 36.7179 225.797 36.621C225.781 36.5326 225.883 36.3915 225.853 36.3039C225.823 36.2163 225.664 36.1906 225.626 36.1063C225.593 36.0246 225.619 35.9051 225.572 35.8241C225.531 35.7458 225.527 35.6337 225.472 35.5561C225.423 35.4811 225.296 35.4709 225.239 35.3992C225.181 35.3275 225.154 35.234 225.091 35.1741C225.028 35.1143 224.889 35.1566 224.82 35.1087C224.745 35.0581 224.754 34.879 224.679 34.8429C224.599 34.8042 224.478 34.8628 224.397 34.8384C224.311 34.8116 224.249 34.7229 224.166 34.7045C224.079 34.692 223.977 34.7524 223.893 34.7485C223.804 34.7419 223.72 34.738 223.636 34.7485C223.546 34.7563 223.453 34.7039 223.363 34.7263C223.278 34.7511 223.167 34.7487 223.087 34.7906C223.007 34.8325 222.939 34.9314 222.864 34.9903C222.789 35.0492 222.775 35.1739 222.708 35.2439C222.646 35.3164 222.494 35.3163 222.44 35.3999C222.394 35.4803 222.401 35.6008 222.369 35.6948C222.333 35.7803 222.258 35.8681 222.238 35.9613C222.222 36.0486 222.211 36.153 222.202 36.2514C222.197 36.3439 222.229 36.44 222.234 36.5376C222.237 36.6268 222.196 36.7385 222.209 36.8328C222.222 36.9271 222.392 36.9724 222.416 37.0575C222.438 37.1484 222.311 37.2995 222.344 37.3812C222.374 37.4688 222.491 37.5112 222.529 37.5955C222.568 37.6798 222.661 37.7178 222.71 37.7928C222.759 37.8678 222.77 37.968 222.822 38.0371C222.874 38.1062 222.934 38.172 222.989 38.2352C223.05 38.3009 223.029 38.4519 223.097 38.5143C223.16 38.5742 223.322 38.5133 223.388 38.5672C223.454 38.6211 223.489 38.7257 223.558 38.7737C223.627 38.8217 223.735 38.8157 223.807 38.8577C223.879 38.8998 223.876 39.0814 223.953 39.1261C224.034 39.1648 224.114 39.2036 224.188 39.2397C224.269 39.2784 224.346 39.3231 224.423 39.3533C224.503 39.3921 224.622 39.3394 224.696 39.3755C224.776 39.4143 224.845 39.4767 224.923 39.5069C225.006 39.5397 225.124 39.4726 225.205 39.4969C225.215 39.5021 225.226 39.5073 225.237 39.5124C225.276 39.4728 225.315 39.4332 225.338 39.3858C225.381 39.2969 225.473 39.2314 225.516 39.1425C225.56 39.0537 225.469 38.9147 225.502 38.8207C225.54 38.7293 225.69 38.6777 225.723 38.5837L225.733 38.6033Z"
          fill="#FFC2C2"/>
    <path d="M239.18 156.294C239.237 156.077 239.322 156.284 239.616 156.294C239.739 156.294 239.89 156.35 240.07 156.36C240.213 156.36 240.364 156.369 240.525 156.379C240.667 156.379 240.819 156.379 240.98 156.379C241.122 156.379 241.274 156.369 241.435 156.369C241.586 156.369 241.738 156.369 241.889 156.369C242.041 156.369 242.193 156.35 242.344 156.341C242.496 156.341 242.647 156.36 242.799 156.35C242.951 156.35 243.102 156.313 243.254 156.303C243.405 156.294 243.557 156.265 243.709 156.256C243.86 156.247 244.012 156.275 244.163 156.256C244.315 156.237 244.467 156.228 244.618 156.209C244.77 156.19 244.921 156.171 245.073 156.152C245.224 156.133 245.367 156.077 245.518 156.049C245.67 156.02 245.821 156.02 245.973 155.992C246.125 155.964 246.267 155.907 246.418 155.879C246.57 155.851 246.721 155.85 246.873 155.813C247.025 155.775 247.167 155.728 247.318 155.681C247.47 155.643 247.612 155.586 247.754 155.549C247.906 155.511 248.048 155.464 248.19 155.417C248.332 155.37 248.484 155.322 248.626 155.275C248.768 155.228 248.91 155.162 249.052 155.106C249.194 155.049 249.346 155.002 249.488 154.945C249.602 155.134 249.526 155.172 249.573 155.388C249.621 155.615 249.63 155.605 249.677 155.832C249.725 156.049 249.753 156.049 249.801 156.265C249.848 156.482 249.838 156.492 249.886 156.709C249.933 156.935 249.924 156.935 249.971 157.152C250.018 157.369 250.028 157.369 250.075 157.595C250.123 157.812 250.113 157.821 250.161 158.038C250.208 158.255 250.17 158.264 250.217 158.491C250.265 158.717 250.265 158.717 250.312 158.934C250.36 159.16 250.369 159.151 250.416 159.377C250.464 159.603 250.464 159.603 250.511 159.82C250.559 160.046 250.663 160.037 250.644 160.263C250.615 160.49 250.473 160.32 250.198 160.414C250.075 160.452 249.924 160.49 249.763 160.546C249.63 160.593 249.488 160.64 249.327 160.697C249.185 160.744 249.033 160.772 248.882 160.82C248.739 160.867 248.607 160.961 248.455 161.008C248.313 161.046 248.161 161.084 248.01 161.131C247.868 161.168 247.707 161.159 247.555 161.197C247.413 161.234 247.271 161.319 247.119 161.357C246.977 161.395 246.826 161.423 246.674 161.461C246.522 161.498 246.371 161.498 246.219 161.536C246.068 161.574 245.926 161.64 245.783 161.668C245.632 161.696 245.48 161.696 245.329 161.725C245.177 161.753 245.035 161.81 244.883 161.838C244.732 161.866 244.58 161.876 244.429 161.894C244.277 161.913 244.125 161.923 243.964 161.942C243.813 161.96 243.661 162.008 243.51 162.017C243.358 162.036 243.197 162.017 243.045 162.017C242.894 162.026 242.733 162.026 242.581 162.026C242.429 162.026 242.268 162.083 242.117 162.083C241.956 162.083 241.804 162.036 241.653 162.026C241.492 162.017 241.34 162.017 241.188 161.998C241.027 161.979 240.885 161.923 240.743 161.894C240.591 161.866 240.43 161.857 240.288 161.81C240.137 161.762 240.014 161.696 239.881 161.63C239.805 161.423 239.805 161.423 239.777 161.197C239.748 160.97 239.777 160.97 239.748 160.744C239.72 160.518 239.748 160.518 239.71 160.292C239.682 160.065 239.635 160.075 239.606 159.848C239.578 159.632 239.616 159.622 239.587 159.405C239.559 159.179 239.53 159.188 239.502 158.962C239.474 158.736 239.455 158.745 239.426 158.519C239.398 158.293 239.426 158.293 239.398 158.066C239.369 157.84 239.331 157.849 239.303 157.623C239.275 157.397 239.303 157.397 239.275 157.171C239.246 156.944 239.275 156.935 239.227 156.718C239.18 156.492 239.114 156.501 239.17 156.275L239.18 156.294Z"
          fill="#4C94FF"/>
    <path d="M229.458 108.96C229.629 108.809 229.591 109.035 229.818 109.205C229.922 109.28 230.017 109.412 230.159 109.516C230.273 109.601 230.387 109.686 230.519 109.78C230.633 109.865 230.766 109.94 230.898 110.035C231.022 110.119 231.154 110.195 231.277 110.28C231.4 110.365 231.524 110.449 231.656 110.544C231.779 110.629 231.912 110.695 232.045 110.779C232.168 110.855 232.282 110.968 232.414 111.053C232.537 111.128 232.68 111.194 232.812 111.27C232.945 111.345 233.077 111.411 233.22 111.487C233.352 111.562 233.456 111.675 233.599 111.751C233.731 111.826 233.864 111.892 233.996 111.968C234.129 112.034 234.271 112.109 234.404 112.175C234.536 112.241 234.688 112.279 234.83 112.345C234.963 112.411 235.095 112.486 235.238 112.552C235.38 112.618 235.522 112.656 235.664 112.712C235.806 112.769 235.929 112.863 236.071 112.92C236.213 112.976 236.365 113.014 236.507 113.061C236.649 113.118 236.801 113.146 236.943 113.193C237.085 113.24 237.237 113.288 237.379 113.335C237.521 113.382 237.673 113.42 237.824 113.457C237.976 113.495 238.118 113.523 238.269 113.561C238.421 113.599 238.573 113.646 238.724 113.674C238.715 113.9 238.62 113.882 238.535 114.089C238.449 114.296 238.449 114.296 238.364 114.513C238.279 114.721 238.298 114.73 238.213 114.938C238.127 115.145 238.118 115.145 238.023 115.353C237.938 115.56 237.928 115.56 237.843 115.767C237.758 115.975 237.758 115.975 237.673 116.182C237.587 116.39 237.578 116.39 237.483 116.597C237.398 116.805 237.36 116.795 237.275 117.003C237.189 117.21 237.189 117.21 237.095 117.417C237.009 117.625 237.009 117.634 236.924 117.842C236.839 118.049 236.829 118.049 236.744 118.266C236.659 118.474 236.744 118.53 236.602 118.7C236.45 118.87 236.431 118.653 236.147 118.577C236.024 118.54 235.882 118.492 235.711 118.436C235.579 118.398 235.427 118.36 235.266 118.313C235.124 118.276 234.982 118.21 234.83 118.162C234.688 118.115 234.527 118.125 234.375 118.078C234.233 118.03 234.091 117.974 233.94 117.927C233.797 117.88 233.674 117.776 233.523 117.719C233.381 117.672 233.22 117.653 233.077 117.606C232.935 117.55 232.793 117.493 232.651 117.436C232.509 117.38 232.376 117.295 232.234 117.238C232.092 117.182 231.941 117.163 231.798 117.097C231.656 117.04 231.524 116.946 231.391 116.889C231.249 116.823 231.097 116.795 230.955 116.729C230.813 116.663 230.68 116.588 230.548 116.522C230.406 116.456 230.273 116.371 230.14 116.305C230.008 116.229 229.856 116.182 229.724 116.107C229.591 116.031 229.468 115.928 229.335 115.852C229.202 115.777 229.079 115.683 228.947 115.607C228.814 115.522 228.662 115.475 228.539 115.39C228.416 115.296 228.312 115.183 228.189 115.089C228.066 114.994 227.942 114.9 227.829 114.806C227.715 114.702 227.62 114.57 227.516 114.466C227.412 114.353 227.289 114.259 227.194 114.146C227.099 114.023 227.033 113.9 226.957 113.768C227.014 113.552 227.014 113.552 227.118 113.354C227.222 113.156 227.251 113.165 227.355 112.967C227.459 112.769 227.478 112.778 227.582 112.58C227.687 112.382 227.639 112.364 227.743 112.156C227.848 111.958 227.886 111.977 227.98 111.779C228.084 111.581 228.066 111.572 228.17 111.373C228.274 111.175 228.255 111.166 228.359 110.968C228.463 110.77 228.492 110.779 228.596 110.581C228.7 110.383 228.672 110.365 228.776 110.167C228.88 109.969 228.909 109.978 229.013 109.78C229.117 109.582 229.146 109.591 229.231 109.375C229.316 109.158 229.269 109.129 229.439 108.979L229.458 108.96Z"
          fill="#FFC2C2"/>
    <path d="M255.222 81.4353C255.392 81.2845 255.364 81.5485 255.591 81.7371C255.686 81.8219 255.79 81.9445 255.923 82.0482C256.027 82.1331 256.178 82.1897 256.311 82.2839C256.425 82.3688 256.539 82.4725 256.662 82.5668C256.775 82.6517 256.87 82.7837 257.003 82.878C257.126 82.9628 257.277 83.01 257.41 83.0948C257.533 83.1797 257.628 83.3117 257.761 83.3966C257.884 83.4814 258.016 83.5569 258.149 83.6417C258.272 83.7266 258.433 83.7643 258.557 83.8492C258.68 83.9246 258.803 84.0283 258.936 84.1037C259.068 84.1792 259.201 84.2452 259.333 84.3206C259.466 84.396 259.58 84.5092 259.712 84.5846C259.845 84.6601 259.978 84.7355 260.11 84.8109C260.243 84.8863 260.395 84.9146 260.537 84.9901C260.669 85.0561 260.811 85.1221 260.944 85.1975C261.077 85.2635 261.219 85.3295 261.361 85.3955C261.503 85.4615 261.626 85.5464 261.768 85.6124C261.91 85.669 262.062 85.6972 262.204 85.7538C262.346 85.8104 262.469 85.9141 262.612 85.9707C262.754 86.0273 262.905 86.0555 263.047 86.1027C263.189 86.1498 263.341 86.1781 263.493 86.2253C263.635 86.2724 263.786 86.3007 263.938 86.3384C264.09 86.3761 264.222 86.4327 264.374 86.4704C264.355 86.6967 264.279 86.6684 264.184 86.8759C264.09 87.0833 264.09 87.0833 263.995 87.2907C263.9 87.4982 263.928 87.5076 263.843 87.715C263.748 87.9225 263.73 87.9131 263.644 88.1205C263.55 88.3279 263.578 88.3374 263.483 88.5448C263.388 88.7522 263.351 88.7334 263.256 88.9408C263.161 89.1483 263.208 89.1671 263.114 89.3746C263.019 89.582 263.019 89.582 262.924 89.7894C262.829 89.9969 262.811 89.9874 262.716 90.1949C262.621 90.4023 262.649 90.4117 262.555 90.6192C262.46 90.8266 262.46 90.8266 262.365 91.0341C262.27 91.2415 262.318 91.2792 262.157 91.4489C262.005 91.6187 261.996 91.3641 261.711 91.2792C261.588 91.2415 261.437 91.2038 261.276 91.1472C261.143 91.1001 260.991 91.0623 260.84 91.0058C260.707 90.9586 260.556 90.9021 260.404 90.8455C260.262 90.7983 260.12 90.7606 259.968 90.704C259.826 90.6569 259.665 90.6475 259.523 90.5909C259.381 90.5343 259.239 90.4777 259.097 90.4212C258.954 90.3646 258.831 90.2609 258.689 90.2043C258.547 90.1477 258.395 90.1194 258.253 90.0629C258.111 90.0063 257.96 89.9686 257.818 89.912C257.675 89.8554 257.543 89.7706 257.401 89.714C257.259 89.648 257.135 89.5631 256.993 89.4971C256.851 89.4311 256.719 89.3557 256.586 89.2897C256.444 89.2237 256.302 89.1671 256.169 89.0917C256.036 89.0163 255.894 88.9408 255.762 88.8654C255.629 88.79 255.506 88.6957 255.373 88.6202C255.241 88.5448 255.098 88.4882 254.966 88.4034C254.833 88.3185 254.719 88.2148 254.596 88.1299C254.464 88.0451 254.312 87.9979 254.189 87.9131C254.066 87.8188 253.952 87.7056 253.838 87.6113C253.715 87.5076 253.592 87.4228 253.478 87.319C253.365 87.2153 253.298 87.0645 253.194 86.9513C253.09 86.8382 252.967 86.7439 252.872 86.6213C252.777 86.4987 252.711 86.3667 252.645 86.2347C252.701 86.0178 252.739 86.0367 252.844 85.8387C252.957 85.6407 252.929 85.6312 253.033 85.4332C253.137 85.2352 253.156 85.2446 253.27 85.0466C253.384 84.8486 253.412 84.8675 253.516 84.6695C253.63 84.4715 253.62 84.4715 253.725 84.2735C253.829 84.0755 253.8 84.0566 253.914 83.868C254.018 83.67 254.066 83.6889 254.17 83.5003C254.274 83.3023 254.265 83.2928 254.378 83.0948C254.492 82.8968 254.502 82.9063 254.606 82.7083C254.719 82.5102 254.672 82.4914 254.786 82.2934C254.899 82.0954 254.928 82.1142 255.004 81.8974C255.089 81.6805 255.06 81.6428 255.231 81.4919L255.222 81.4353Z"
          fill="#FFE357"/>
    <g filter="url(#filter0_i_2205_18813)">
        <g clip-path="url(#clip0_2205_18813)">
            <rect x="64" y="23" width="140" height="140" rx="70" fill="#1B76FF"/>
            <path d="M172.917 83.1637C175.311 80.0236 177.517 76.587 179.47 72.854C181.632 68.7257 183.342 64.5315 184.6 60.3812C185.251 58.1963 185.24 55.9235 184.644 53.8045C183.364 49.2589 178.576 46.7776 174.109 48.3367C172.035 49.0613 170.148 50.3569 168.725 52.1466C166.033 55.5502 163.551 59.3382 161.389 63.4665C158.874 68.2645 156.987 73.1504 155.697 77.9375C153.876 77.7398 152.023 77.6191 150.137 77.6191C146.375 77.6191 142.723 78.0473 139.204 78.8378C140.208 72.6893 140.451 66.0576 139.811 59.1844C139.337 54.057 138.399 49.1491 137.064 44.5377C136.358 42.1222 134.979 40.0142 133.159 38.4002C129.232 34.9416 123.296 35.4906 120.075 39.6079C118.586 41.5184 117.615 43.846 117.361 46.3494C116.909 51.1145 116.887 56.1102 117.361 61.2486C118.178 70.0761 120.384 78.2559 123.561 85.3157C116.755 89.6307 111.084 95.5706 107.08 102.576C106.407 102.663 105.723 102.707 105.028 102.707C103.792 102.707 102.579 102.565 101.432 102.29C101.023 102.202 100.593 102.136 100.152 102.136C97.1071 102.136 94.625 104.596 94.625 107.637C94.625 108.175 94.7243 108.691 94.8787 109.185L94.8567 109.207C97.758 117.09 99.8761 125.347 101.123 133.878L101.145 133.845C104.554 157.748 125.183 176.127 150.137 176.127C177.473 176.127 199.625 154.07 199.625 126.873C199.625 107.846 188.781 91.3545 172.917 83.1418V83.1637Z"
                  fill="white"/>
            <path d="M128.338 82.6708C130.335 81.6936 132.398 80.8591 134.538 80.1455C135.707 75.8525 136.17 70.9556 135.685 65.8062C135.431 63.0394 134.924 60.3933 134.207 57.9119C133.821 56.6053 133.081 55.4745 132.1 54.6071C129.982 52.7406 126.782 53.037 125.05 55.2549C124.245 56.2869 123.727 57.5386 123.583 58.8891C123.34 61.4583 123.329 64.1593 123.583 66.9261C124.135 72.888 125.867 78.3009 128.338 82.6708Z"
                  fill="#FFC2C2"/>
            <path d="M169.387 81.5068C171.141 79.2779 172.718 76.7417 174.053 73.9419C175.178 71.5703 176.05 69.1768 176.668 66.8272C176.988 65.5865 176.932 64.3019 176.557 63.127C175.741 60.6018 172.994 59.3062 170.512 60.2834C169.365 60.7335 168.328 61.5021 167.567 62.5342C166.121 64.4995 164.82 66.6844 163.694 69.056C162.161 72.284 161.124 75.5559 160.528 78.729C163.595 79.3768 166.563 80.31 169.398 81.5068H169.387Z"
                  fill="#FFC2C2"/>
            <path d="M132.163 116.437C133.839 116.437 135.197 115.085 135.197 113.418C135.197 111.75 133.839 110.398 132.163 110.398C130.488 110.398 129.129 111.75 129.129 113.418C129.129 115.085 130.488 116.437 132.163 116.437Z"
                  fill="#1B76FF"/>
            <path d="M163.096 116.437C164.771 116.437 166.129 115.085 166.129 113.418C166.129 111.75 164.771 110.398 163.096 110.398C161.42 110.398 160.062 111.75 160.062 113.418C160.062 115.085 161.42 116.437 163.096 116.437Z"
                  fill="#1B76FF"/>
            <path d="M147.573 118.293L149.239 118.326C151.082 118.359 152.218 120.149 151.346 121.268L150.563 122.268C150.563 122.268 150.541 122.29 150.53 122.3L150.199 122.674C148.809 124.255 146.338 124.255 144.948 122.674L144.617 122.3C144.617 122.3 144.595 122.279 144.584 122.268L143.801 121.268C142.929 120.138 144.065 118.359 145.908 118.326L147.573 118.293Z"
                  fill="#1B76FF"/>
        </g>
    </g>
    <defs>
        <filter id="filter0_i_2205_18813" x="64" y="23" width="143" height="140" filterUnits="userSpaceOnUse"
                color-interpolation-filters="sRGB">
            <feFlood flood-opacity="0" result="BackgroundImageFix"/>
            <feBlend in="SourceGraphic" in2="BackgroundImageFix" result="shape"/>
            <feColorMatrix in="SourceAlpha" values="0 0 0 0 0 0 0 0 0 0 0 0 0 0 0 0 0 0 127 0"
                           result="hardAlpha"/>
            <feOffset dx="3"/>
            <feGaussianBlur stdDeviation="10"/>
            <feComposite in2="hardAlpha" operator="arithmetic" k2="-1" k3="1"/>
            <feColorMatrix values="0 0 0 0 0 0 0 0 0 0 0 0 0 0 0 0 0 0 0.03 0"/>
            <feBlend in2="shape" result="effect1_innerShadow_2205_18813"/>
        </filter>
        <clipPath id="clip0_2205_18813">
            <rect x="64" y="23" width="140" height="140" rx="70" fill="white"/>
        </clipPath>
    </defs>
</svg>
