<svg width="50" height="50" viewBox="0 0 50 50" fill="none" xmlns="http://www.w3.org/2000/svg">
<rect x="0.7" y="0.7" width="48.6" height="48.6" rx="7.3" fill="white"/>
<rect x="0.7" y="0.7" width="48.6" height="48.6" rx="7.3" stroke="#D0D5D8" stroke-width="1.4"/>
<path fill-rule="evenodd" clip-rule="evenodd" d="M16.4054 18.4654C17.3055 17.5655 18.5262 17.06 19.799 17.06C21.0718 17.06 22.2924 17.5655 23.1926 18.4654L24.599 19.8706L26.0054 18.4654C26.4482 18.0069 26.9778 17.6413 27.5634 17.3897C28.149 17.1381 28.7789 17.0057 29.4162 17.0002C30.0536 16.9946 30.6856 17.1161 31.2756 17.3574C31.8655 17.5988 32.4014 17.9552 32.8521 18.4059C33.3028 18.8566 33.6592 19.3925 33.9005 19.9824C34.1419 20.5723 34.2633 21.2044 34.2578 21.8417C34.2522 22.479 34.1198 23.1089 33.8683 23.6945C33.6167 24.2801 33.251 24.8098 32.7926 25.2526L24.599 33.4474L16.4054 25.2526C15.5055 24.3525 15 23.1318 15 21.859C15 20.5862 15.5055 19.3655 16.4054 18.4654V18.4654Z" stroke="#C1C8CC" stroke-width="1.4" stroke-linejoin="round"/>
</svg>
