<svg width="24" height="24" viewBox="0 0 24 24" fill="none" xmlns="http://www.w3.org/2000/svg">
<path fill-rule="evenodd" clip-rule="evenodd" d="M3.80577 5.46538C4.7059 4.56552 5.92658 4.06001 7.19936 4.06001C8.47215 4.06001 9.69283 4.56552 10.593 5.46538L11.9994 6.87058L13.4058 5.46538C13.8485 5.00693 14.3782 4.64126 14.9638 4.3897C15.5494 4.13813 16.1793 4.00572 16.8166 4.00018C17.454 3.99464 18.086 4.11609 18.6759 4.35744C19.2658 4.59879 19.8018 4.9552 20.2525 5.40589C20.7031 5.85657 21.0596 6.3925 21.3009 6.9824C21.5423 7.57231 21.6637 8.20437 21.6582 8.84171C21.6526 9.47905 21.5202 10.1089 21.2686 10.6945C21.0171 11.2801 20.6514 11.8098 20.193 12.2526L11.9994 20.4474L3.80577 12.2526C2.9059 11.3525 2.40039 10.1318 2.40039 8.85898C2.40039 7.5862 2.9059 6.36552 3.80577 5.46538Z" fill="#1B76FF"/>
</svg>
