<svg width="20" height="20" viewBox="0 0 20 20" fill="none" xmlns="http://www.w3.org/2000/svg">
<g clip-path="url(#clip0_285_4088)">
<path fill-rule="evenodd" clip-rule="evenodd" d="M10 20C15.5228 20 20 15.5228 20 10C20 4.47715 15.5228 0 10 0C4.47715 0 0 4.47715 0 10C0 15.5228 4.47715 20 10 20ZM14.488 8.5019C14.7651 8.23241 14.7714 7.78924 14.5019 7.51204C14.2324 7.23486 13.7892 7.22861 13.512 7.4981L8.85714 12.0237L6.48796 9.72033C6.21076 9.45084 5.76759 9.45708 5.4981 9.73427C5.22861 10.0115 5.23486 10.4546 5.51204 10.7241L8.36919 13.5019C8.64087 13.766 9.07341 13.766 9.3451 13.5019L14.488 8.5019Z" fill="#DEE1E3"/>
</g>
<defs>
<clipPath id="clip0_285_4088">
<rect width="20" height="20" fill="white"/>
</clipPath>
</defs>
</svg>
