<svg width="20" height="20" viewBox="0 0 20 20" fill="none" xmlns="http://www.w3.org/2000/svg">
<g clip-path="url(#clip0_10246_169022)">
<path d="M10 0C15.5228 0 20 4.47715 20 10C20 15.5228 15.5228 20 10 20C4.47715 20 0 15.5228 0 10C0 4.47715 4.47715 0 10 0ZM10 1.40039C5.25035 1.40039 1.40039 5.25035 1.40039 10C1.40039 14.7496 5.25035 18.5996 10 18.5996C14.7496 18.5996 18.5996 14.7496 18.5996 10C18.5996 5.25035 14.7496 1.40039 10 1.40039ZM13.5117 7.49805C13.7889 7.2286 14.2325 7.23467 14.502 7.51172C14.7714 7.78886 14.7653 8.23245 14.4883 8.50195L9.34473 13.502C9.07303 13.7659 8.64075 13.766 8.36914 13.502L5.51172 10.7236C5.23496 10.4541 5.22877 10.0114 5.49805 9.73438C5.76754 9.45718 6.21109 9.45121 6.48828 9.7207L8.85645 12.0234L13.5117 7.49805Z" fill="#C1C8CC"/>
</g>
<defs>
<clipPath id="clip0_10246_169022">
<rect width="20" height="20" fill="white"/>
</clipPath>
</defs>
</svg>
