<svg width="21" height="20" viewBox="0 0 21 20" fill="none" xmlns="http://www.w3.org/2000/svg">
<path d="M17.3615 13.0297C17.7711 12.1032 17.9986 11.0781 17.9986 10C17.9986 5.85786 14.641 2.5 10.4993 2.5C6.35755 2.5 3 5.85786 3 10C3 14.1421 6.35755 17.5 10.4993 17.5C11.8328 17.5 13.0849 17.1519 14.17 16.5417L18 17.4993L17.3615 13.0297Z" stroke="#C1C8CC" stroke-width="1.4" stroke-linecap="round" stroke-linejoin="round"/>
<path d="M7.5 10C7.5 10.5523 7.05228 11 6.5 11C5.94772 11 5.5 10.5523 5.5 10C5.5 9.44772 5.94772 9 6.5 9C7.05228 9 7.5 9.44772 7.5 10Z" fill="#C1C8CC"/>
<path d="M11.5 10C11.5 10.5523 11.0523 11 10.5 11C9.94772 11 9.5 10.5523 9.5 10C9.5 9.44772 9.94772 9 10.5 9C11.0523 9 11.5 9.44772 11.5 10Z" fill="#C1C8CC"/>
<path d="M15.5 10C15.5 10.5523 15.0523 11 14.5 11C13.9477 11 13.5 10.5523 13.5 10C13.5 9.44772 13.9477 9 14.5 9C15.0523 9 15.5 9.44772 15.5 10Z" fill="#C1C8CC"/>
</svg>
