<svg width="170" height="34" viewBox="0 0 170 34" fill="none" xmlns="http://www.w3.org/2000/svg">
<g clip-path="url(#clip0_496_39361)">
<path d="M46.3308 30.5437L44.7816 19.5246C44.2579 14.3242 39.8721 10.2656 34.5334 10.2656C28.8457 10.2656 24.2344 14.8769 24.2344 20.5647V23.1395C24.2344 28.8272 28.8457 33.4385 34.5334 33.4385C37.0718 33.4385 39.3993 32.5148 41.1958 30.9947L41.2322 31.2565C41.4286 32.6675 42.7305 33.6494 44.1415 33.4458C45.5526 33.2494 46.5345 31.9475 46.3308 30.5364V30.5437ZM39.683 20.572V23.1467C39.683 25.9906 37.3773 28.2963 34.5334 28.2963C31.6896 28.2963 29.3839 25.9906 29.3839 23.1467V20.572C29.3839 17.7281 31.6896 15.4224 34.5334 15.4224C37.1155 15.4224 39.2538 17.328 39.6175 19.8083C39.6175 19.8083 39.6175 19.8228 39.6175 19.8301L39.6539 20.0919C39.6684 20.2519 39.6757 20.4119 39.6757 20.572H39.683Z" fill="#1B76FF"/>
<path d="M105.085 30.5437L103.535 19.5246C103.012 14.3242 98.626 10.2656 93.2873 10.2656C87.5996 10.2656 82.9883 14.8769 82.9883 20.5647V23.1395C82.9883 28.8272 87.5996 33.4385 93.2873 33.4385C95.8257 33.4385 98.1532 32.5148 99.9497 30.9947L99.9861 31.2565C100.182 32.6675 101.484 33.6494 102.895 33.4458C104.306 33.2494 105.288 31.9475 105.085 30.5364V30.5437ZM98.4442 20.572V23.1467C98.4442 25.9906 96.1385 28.2963 93.2946 28.2963C90.4507 28.2963 88.1451 25.9906 88.1451 23.1467V20.572C88.1451 17.7281 90.4507 15.4224 93.2946 15.4224C95.8767 15.4224 98.015 17.328 98.3787 19.8083C98.3787 19.8083 98.3787 19.8228 98.3787 19.8301L98.4151 20.0919C98.4296 20.2519 98.4369 20.4119 98.4369 20.572H98.4442Z" fill="#1B76FF"/>
<path d="M18.0234 18.0267C16.5978 18.0267 15.4486 19.1832 15.4486 20.6015V23.1763C15.4486 26.0201 13.1429 28.3258 10.2991 28.3258C7.45518 28.3258 5.14953 26.0201 5.14953 23.1763V15.452H12.8738C14.2994 15.452 15.4486 14.2955 15.4486 12.8772C15.4486 11.4516 14.2921 10.3024 12.8738 10.3024H5.14953V5.15289C5.14953 3.72731 3.99307 2.57813 2.57477 2.57813C1.15646 2.57812 0 3.73459 0 5.15289V22.9726C0 28.7476 4.72768 33.5844 10.5027 33.4753C16.2778 33.3662 20.5981 28.7986 20.5981 23.1763V20.6015C20.5981 19.1759 19.4417 18.0267 18.0234 18.0267Z" fill="#1B76FF"/>
<path d="M167.426 18.0267C166 18.0267 164.851 19.1832 164.851 20.6015V23.1763C164.851 26.0201 162.545 28.3258 159.701 28.3258C156.858 28.3258 154.552 26.0201 154.552 23.1763V15.452H162.276C163.702 15.452 164.851 14.2955 164.851 12.8772C164.851 11.4516 163.694 10.3024 162.276 10.3024H154.552V5.15289C154.552 3.72731 153.395 2.57812 151.977 2.57812C150.552 2.57812 149.402 3.73459 149.402 5.15289V22.9726C149.402 28.7476 154.13 33.5844 159.905 33.4753C165.68 33.3662 170 28.7986 170 23.1763V20.6015C170 19.1759 168.844 18.0267 167.426 18.0267Z" fill="#1B76FF"/>
<path d="M55.1398 2.57477C55.1398 1.15276 53.987 0 52.565 0C51.143 0 49.9902 1.15276 49.9902 2.57477V30.8972C49.9902 32.3192 51.143 33.472 52.565 33.472C53.987 33.472 55.1398 32.3192 55.1398 30.8972V2.57477Z" fill="#1B76FF"/>
<path d="M79.3604 20.1814C79.1422 14.6827 74.6182 10.2969 69.0686 10.2969C63.519 10.2969 58.7695 14.9082 58.7695 20.5959V23.1707C58.7695 28.8585 63.3808 33.4698 69.0686 33.4698C72.378 33.4698 75.3237 31.906 77.2075 29.484C78.5167 27.7966 77.302 25.3309 75.1637 25.3309C74.3636 25.3309 73.6144 25.7164 73.1198 26.3419C72.1816 27.542 70.7196 28.313 69.0759 28.313C66.3847 28.313 64.1736 26.2473 63.9482 23.6071H75.9346C77.833 23.6071 79.3677 22.0724 79.3677 20.1741L79.3604 20.1814ZM63.9409 20.1814C64.1518 17.5339 66.3629 15.4464 69.0686 15.4464C71.7743 15.4464 73.9854 17.5339 74.1963 20.1814H63.9409Z" fill="#1B76FF"/>
<path d="M118.411 12.8935C116.782 12.9953 115.247 13.4826 113.901 14.2609V12.8716C113.901 11.4461 112.745 10.2969 111.327 10.2969C109.901 10.2969 108.752 11.4461 108.752 12.8716V30.895C108.752 32.3206 109.901 33.4698 111.327 33.4698C112.752 33.4698 113.901 32.3133 113.901 30.895V30.5095C113.901 30.5095 113.901 30.4441 113.901 30.415V23.3089C113.901 23.2653 113.901 23.2143 113.901 23.1707C113.901 20.3268 116.207 18.0212 119.051 18.0212C119.058 18.0212 119.073 18.0212 119.08 18.0212C120.477 18.0284 121.626 16.9447 121.626 15.5482V15.3446C121.626 13.9845 120.528 12.8862 119.175 12.8716C118.927 12.8716 118.673 12.8716 118.418 12.8935H118.411Z" fill="#1B76FF"/>
<path d="M145.852 20.5999C145.852 14.8176 141.081 10.1408 135.262 10.3009C130.003 10.4463 125.625 14.6431 125.276 19.8944C125.261 20.1344 125.254 20.3672 125.254 20.6072V30.899C125.254 32.3246 126.41 33.4738 127.829 33.4738C129.254 33.4738 130.403 32.3246 130.403 30.899V20.6072C130.403 17.7633 132.709 15.4577 135.553 15.4577C138.397 15.4577 140.702 17.7633 140.702 20.6072V30.9063C140.702 32.3318 141.859 33.481 143.277 33.481C144.703 33.481 145.852 32.3318 145.852 30.9063V20.6145V20.5999Z" fill="#1B76FF"/>
<path d="M95.6522 16.0085C95.8995 15.6812 96.125 15.3321 96.3214 14.9466C96.5468 14.5175 96.7214 14.0811 96.8523 13.6519C96.9178 13.4265 96.9178 13.1865 96.8523 12.9683C96.7214 12.4955 96.2268 12.2409 95.7613 12.4009C95.5431 12.4737 95.354 12.6119 95.2013 12.7937C94.9249 13.1501 94.663 13.5428 94.4448 13.972C94.183 14.4666 93.9939 14.9757 93.8557 15.4703C93.6739 15.4485 93.4848 15.4412 93.2957 15.4412C93.0047 15.4412 92.7138 15.4703 92.4301 15.5139C92.4228 15.5139 92.4156 15.5139 92.4083 15.5139C92.3283 15.5285 92.2483 15.543 92.1756 15.5576C92.1683 15.5576 92.161 15.5576 92.1465 15.5576C92.2483 14.9175 92.2774 14.2265 92.2119 13.5138C92.161 12.9828 92.0665 12.4664 91.9283 11.9936C91.8555 11.7391 91.7101 11.5209 91.521 11.3536C91.1136 10.9972 90.5027 11.0481 90.1681 11.4772C90.0154 11.6736 89.9135 11.9209 89.8845 12.1755C89.8408 12.67 89.8335 13.1937 89.8845 13.7247C89.9717 14.6411 90.1972 15.4921 90.5245 16.2267C90.4881 16.2485 90.4518 16.2776 90.4154 16.2994C89.8044 16.714 89.288 17.2523 88.9025 17.8778C88.9025 17.885 88.8953 17.8923 88.888 17.9069C88.8662 17.9432 88.8444 17.9796 88.8225 18.016C88.7498 18.0232 88.6843 18.0305 88.6116 18.0305C88.4807 18.0305 88.357 18.016 88.2407 17.9869C88.197 17.9796 88.1534 17.9723 88.1098 17.9723C87.797 17.9723 87.5352 18.2269 87.5352 18.5469C87.5352 18.6051 87.5424 18.656 87.5643 18.7069C87.8261 19.427 88.0297 20.1761 88.1607 20.9471V23.1291C88.1607 25.9657 90.459 28.2714 93.3029 28.2714C96.1468 28.2714 98.4452 25.973 98.4452 23.1291V20.5616C98.4452 18.5687 97.3105 16.8449 95.6522 15.994V16.0085Z" fill="white"/>
<path d="M91.0333 15.9662C91.237 15.8644 91.4552 15.7771 91.6734 15.7044C91.797 15.2607 91.8406 14.7516 91.7897 14.2134C91.7606 13.9224 91.7097 13.6533 91.637 13.3915C91.6006 13.2533 91.5206 13.1369 91.4188 13.0496C91.2006 12.8533 90.866 12.8896 90.6915 13.1151C90.6115 13.2242 90.5533 13.3551 90.5387 13.4933C90.5169 13.7624 90.5096 14.0388 90.5387 14.3297C90.5969 14.948 90.7715 15.5153 91.0333 15.9662Z" fill="#FFC2C2"/>
<path d="M95.2811 15.8463C95.463 15.6135 95.623 15.3517 95.7612 15.0607C95.8776 14.8135 95.9648 14.5662 96.0303 14.3189C96.0667 14.1879 96.0594 14.057 96.0157 13.9334C95.9285 13.6715 95.6448 13.5333 95.3902 13.6352C95.2739 13.6788 95.1648 13.7588 95.0848 13.8679C94.9393 14.0716 94.8011 14.297 94.6847 14.5443C94.5247 14.8789 94.4156 15.2208 94.3574 15.5481C94.6774 15.6135 94.9829 15.7153 95.2739 15.839L95.2811 15.8463Z" fill="#FFC2C2"/>
<path d="M91.5432 19.4771C91.716 19.4771 91.856 19.337 91.856 19.1643C91.856 18.9916 91.716 18.8516 91.5432 18.8516C91.3705 18.8516 91.2305 18.9916 91.2305 19.1643C91.2305 19.337 91.3705 19.4771 91.5432 19.4771Z" fill="#1B76FF"/>
<path d="M94.7444 19.4771C94.9171 19.4771 95.0571 19.337 95.0571 19.1643C95.0571 18.9916 94.9171 18.8516 94.7444 18.8516C94.5717 18.8516 94.4316 18.9916 94.4316 19.1643C94.4316 19.337 94.5717 19.4771 94.7444 19.4771Z" fill="#1B76FF"/>
<path d="M93.1357 19.6719H93.3102C93.4994 19.6719 93.6157 19.8683 93.5284 19.9846L93.4484 20.0865L93.4121 20.1228C93.2666 20.2901 93.012 20.2901 92.8666 20.1228L92.8302 20.0865L92.7502 19.9846C92.6629 19.8683 92.7793 19.6791 92.9684 19.6791H93.143L93.1357 19.6719Z" fill="#1B76FF"/>
<path d="M32.1699 16.0085C31.9226 15.6812 31.6972 15.3321 31.5008 14.9466C31.2753 14.5175 31.1007 14.0811 30.9698 13.6519C30.9044 13.4265 30.9044 13.1865 30.9698 12.9683C31.1007 12.4955 31.5953 12.2409 32.0608 12.4009C32.279 12.4737 32.4681 12.6119 32.6209 12.7937C32.8973 13.1501 33.1591 13.5428 33.3773 13.972C33.6391 14.4666 33.8282 14.9757 33.9664 15.4703C34.1483 15.4485 34.3374 15.4412 34.5265 15.4412C34.8174 15.4412 35.1084 15.4703 35.392 15.5139C35.3993 15.5139 35.4066 15.5139 35.4138 15.5139C35.4938 15.5285 35.5738 15.543 35.6466 15.5576C35.6539 15.5576 35.6611 15.5576 35.6757 15.5576C35.5738 14.9175 35.5448 14.2265 35.6102 13.5138C35.6611 12.9828 35.7557 12.4664 35.8939 11.9936C35.9666 11.7391 36.1121 11.5209 36.3012 11.3536C36.7085 10.9972 37.3195 11.0481 37.654 11.4772C37.8068 11.6736 37.9086 11.9209 37.9377 12.1755C37.9813 12.67 37.9886 13.1937 37.9377 13.7247C37.8504 14.6411 37.6249 15.4921 37.2976 16.2267C37.334 16.2485 37.3704 16.2776 37.4067 16.2994C38.0177 16.714 38.5341 17.2523 38.9196 17.8778C38.9196 17.885 38.9269 17.8923 38.9341 17.9069C38.956 17.9432 38.9778 17.9796 38.9996 18.016C39.0723 18.0232 39.1378 18.0305 39.2105 18.0305C39.3414 18.0305 39.4651 18.016 39.5815 17.9869C39.6251 17.9796 39.6687 17.9723 39.7124 17.9723C40.0251 17.9723 40.287 18.2269 40.287 18.5469C40.287 18.6051 40.2797 18.656 40.2579 18.7069C39.996 19.427 39.7924 20.1761 39.6615 20.9471V23.1291C39.6615 25.9657 37.3631 28.2714 34.5192 28.2714C31.6753 28.2714 29.377 25.973 29.377 23.1291V20.5616C29.377 18.5687 30.5116 16.8449 32.1699 15.994V16.0085Z" fill="white"/>
<path d="M36.7949 15.9662C36.5912 15.8644 36.373 15.7771 36.1548 15.7044C36.0312 15.2607 35.9875 14.7516 36.0384 14.2134C36.0675 13.9224 36.1184 13.6533 36.1912 13.3915C36.2275 13.2533 36.3075 13.1369 36.4094 13.0496C36.6276 12.8533 36.9621 12.8896 37.1367 13.1151C37.2167 13.2242 37.2749 13.3551 37.2894 13.4933C37.3113 13.7624 37.3185 14.0388 37.2894 14.3297C37.2313 14.948 37.0567 15.5153 36.7949 15.9662Z" fill="#FFC2C2"/>
<path d="M32.54 15.8463C32.3582 15.6135 32.1982 15.3517 32.06 15.0607C31.9436 14.8135 31.8563 14.5662 31.7909 14.3189C31.7545 14.1879 31.7618 14.057 31.8054 13.9334C31.8927 13.6715 32.1764 13.5333 32.4309 13.6352C32.5473 13.6788 32.6564 13.7588 32.7364 13.8679C32.8819 14.0716 33.0201 14.297 33.1364 14.5443C33.2964 14.8789 33.4055 15.2208 33.4637 15.5481C33.1437 15.6135 32.8382 15.7153 32.5473 15.839L32.54 15.8463Z" fill="#FFC2C2"/>
<path d="M36.2854 19.4771C36.4581 19.4771 36.5982 19.337 36.5982 19.1643C36.5982 18.9916 36.4581 18.8516 36.2854 18.8516C36.1127 18.8516 35.9727 18.9916 35.9727 19.1643C35.9727 19.337 36.1127 19.4771 36.2854 19.4771Z" fill="#1B76FF"/>
<path d="M33.0784 19.4771C33.2511 19.4771 33.3911 19.337 33.3911 19.1643C33.3911 18.9916 33.2511 18.8516 33.0784 18.8516C32.9056 18.8516 32.7656 18.9916 32.7656 19.1643C32.7656 19.337 32.9056 19.4771 33.0784 19.4771Z" fill="#1B76FF"/>
<path d="M34.6859 19.6719H34.5114C34.3223 19.6719 34.2059 19.8683 34.2932 19.9846L34.3732 20.0865L34.4095 20.1228C34.555 20.2901 34.8096 20.2901 34.955 20.1228L34.9914 20.0865L35.0714 19.9846C35.1587 19.8683 35.0423 19.6791 34.8532 19.6791H34.6787L34.6859 19.6719Z" fill="#1B76FF"/>
</g>
<defs>
<clipPath id="clip0_496_39361">
<rect width="170" height="33.472" fill="white"/>
</clipPath>
</defs>
</svg>
