<svg width="21" height="20" viewBox="0 0 21 20" fill="none" xmlns="http://www.w3.org/2000/svg">
<path fill-rule="evenodd" clip-rule="evenodd" d="M3.12336 10.0907C3.12598 10.097 3.12867 10.1034 3.13144 10.1099C3.18954 10.2474 3.2805 10.4481 3.40856 10.6911C3.66523 11.1781 4.06765 11.8291 4.64808 12.4817C5.80254 13.7797 7.65724 15.0838 10.5102 15.1305C13.3506 15.1769 15.197 13.8798 16.3499 12.5604C16.9298 11.8967 17.3324 11.2281 17.5895 10.7254C17.7178 10.4747 17.809 10.2671 17.8673 10.1244C17.8715 10.1141 17.8755 10.1041 17.8794 10.0945C17.8754 10.084 17.8712 10.073 17.8667 10.0616C17.8102 9.91618 17.7214 9.70437 17.5959 9.44836C17.3442 8.93509 16.9482 8.25133 16.3723 7.56958C15.2276 6.2143 13.3795 4.86979 10.5007 4.86979C7.62181 4.86979 5.77373 6.2143 4.62901 7.56958C4.05318 8.25133 3.65711 8.93509 3.40544 9.44836C3.27992 9.70437 3.19119 9.91618 3.1346 10.0616C3.1307 10.0716 3.12695 10.0813 3.12336 10.0907ZM18.5007 10.0999C19.0573 9.92557 19.0573 9.92529 19.0572 9.92498L19.0569 9.92425L19.0563 9.9224L19.0547 9.9171L19.0492 9.90027C19.0446 9.88632 19.038 9.86698 19.0295 9.8426C19.0125 9.79385 18.9876 9.72488 18.954 9.63858C18.8869 9.4661 18.7851 9.22373 18.6434 8.93474C18.3606 8.35799 17.9154 7.58839 17.2636 6.81677C15.9532 5.26534 13.8013 3.70312 10.5007 3.70312C7.20005 3.70312 5.04813 5.26534 3.73772 6.81677C3.08599 7.58839 2.64071 8.35799 2.35792 8.93474C2.21622 9.22373 2.11444 9.4661 2.04733 9.63858C2.01376 9.72488 1.98879 9.79385 1.9718 9.8426C1.9633 9.86698 1.95679 9.88632 1.95218 9.90027L1.94669 9.9171L1.945 9.9224L1.94441 9.92425L1.94418 9.92498C1.94409 9.92529 1.944 9.92557 2.50067 10.0999L1.944 9.92557L1.88672 10.1085L1.94908 10.2897L2.50067 10.0999C1.94908 10.2897 1.94918 10.29 1.94929 10.2903L1.94954 10.291L1.95017 10.2928L1.95198 10.298L1.95778 10.3142C1.96262 10.3276 1.96945 10.3461 1.97832 10.3694C1.99606 10.416 2.02203 10.4818 2.0568 10.5641C2.12631 10.7286 2.23126 10.9595 2.37644 11.235C2.66624 11.7849 3.1196 12.5187 3.77634 13.2571C5.09624 14.7411 7.24154 16.2438 10.4911 16.297C13.7533 16.3503 15.9069 14.8405 17.2284 13.3281C17.8857 12.5758 18.3388 11.8223 18.6282 11.2568C18.7731 10.9734 18.8779 10.7354 18.9472 10.566C18.9818 10.4812 19.0077 10.4134 19.0253 10.3655C19.0342 10.3415 19.0409 10.3224 19.0457 10.3087L19.0515 10.2921L19.0532 10.2869L19.0538 10.2851L19.0541 10.2843C19.0542 10.284 19.0543 10.2837 18.5007 10.0999ZM18.5007 10.0999L19.0543 10.2837L19.1136 10.1052L19.0573 9.92557L18.5007 10.0999ZM3.05187 9.90897C3.05187 9.90896 3.05187 9.90895 3.05187 9.90896ZM10.5007 8.66225C9.70315 8.66225 9.084 9.28731 9.084 10.025C9.084 10.7628 9.70315 11.3878 10.5007 11.3878C11.2982 11.3878 11.9173 10.7628 11.9173 10.025C11.9173 9.28731 11.2982 8.66225 10.5007 8.66225ZM7.91734 10.025C7.91734 8.61315 9.08905 7.49558 10.5007 7.49558C11.9123 7.49558 13.084 8.61315 13.084 10.025C13.084 11.4369 11.9123 12.5545 10.5007 12.5545C9.08905 12.5545 7.91734 11.4369 7.91734 10.025Z" fill="#C1C8CC"/>
</svg>
