<svg width="24" height="24" viewBox="0 0 24 24" fill="none" xmlns="http://www.w3.org/2000/svg">
<path d="M14.4004 12.0269C14.4004 13.3167 13.3259 14.3623 12.0004 14.3623C10.6749 14.3623 9.60039 13.3167 9.60039 12.0269C9.60039 10.7372 10.6749 9.69158 12.0004 9.69158C13.3259 9.69158 14.4004 10.7372 14.4004 12.0269Z" stroke="#414A4E" stroke-width="1.2"/>
<path fill-rule="evenodd" clip-rule="evenodd" d="M3.03871 12.1058C3.04645 12.1246 3.05484 12.1448 3.06388 12.1662C3.13458 12.3335 3.24493 12.5768 3.40007 12.8712C3.71091 13.4611 4.19818 14.2494 4.90124 15.0398C6.30077 16.6133 8.55133 18.1953 12.0089 18.2519C15.4535 18.3082 17.6955 16.7335 19.0934 15.1336C19.7959 14.3296 20.2834 13.5199 20.5947 12.9114C20.7501 12.6077 20.8606 12.3559 20.9316 12.1825C20.9422 12.1564 20.952 12.1321 20.9609 12.1097C20.952 12.0861 20.9423 12.0605 20.9316 12.033C20.8627 11.8562 20.7552 11.5994 20.6031 11.2893C20.2985 10.668 19.819 9.84009 19.1215 9.01429C17.7336 7.37113 15.4899 5.73906 11.9991 5.73906C8.50829 5.73906 6.26455 7.37113 4.87668 9.01429C4.17918 9.84009 3.69968 10.668 3.39501 11.2893C3.24299 11.5994 3.1354 11.8562 3.06659 12.033C3.05646 12.059 3.04717 12.0833 3.03871 12.1058ZM21.5991 12.1152C22.1717 11.9359 22.1716 11.9356 22.1715 11.9353L22.1706 11.9324L22.1686 11.9264L22.1623 11.907C22.1569 11.8908 22.1493 11.8681 22.1393 11.8393C22.1193 11.7819 22.0897 11.7003 22.0499 11.5979C21.9703 11.3932 21.8492 11.105 21.6806 10.761C21.3439 10.0744 20.8138 9.1582 20.0382 8.23997C18.4799 6.39506 15.9237 4.53906 11.9991 4.53906C8.07447 4.53906 5.51821 6.39506 3.95993 8.23997C3.18435 9.1582 2.65424 10.0744 2.31756 10.761C2.1489 11.105 2.02789 11.3932 1.94826 11.5979C1.90842 11.7003 1.87888 11.7819 1.85885 11.8393C1.84884 11.8681 1.8412 11.8908 1.83584 11.907L1.82949 11.9264L1.82758 11.9324L1.82693 11.9345C1.82683 11.9348 1.82649 11.9359 2.39907 12.1152L1.82649 11.9359L1.76758 12.124L1.83172 12.3104L2.39907 12.1152C1.83172 12.3104 1.83161 12.3101 1.83172 12.3104L1.83221 12.3118L1.8329 12.3138L1.83494 12.3196L1.84163 12.3383C1.84726 12.3539 1.85526 12.3756 1.8657 12.403C1.88659 12.4579 1.9173 12.5357 1.95854 12.6333C2.04097 12.8284 2.16571 13.1029 2.33846 13.4307C2.68339 14.0852 3.22304 14.9586 4.00459 15.8373C5.5743 17.6022 8.12374 19.3885 11.9893 19.4517C15.8677 19.5151 18.4257 17.7216 19.9971 15.9232C20.7791 15.0281 21.3186 14.1311 21.663 13.4579C21.8356 13.1206 21.9601 12.8377 22.0423 12.6367C22.0834 12.5361 22.114 12.4558 22.1348 12.3993C22.1452 12.3711 22.1532 12.3487 22.1587 12.3328L22.1653 12.3136L22.1674 12.3077L22.168 12.3057C22.1681 12.3054 22.1685 12.3043 21.5991 12.1152ZM21.5991 12.1152L22.1685 12.3043L22.2295 12.1206L22.1715 11.9353L21.5991 12.1152ZM11.9991 10.29C10.9894 10.29 10.1991 11.0823 10.1991 12.0254C10.1991 12.9684 10.9894 13.7607 11.9991 13.7607C13.0087 13.7607 13.7991 12.9684 13.7991 12.0254C13.7991 11.0823 13.0087 10.29 11.9991 10.29ZM8.99907 12.0254C8.99907 10.3889 10.3578 9.09001 11.9991 9.09001C13.6404 9.09001 14.9991 10.3889 14.9991 12.0254C14.9991 13.6619 13.6404 14.9607 11.9991 14.9607C10.3578 14.9607 8.99907 13.6619 8.99907 12.0254Z" fill="#414A4E"/>
</svg>
