<svg width="24" height="24" viewBox="0 0 24 24" fill="none" xmlns="http://www.w3.org/2000/svg">
<path d="M20 19L5 4M9.8 9.94157C9.42658 10.3533 9.2 10.894 9.2 11.4863C9.2 12.7761 10.2745 13.8217 11.6 13.8217C12.2111 13.8217 12.7689 13.5994 13.1926 13.2334M20.0388 13.8217C20.865 12.5848 21.2 11.5761 21.2 11.5761C21.2 11.5761 19.0154 4.6 11.6 4.6C11.1837 4.6 10.7839 4.62199 10.4 4.66349M17 16.8494C15.6226 17.7281 13.8493 18.3495 11.6 18.3127C4.27692 18.193 2 11.5761 2 11.5761C2 11.5761 3.05786 8.19808 6.2 6.14332" stroke="#414A4E" stroke-width="1.2" stroke-linecap="round"/>
</svg>
