<svg width="14" height="14" viewBox="0 0 14 14" fill="none" xmlns="http://www.w3.org/2000/svg">
<path fill-rule="evenodd" clip-rule="evenodd" d="M7.60039 3.99844C7.60039 3.66707 7.33176 3.39844 7.00039 3.39844C6.66902 3.39844 6.40039 3.66707 6.40039 3.99844V6.99844C6.40039 7.32981 6.66902 7.59844 7.00039 7.59844C7.33176 7.59844 7.60039 7.32981 7.60039 6.99844V3.99844ZM7.60039 9.22207C7.60039 8.8907 7.33176 8.62207 7.00039 8.62207C6.66902 8.62207 6.40039 8.8907 6.40039 9.22207V9.24844C6.40039 9.57981 6.66902 9.84844 7.00039 9.84844C7.33176 9.84844 7.60039 9.57981 7.60039 9.24844V9.22207Z" fill="#FF2727"/>
<circle cx="7" cy="7" r="5.4" stroke="#FF2727" stroke-width="1.2"/>
</svg>
