<svg width="58" height="32" viewBox="0 0 58 32" fill="none" xmlns="http://www.w3.org/2000/svg">
<rect width="58" height="32" rx="8" fill="#FFF0F0"/>
<path d="M12.1562 9.54688V10.7656H18.6406V9.54688H20.125V14.1875H10.6875V9.54688H12.1562ZM9.01562 16.4062V15.2031H21.7812V16.4062H16.125V17.6094H20.1719V20.875H12.0156V22.0469H20.5625V23.1875H10.5625V19.8125H18.7031V18.7188H10.5469V17.6094H14.6406V16.4062H9.01562ZM12.1562 13.0625H18.6406V11.8594H12.1562V13.0625ZM26.4925 9.79688C28.6019 9.8125 30.1566 11.1016 30.1644 12.9375C30.1566 14.7812 28.6019 16.0625 26.4925 16.0625C24.3597 16.0625 22.8128 14.7812 22.805 12.9375C22.8128 11.1016 24.3597 9.8125 26.4925 9.79688ZM24.2581 12.9375C24.2503 14.0938 25.2034 14.8594 26.4925 14.8594C27.7738 14.8594 28.7269 14.0938 28.7269 12.9375C28.7269 11.7969 27.7738 11.0312 26.4925 11.0469C25.2034 11.0312 24.2503 11.7969 24.2581 12.9375ZM24.93 18.2812V17.0938H34.1331V20.625H26.4144V21.9688H34.6019V23.1562H24.9769V19.5156H32.6644V18.2812H24.93ZM32.6488 16.4531V9.32812H34.1331V16.4531H32.6488ZM47.6256 9.32812V23.3281H46.1413V9.32812H47.6256ZM36.235 19.5C38.3991 18.5312 39.8366 16.1719 39.8444 13.8281V12.9062H36.6569V11.7188H39.8288V9.60938H41.2975V11.7188H44.4381V12.9062H41.2975V13.8281C41.3053 16.0625 42.7741 18.3438 44.9538 19.2656L44.1413 20.4062C42.5241 19.7031 41.2428 18.2422 40.5944 16.4766C39.9616 18.3516 38.6881 19.9062 37.0631 20.6406L36.235 19.5Z" fill="#FF2727"/>
</svg>
