<svg width="72" height="32" viewBox="0 0 72 32" fill="none" xmlns="http://www.w3.org/2000/svg">
<rect width="72" height="32" rx="8" fill="#E5F0FF"/>
<path d="M13.875 12.8906C13.8594 15.3672 15.3047 17.9062 17.3906 18.9219L16.4688 20.1094C14.9453 19.3125 13.7656 17.75 13.1484 15.8828C12.5234 17.8672 11.2969 19.5469 9.70312 20.375L8.78125 19.1719C10.9297 18.1406 12.3828 15.4531 12.3906 12.8906V10.5H13.875V12.8906ZM18.4375 23.3281V9.32812H19.9219V14.9062H22.1719V16.1719H19.9219V23.3281H18.4375ZM35.2894 16.1562V17.3594H22.5238V16.1562H25.5863V14.2734C24.5003 13.8359 23.8909 13.1328 23.8988 12.2031C23.8909 10.5391 25.8206 9.57031 28.8988 9.57812C31.9691 9.57031 33.8909 10.5391 33.8988 12.2031C33.8909 13.1328 33.2816 13.8359 32.1956 14.2812V16.1562H35.2894ZM24.0394 20.7969C24.0394 19.1953 25.8519 18.3125 28.8988 18.3125C31.9066 18.3125 33.7191 19.1953 33.7269 20.7969C33.7191 22.4141 31.9066 23.2969 28.8988 23.2969C25.8519 23.2969 24.0394 22.4141 24.0394 20.7969ZM25.43 12.2031C25.4222 13.1406 26.7191 13.6641 28.8988 13.6719C31.0628 13.6641 32.3753 13.1406 32.3675 12.2031C32.3753 11.2656 31.0628 10.7266 28.8988 10.7188C26.7191 10.7266 25.4222 11.2656 25.43 12.2031ZM25.5394 20.7969C25.5316 21.6719 26.7581 22.1719 28.8988 22.1562C31.0081 22.1719 32.2425 21.6719 32.2425 20.7969C32.2425 19.9375 31.0081 19.4531 28.8988 19.4531C26.7581 19.4531 25.5316 19.9375 25.5394 20.7969ZM27.0863 16.1562H30.7269V14.6641C30.18 14.75 29.5628 14.7969 28.8988 14.7969C28.2425 14.7969 27.6331 14.75 27.0863 14.6719V16.1562ZM46.9381 9.32812V14.9062H49.11V16.1406H46.9381V23.3125H45.4538V9.32812H46.9381ZM36.0475 19.5781C39.5553 17.8281 41.4616 15.2969 41.7663 12.0312H36.7506V10.7969H43.2819C43.2663 14.8438 41.485 18.4609 36.8756 20.7344L36.0475 19.5781ZM60.8525 13.1094V14.3125H51.2431V9.57812H52.7119V13.1094H60.8525ZM49.54 17.0156V15.7969H62.3213V17.0156H49.54ZM51.0556 20.7031C51.0556 19.0703 52.8759 18.1484 55.915 18.1562C58.9306 18.1484 60.7353 19.0703 60.7431 20.7031C60.7353 22.3438 58.9306 23.2656 55.915 23.2656C52.8759 23.2656 51.0556 22.3438 51.0556 20.7031ZM52.5556 20.7031C52.5478 21.6016 53.7744 22.1172 55.915 22.125C58.0244 22.1172 59.2588 21.6016 59.2588 20.7031C59.2588 19.7969 58.0244 19.3203 55.915 19.3125C53.7744 19.3203 52.5478 19.7969 52.5556 20.7031Z" fill="#1B76FF"/>
</svg>
