<svg width="44" height="32" viewBox="0 0 44 32" fill="none" xmlns="http://www.w3.org/2000/svg">
<rect width="44" height="32" rx="8" fill="#E5F0FF"/>
<path d="M12.4844 9.79688C14.5938 9.8125 16.1484 11.1016 16.1562 12.9375C16.1484 14.7812 14.5938 16.0625 12.4844 16.0625C10.3516 16.0625 8.80469 14.7812 8.79688 12.9375C8.80469 11.1016 10.3516 9.8125 12.4844 9.79688ZM10.25 12.9375C10.2422 14.0938 11.1953 14.8594 12.4844 14.8594C13.7656 14.8594 14.7188 14.0938 14.7188 12.9375C14.7188 11.7969 13.7656 11.0312 12.4844 11.0469C11.1953 11.0312 10.2422 11.7969 10.25 12.9375ZM10.9219 18.2812V17.0938H20.125V20.625H12.4062V21.9688H20.5938V23.1562H10.9688V19.5156H18.6562V18.2812H10.9219ZM18.6406 16.4531V9.32812H20.125V16.4531H18.6406ZM33.6175 9.32812V23.3281H32.1331V9.32812H33.6175ZM22.2269 19.5C24.3909 18.5312 25.8284 16.1719 25.8363 13.8281V12.9062H22.6488V11.7188H25.8206V9.60938H27.2894V11.7188H30.43V12.9062H27.2894V13.8281C27.2972 16.0625 28.7659 18.3438 30.9456 19.2656L30.1331 20.4062C28.5159 19.7031 27.2347 18.2422 26.5863 16.4766C25.9534 18.3516 24.68 19.9062 23.055 20.6406L22.2269 19.5Z" fill="#1B76FF"/>
</svg>
