<svg width="72" height="32" viewBox="0 0 72 32" fill="none" xmlns="http://www.w3.org/2000/svg">
<rect width="72" height="32" rx="8" fill="#ECEEEF"/>
<path d="M20.0312 9.34375V13.5H22.0312V14.7188H20.0312V18.7656H18.5469V9.34375H20.0312ZM8.92188 17.2031C10.0078 17.2031 11.2656 17.2031 12.5781 17.1719V16.2266C10.9844 16.0469 9.96875 15.2969 9.98438 14.1719C9.96875 12.8906 11.3047 12.0938 13.3125 12.1094C15.3203 12.0938 16.6328 12.8906 16.6406 14.1719C16.6328 15.2891 15.6406 16.0391 14.0625 16.2266V17.1172C15.3125 17.0547 16.5781 16.9531 17.75 16.7812L17.875 17.8438C14.8672 18.3672 11.5469 18.3906 9.07812 18.3906L8.92188 17.2031ZM9.28125 11.6406V10.5312H12.5781V9.21875H14.0625V10.5312H17.3594V11.6406H9.28125ZM10.6719 20.5781V19.4219H20.0312V23.3281H18.5469V20.5781H10.6719ZM11.3906 14.1719C11.3906 14.8281 12.1172 15.2578 13.3125 15.25C14.4922 15.2578 15.2266 14.8281 15.2188 14.1719C15.2266 13.5 14.4922 13.1094 13.3125 13.125C12.1172 13.1094 11.3906 13.5 11.3906 14.1719ZM34.1331 9.34375V19.5156H32.6488V9.34375H34.1331ZM22.805 13.75C22.8128 11.7266 24.4222 10.2891 26.5394 10.2812C28.6488 10.2891 30.2581 11.7266 30.2581 13.75C30.2581 15.8047 28.6488 17.2344 26.5394 17.2344C24.4222 17.2344 22.8128 15.8047 22.805 13.75ZM24.2581 13.75C24.2503 15.0703 25.2347 15.9375 26.5394 15.9375C27.8206 15.9375 28.805 15.0703 28.805 13.75C28.805 12.4609 27.8206 11.5781 26.5394 11.5781C25.2347 11.5781 24.2503 12.4609 24.2581 13.75ZM24.9769 23.0312V18.4844H26.4769V21.8281H34.555V23.0312H24.9769ZM40.2819 9.95312C42.3288 9.95312 43.7663 11.0781 43.7819 12.75C43.7663 14.1719 42.6881 15.2109 41.0631 15.4688V16.7188C42.2975 16.6484 43.5475 16.5312 44.7038 16.3594L44.8131 17.4531C41.8756 17.9844 38.5788 18.0391 36.1725 18.0312L36.0163 16.8281C37.0631 16.8359 38.2897 16.8281 39.5788 16.7812V15.4844C37.9069 15.25 36.7897 14.1953 36.7975 12.75C36.7897 11.0781 38.2272 9.95312 40.2819 9.95312ZM38.0006 23.0312V19.1094H39.485V21.8125H47.5475V23.0312H38.0006ZM38.1881 12.75C38.1725 13.7422 39.0475 14.3906 40.2819 14.3906C41.5241 14.3906 42.3756 13.7422 42.3756 12.75C42.3756 11.7344 41.5241 11.0938 40.2819 11.0938C39.0475 11.0938 38.1725 11.7344 38.1881 12.75ZM45.5631 20.0469V9.34375H47.0475V13.9688H49.0475V15.2188H47.0475V20.0469H45.5631ZM62.3525 20.4062V21.6562H49.54V20.4062H53.04V17.9375H51.1025V13.4844H59.3213V11.5312H51.0713V10.3125H60.79V14.6875H52.5713V16.7188H61.1181V17.9375H58.9931V20.4062H62.3525ZM54.4775 20.4062H57.54V17.9375H54.4775V20.4062Z" fill="#98A3A9"/>
</svg>
