<svg width="72" height="32" viewBox="0 0 72 32" fill="none" xmlns="http://www.w3.org/2000/svg">
<rect width="72" height="32" rx="8" fill="#FFF0F0"/>
<path d="M13.875 12.8906C13.8594 15.3672 15.3047 17.9062 17.3906 18.9219L16.4688 20.1094C14.9453 19.3125 13.7656 17.75 13.1484 15.8828C12.5234 17.8672 11.2969 19.5469 9.70312 20.375L8.78125 19.1719C10.9297 18.1406 12.3828 15.4531 12.3906 12.8906V10.5H13.875V12.8906ZM18.4375 23.3281V9.32812H19.9219V14.9062H22.1719V16.1719H19.9219V23.3281H18.4375ZM35.2894 16.1562V17.3594H22.5238V16.1562H25.5863V14.2734C24.5003 13.8359 23.8909 13.1328 23.8988 12.2031C23.8909 10.5391 25.8206 9.57031 28.8988 9.57812C31.9691 9.57031 33.8909 10.5391 33.8988 12.2031C33.8909 13.1328 33.2816 13.8359 32.1956 14.2812V16.1562H35.2894ZM24.0394 20.7969C24.0394 19.1953 25.8519 18.3125 28.8988 18.3125C31.9066 18.3125 33.7191 19.1953 33.7269 20.7969C33.7191 22.4141 31.9066 23.2969 28.8988 23.2969C25.8519 23.2969 24.0394 22.4141 24.0394 20.7969ZM25.43 12.2031C25.4222 13.1406 26.7191 13.6641 28.8988 13.6719C31.0628 13.6641 32.3753 13.1406 32.3675 12.2031C32.3753 11.2656 31.0628 10.7266 28.8988 10.7188C26.7191 10.7266 25.4222 11.2656 25.43 12.2031ZM25.5394 20.7969C25.5316 21.6719 26.7581 22.1719 28.8988 22.1562C31.0081 22.1719 32.2425 21.6719 32.2425 20.7969C32.2425 19.9375 31.0081 19.4531 28.8988 19.4531C26.7581 19.4531 25.5316 19.9375 25.5394 20.7969ZM27.0863 16.1562H30.7269V14.6641C30.18 14.75 29.5628 14.7969 28.8988 14.7969C28.2425 14.7969 27.6331 14.75 27.0863 14.6719V16.1562ZM39.1725 9.54688V10.7656H45.6569V9.54688H47.1413V14.1875H37.7038V9.54688H39.1725ZM36.0319 16.4062V15.2031H48.7975V16.4062H43.1413V17.6094H47.1881V20.875H39.0319V22.0469H47.5788V23.1875H37.5788V19.8125H45.7194V18.7188H37.5631V17.6094H41.6569V16.4062H36.0319ZM39.1725 13.0625H45.6569V11.8594H39.1725V13.0625ZM60.4463 9.32812V14.9062H62.6181V16.1406H60.4463V23.3125H58.9619V9.32812H60.4463ZM49.5556 19.5781C53.0634 17.8281 54.9697 15.2969 55.2744 12.0312H50.2588V10.7969H56.79C56.7744 14.8438 54.9931 18.4609 50.3838 20.7344L49.5556 19.5781Z" fill="#FF2727"/>
</svg>
