<svg width="18" height="18" viewBox="0 0 18 18" fill="none" xmlns="http://www.w3.org/2000/svg">
<g clip-path="url(#clip0_2079_18372)">
<path fill-rule="evenodd" clip-rule="evenodd" d="M9 16.5C13.1421 16.5 16.5 13.1421 16.5 9C16.5 4.85786 13.1421 1.5 9 1.5C4.85786 1.5 1.5 4.85786 1.5 9C1.5 13.1421 4.85786 16.5 9 16.5ZM12.488 8.0019C12.7651 7.73241 12.7714 7.28924 12.5019 7.01204C12.2324 6.73486 11.7892 6.72861 11.512 6.9981L8.14286 10.2737L6.48796 8.66477C6.21076 8.39528 5.76759 8.40152 5.4981 8.67871C5.22861 8.9559 5.23486 9.39907 5.51204 9.66856L7.6549 11.7519C7.92659 12.016 8.35913 12.016 8.63081 11.7519L12.488 8.0019Z" fill="white"/>
<path d="M6 9.16667L8.14286 11.25L12 7.5" stroke="#414A4E" stroke-width="1.4" stroke-linecap="round" stroke-linejoin="round"/>
</g>
<defs>
<clipPath id="clip0_2079_18372">
<rect width="15" height="15" fill="white" transform="translate(1.5 1.5)"/>
</clipPath>
</defs>
</svg>
