<svg width="24" height="24" viewBox="0 0 24 24" fill="none" xmlns="http://www.w3.org/2000/svg">
<path fill-rule="evenodd" clip-rule="evenodd" d="M1.39844 17.875L1.41797 19.1641H10.5977V17.6016H3.85938V17.4844L7.10156 14.1445C9.60156 11.5664 10.3438 10.3359 10.3438 8.75391C10.3438 6.54688 8.50781 4.82812 5.94922 4.82812C3.39062 4.82812 1.45703 6.50781 1.47656 9.00781H3.13672C3.13672 7.42578 4.21094 6.35156 5.89062 6.35156C7.47266 6.35156 8.70312 7.30859 8.70312 8.75391C8.70312 10.0625 7.90234 11.0195 6.22266 12.7969L1.39844 17.875ZM12.0938 14.8359V16.2812H18.9492V19.1719H20.6289V16.2812H22.6016V14.7383H20.6289V5.03125H18.4609L12.0938 14.8359ZM18.9492 14.7383H13.9883V14.6211L18.7734 7.25781H18.9492V14.7383Z" fill="#C1C8CC"/>
</svg>
