<svg width="24" height="24" viewBox="0 0 24 24" fill="none" xmlns="http://www.w3.org/2000/svg">
<path fill-rule="evenodd" clip-rule="evenodd" d="M11.1545 15.3203C11.135 17.625 13.2053 19.2656 16.1741 19.2656C19.1233 19.2656 21.1936 17.625 21.2131 15.3203C21.1936 13.4844 19.924 11.9805 18.3225 11.7266V11.6484C19.7092 11.3164 20.6467 10.0273 20.6662 8.48438C20.6467 6.31641 18.7522 4.73438 16.1741 4.73438C13.5959 4.73438 11.7014 6.31641 11.7014 8.48438C11.7014 10.0273 12.6194 11.3164 14.0256 11.6484V11.7266C12.4045 11.9805 11.135 13.4844 11.1545 15.3203ZM19.4553 15.2227C19.4553 16.707 18.2053 17.7227 16.1741 17.7227C14.1428 17.7227 12.8733 16.707 12.9123 15.2227C12.8733 13.6602 14.2795 12.5078 16.1741 12.5078C18.0686 12.5078 19.4553 13.6602 19.4553 15.2227ZM18.9475 8.62109C18.9475 10.0469 17.7756 11.0234 16.1741 11.0234C14.553 11.0234 13.4006 10.0469 13.4006 8.62109C13.4006 7.21484 14.4944 6.25781 16.1741 6.25781C17.8342 6.25781 18.9475 7.21484 18.9475 8.62109ZM8.07812 19.0703V4.92969H6.30078L2.78516 7.27344V9.05078L6.22266 6.76562H6.30078V19.0703H8.07812Z" fill="#C1C8CC"/>
</svg>
