<svg width="24" height="24" viewBox="0 0 24 24" fill="none" xmlns="http://www.w3.org/2000/svg">
<path fill-rule="evenodd" clip-rule="evenodd" d="M1.53516 17.7812L1.55469 19.0703H10.7344V17.5078H3.99609V17.3906L7.23828 14.0508C9.73828 11.4727 10.4805 10.2422 10.4805 8.66016C10.4805 6.45312 8.64453 4.73438 6.08594 4.73438C3.52734 4.73438 1.59375 6.41406 1.61328 8.91406H3.27344C3.27344 7.33203 4.34766 6.25781 6.02734 6.25781C7.60938 6.25781 8.83984 7.21484 8.83984 8.66016C8.83984 9.96875 8.03906 10.9258 6.35938 12.7031L1.53516 17.7812ZM12.582 12C12.582 16.6289 14.3789 19.2656 17.5234 19.2656C20.6484 19.2656 22.4648 16.6289 22.4648 12C22.4648 7.41016 20.6289 4.73438 17.5234 4.73438C14.418 4.73438 12.582 7.41016 12.582 12ZM20.7461 12C20.7461 15.6523 19.5547 17.7031 17.5234 17.7031C15.4727 17.7031 14.2812 15.6523 14.2812 12C14.2812 8.34766 15.4922 6.25781 17.5234 6.25781C19.5547 6.25781 20.7461 8.34766 20.7461 12Z" fill="#C1C8CC"/>
</svg>
