<svg width="24" height="24" viewBox="0 0 24 24" fill="none" xmlns="http://www.w3.org/2000/svg">
<path fill-rule="evenodd" clip-rule="evenodd" d="M11.0932 12.6016C11.0932 18.3594 14.058 19.9492 16.7651 19.9922C20.0307 20.0137 22.1791 17.6719 22.1791 14.75C22.1791 11.7422 19.8803 9.59375 17.1088 9.59375C15.433 9.59375 14.0151 10.3672 13.1127 11.6562H12.9194C12.9194 7.91797 14.4448 5.72656 17.0014 5.72656C18.7416 5.72656 19.7729 6.75781 20.1381 8.13281H22.0502C21.642 5.68359 19.7299 4.00781 17.0014 4.00781C13.3491 4.00781 11.0932 7.10156 11.0932 12.6016ZM20.31 14.7715C20.2885 16.7051 18.7846 18.2949 16.7651 18.2949C14.6811 18.2949 13.1772 16.6191 13.1772 14.793C13.1987 12.9453 14.767 11.291 16.808 11.291C18.8491 11.291 20.2885 12.8594 20.31 14.7715ZM7.64453 19.7773V4.22266H5.68945L1.82227 6.80078V8.75586L5.60352 6.24219H5.68945V19.7773H7.64453Z" fill="#C1C8CC"/>
</svg>
