<svg width="24" height="24" viewBox="0 0 24 24" fill="none" xmlns="http://www.w3.org/2000/svg">
<path fill-rule="evenodd" clip-rule="evenodd" d="M1.73047 17.875L1.75 19.1641H10.9297V17.6016H4.19141V17.4844L7.43359 14.1445C9.93359 11.5664 10.6758 10.3359 10.6758 8.75391C10.6758 6.54688 8.83984 4.82812 6.28125 4.82812C3.72266 4.82812 1.78906 6.50781 1.80859 9.00781H3.46875C3.46875 7.42578 4.54297 6.35156 6.22266 6.35156C7.80469 6.35156 9.03516 7.30859 9.03516 8.75391C9.03516 10.0625 8.23438 11.0195 6.55469 12.7969L1.73047 17.875ZM13.0703 17.875L13.0898 19.1641H22.2695V17.6016H15.5312V17.4844L18.7734 14.1445C21.2734 11.5664 22.0156 10.3359 22.0156 8.75391C22.0156 6.54688 20.1797 4.82812 17.6211 4.82812C15.0625 4.82812 13.1289 6.50781 13.1484 9.00781H14.8086C14.8086 7.42578 15.8828 6.35156 17.5625 6.35156C19.1445 6.35156 20.375 7.30859 20.375 8.75391C20.375 10.0625 19.5742 11.0195 17.8945 12.7969L13.0703 17.875Z" fill="#C1C8CC"/>
</svg>
