<svg width="24" height="24" viewBox="0 0 24 24" fill="none" xmlns="http://www.w3.org/2000/svg">
<path fill-rule="evenodd" clip-rule="evenodd" d="M11.0717 15.6523C11.0502 18.1875 13.3276 19.9922 16.5932 19.9922C19.8373 19.9922 22.1147 18.1875 22.1362 15.6523C22.1147 13.6328 20.7182 11.9785 18.9565 11.6992V11.6133C20.4819 11.248 21.5131 9.83008 21.5346 8.13281C21.5131 5.74805 19.4291 4.00781 16.5932 4.00781C13.7573 4.00781 11.6733 5.74805 11.6733 8.13281C11.6733 9.83008 12.683 11.248 14.2299 11.6133V11.6992C12.4467 11.9785 11.0502 13.6328 11.0717 15.6523ZM20.2026 15.5449C20.2026 17.1777 18.8276 18.2949 16.5932 18.2949C14.3588 18.2949 12.9623 17.1777 13.0053 15.5449C12.9623 13.8262 14.5092 12.5586 16.5932 12.5586C18.6772 12.5586 20.2026 13.8262 20.2026 15.5449ZM19.644 8.2832C19.644 9.85156 18.3549 10.9258 16.5932 10.9258C14.81 10.9258 13.5424 9.85156 13.5424 8.2832C13.5424 6.73633 14.7455 5.68359 16.5932 5.68359C18.4194 5.68359 19.644 6.73633 19.644 8.2832ZM7.6875 19.7773V4.22266H5.73242L1.86523 6.80078V8.75586L5.64648 6.24219H5.73242V19.7773H7.6875Z" fill="#C1C8CC"/>
</svg>
