<svg width="24" height="24" viewBox="0 0 24 24" fill="none" xmlns="http://www.w3.org/2000/svg">
<path fill-rule="evenodd" clip-rule="evenodd" d="M1.14468 17.6016V19.1641H10.6564V17.3281H4.13296V17.2109L7.00405 14.3008C9.6603 11.6836 10.4025 10.4336 10.422 8.85156C10.4025 6.54688 8.52749 4.82812 5.79311 4.82812C3.0978 4.82812 1.12514 6.54688 1.14468 9.125H3.17593C3.17593 7.62109 4.19155 6.625 5.75405 6.625C7.23842 6.625 8.37124 7.52344 8.37124 8.91016C8.37124 10.1406 7.58999 11.0391 6.04702 12.6602L1.14468 17.6016ZM12.0156 14.6797V16.418H18.8906V19.1719H20.9219V16.418H22.8555V14.6016H20.9219V5.03125H18.2656L12.0156 14.6797ZM18.8906 14.6016H14.2812V14.4844L18.7344 7.58984H18.8906V14.6016Z" fill="#414A4E"/>
</svg>
