<svg width="24" height="24" viewBox="0 0 24 24" fill="none" xmlns="http://www.w3.org/2000/svg">
<path fill-rule="evenodd" clip-rule="evenodd" d="M1.22266 15.5156C1.32031 17.7617 3.33203 19.2656 6.14453 19.2656C8.95703 19.2656 11.0859 17.5469 11.0664 15.2227C11.0859 13.4258 9.95312 12.1172 8.11719 11.8242V11.7266C9.60156 11.3164 10.5391 10.125 10.5195 8.52344C10.5391 6.49219 8.89844 4.73438 6.20312 4.73438C3.68359 4.73438 1.61328 6.23828 1.51562 8.48438H3.21484C3.29297 7.09766 4.67969 6.25781 6.18359 6.25781C7.78516 6.25781 8.82031 7.21484 8.82031 8.62109C8.82031 10.0859 7.62891 11.043 5.91016 11.043H4.75781V12.5859H5.91016C8.11719 12.5859 9.34766 13.6797 9.34766 15.2227C9.34766 16.6875 7.98047 17.7031 6.125 17.7031C4.44531 17.7031 3.09766 16.8633 3 15.5156H1.22266ZM12.8945 12C12.8945 16.6289 14.6914 19.2656 17.8359 19.2656C20.9609 19.2656 22.7773 16.6289 22.7773 12C22.7773 7.41016 20.9414 4.73438 17.8359 4.73438C14.7305 4.73438 12.8945 7.41016 12.8945 12ZM21.0586 12C21.0586 15.6523 19.8672 17.7031 17.8359 17.7031C15.7852 17.7031 14.5938 15.6523 14.5938 12C14.5938 8.34766 15.8047 6.25781 17.8359 6.25781C19.8672 6.25781 21.0586 8.34766 21.0586 12Z" fill="#C1C8CC"/>
</svg>
