<svg width="24" height="24" viewBox="0 0 24 24" fill="none" xmlns="http://www.w3.org/2000/svg">
<path fill-rule="evenodd" clip-rule="evenodd" d="M11.1758 12.5469C11.1758 17.7812 13.8711 19.2266 16.332 19.2656C19.3008 19.2852 21.2539 17.1562 21.2539 14.5C21.2539 11.7656 19.1641 9.8125 16.6445 9.8125C15.1211 9.8125 13.832 10.5156 13.0117 11.6875H12.8359C12.8359 8.28906 14.2227 6.29688 16.5469 6.29688C18.1289 6.29688 19.0664 7.23438 19.3984 8.48438H21.1367C20.7656 6.25781 19.0273 4.73438 16.5469 4.73438C13.2266 4.73438 11.1758 7.54688 11.1758 12.5469ZM19.5547 14.5195C19.5352 16.2773 18.168 17.7227 16.332 17.7227C14.4375 17.7227 13.0703 16.1992 13.0703 14.5391C13.0898 12.8594 14.5156 11.3555 16.3711 11.3555C18.2266 11.3555 19.5352 12.7812 19.5547 14.5195ZM8.03906 19.0703V4.92969H6.26172L2.74609 7.27344V9.05078L6.18359 6.76562H6.26172V19.0703H8.03906Z" fill="#C1C8CC"/>
</svg>
