<svg width="24" height="24" viewBox="0 0 24 24" fill="none" xmlns="http://www.w3.org/2000/svg">
<path fill-rule="evenodd" clip-rule="evenodd" d="M11.6544 17.6016V19.1641H21.1662V17.3281H14.6427V17.2109L17.5138 14.3008C20.1701 11.6836 20.9123 10.4336 20.9318 8.85156C20.9123 6.54688 19.0373 4.82812 16.3029 4.82812C13.6076 4.82812 11.6349 6.54688 11.6544 9.125H13.6857C13.6857 7.62109 14.7013 6.625 16.2638 6.625C17.7482 6.625 18.881 7.52344 18.881 8.91016C18.881 10.1406 18.0998 11.0391 16.5568 12.6602L11.6544 17.6016ZM8.45898 19.1719V5.03125H6.34961L2.83398 7.33594V9.38672L6.21289 7.17969H6.29102V19.1719H8.45898Z" fill="#414A4E"/>
</svg>
