<svg width="24" height="24" viewBox="0 0 24 24" fill="none" xmlns="http://www.w3.org/2000/svg">
<path fill-rule="evenodd" clip-rule="evenodd" d="M0.146484 15.8672C0.253906 18.3379 2.4668 19.9922 5.56055 19.9922C8.6543 19.9922 10.9961 18.1016 10.9746 15.5449C10.9961 13.5684 9.75 12.1289 7.73047 11.8066V11.6992C9.36328 11.248 10.3945 9.9375 10.373 8.17578C10.3945 5.94141 8.58984 4.00781 5.625 4.00781C2.85352 4.00781 0.576172 5.66211 0.46875 8.13281H2.33789C2.42383 6.60742 3.94922 5.68359 5.60352 5.68359C7.36523 5.68359 8.50391 6.73633 8.50391 8.2832C8.50391 9.89453 7.19336 10.9473 5.30273 10.9473H4.03516V12.6445H5.30273C7.73047 12.6445 9.08398 13.8477 9.08398 15.5449C9.08398 17.1562 7.58008 18.2734 5.53906 18.2734C3.69141 18.2734 2.20898 17.3496 2.10156 15.8672H0.146484ZM12.9838 12C12.9838 17.0918 14.9604 19.9922 18.4194 19.9922C21.8569 19.9922 23.8549 17.0918 23.8549 12C23.8549 6.95117 21.8354 4.00781 18.4194 4.00781C15.0034 4.00781 12.9838 6.95117 12.9838 12ZM21.9643 12C21.9643 16.0176 20.6538 18.2734 18.4194 18.2734C16.1635 18.2734 14.853 16.0176 14.853 12C14.853 7.98242 16.185 5.68359 18.4194 5.68359C20.6538 5.68359 21.9643 7.98242 21.9643 12Z" fill="#C1C8CC"/>
</svg>
