<svg width="24" height="24" viewBox="0 0 24 24" fill="none" xmlns="http://www.w3.org/2000/svg">
<path fill-rule="evenodd" clip-rule="evenodd" d="M0.861328 15.3789C0.939453 17.6836 3.0293 19.2656 5.95898 19.2656C8.88867 19.2656 11.0566 17.5469 11.0566 15.1836C11.0566 13.3867 9.94336 12.0977 8.00977 11.8242V11.7266C9.5332 11.3555 10.5293 10.1836 10.5098 8.58203C10.5293 6.49219 8.77148 4.73438 5.99805 4.73438C3.36133 4.73438 1.23242 6.29688 1.17383 8.60156H3.24414C3.30273 7.3125 4.55273 6.53125 5.97852 6.53125C7.48242 6.53125 8.43945 7.41016 8.43945 8.69922C8.43945 10.0469 7.30664 10.9453 5.70508 10.9453H4.49414V12.7031H5.70508C7.7168 12.7031 8.88867 13.7188 8.88867 15.1055C8.88867 16.4727 7.63867 17.4102 5.93945 17.4102C4.35742 17.4102 3.12695 16.6289 3.04883 15.3789H0.861328ZM12.748 12C12.748 16.6289 14.6621 19.2656 17.9434 19.2656C21.2051 19.2656 23.1387 16.6289 23.1387 12C23.1387 7.41016 21.1855 4.73438 17.9434 4.73438C14.7012 4.73438 12.748 7.41016 12.748 12ZM20.9902 12C20.9902 15.5352 19.8574 17.4102 17.9434 17.4102C16.0293 17.4102 14.8965 15.5352 14.8965 12C14.8965 8.48438 16.0488 6.55078 17.9434 6.55078C19.8379 6.55078 20.9902 8.48438 20.9902 12Z" fill="#414A4E"/>
</svg>
