<svg width="24" height="24" viewBox="0 0 24 24" fill="none" xmlns="http://www.w3.org/2000/svg">
<path fill-rule="evenodd" clip-rule="evenodd" d="M11.0862 15.3008C11.0666 17.6055 13.2151 19.2656 16.2815 19.2656C19.3088 19.2656 21.4572 17.6055 21.4768 15.3008C21.4572 13.4844 20.1487 12 18.508 11.7461V11.668C19.9338 11.3359 20.9104 10.0469 20.9299 8.50391C20.9104 6.33594 18.9572 4.73438 16.2815 4.73438C13.5862 4.73438 11.6135 6.33594 11.6135 8.50391C11.6135 10.0469 12.5901 11.3359 14.0354 11.668V11.7461C12.3752 12 11.0666 13.4844 11.0862 15.3008ZM19.2893 15.1445C19.2893 16.5312 18.1174 17.4883 16.2815 17.4883C14.4065 17.4883 13.2346 16.5312 13.2737 15.1445C13.2346 13.6797 14.5237 12.625 16.2815 12.625C18.0197 12.625 19.2893 13.6797 19.2893 15.1445ZM18.8205 8.69922C18.8205 10.0273 17.7658 10.9258 16.2815 10.9258C14.7776 10.9258 13.7033 10.0273 13.7033 8.69922C13.7033 7.37109 14.719 6.49219 16.2815 6.49219C17.7854 6.49219 18.8205 7.39062 18.8205 8.69922ZM8.14648 19.0703V4.92969H6.03711L2.52148 7.23438V9.28516L5.90039 7.07812H5.97852V19.0703H8.14648Z" fill="#414A4E"/>
</svg>
