<svg width="24" height="24" viewBox="0 0 24 24" fill="none" xmlns="http://www.w3.org/2000/svg">
<path fill-rule="evenodd" clip-rule="evenodd" d="M1.1935 17.5078V19.0703H10.7052V17.2344H4.18178V17.1172L7.05288 14.207C9.70913 11.5898 10.4513 10.3398 10.4708 8.75781C10.4513 6.45312 8.57632 4.73438 5.84194 4.73438C3.14663 4.73438 1.17397 6.45312 1.1935 9.03125H3.22475C3.22475 7.52734 4.24038 6.53125 5.80288 6.53125C7.28725 6.53125 8.42007 7.42969 8.42007 8.81641C8.42007 10.0469 7.63882 10.9453 6.09585 12.5664L1.1935 17.5078ZM12.416 12C12.416 16.6289 14.3301 19.2656 17.6113 19.2656C20.873 19.2656 22.8066 16.6289 22.8066 12C22.8066 7.41016 20.8535 4.73438 17.6113 4.73438C14.3691 4.73438 12.416 7.41016 12.416 12ZM20.6582 12C20.6582 15.5352 19.5254 17.4102 17.6113 17.4102C15.6973 17.4102 14.5645 15.5352 14.5645 12C14.5645 8.48438 15.7168 6.55078 17.6113 6.55078C19.5059 6.55078 20.6582 8.48438 20.6582 12Z" fill="#414A4E"/>
</svg>
