<svg width="24" height="24" viewBox="0 0 24 24" fill="none" xmlns="http://www.w3.org/2000/svg">
<path fill-rule="evenodd" clip-rule="evenodd" d="M11.0879 12.4688C11.0879 17.7031 13.8223 19.2461 16.4395 19.2656C19.4863 19.2852 21.498 17.1758 21.498 14.4414C21.498 11.7266 19.4668 9.79297 16.9473 9.79297C15.4043 9.79297 14.0762 10.5156 13.3145 11.707H13.1582C13.1582 8.52344 14.4277 6.60938 16.6152 6.60938C18.041 6.60938 18.959 7.44922 19.2324 8.60156H21.3613C21.0293 6.35547 19.2129 4.73438 16.6152 4.73438C13.2168 4.73438 11.0879 7.54688 11.0879 12.4688ZM19.4082 14.4805C19.4082 16.1406 18.1387 17.4688 16.4199 17.4688C14.6816 17.4688 13.4316 16.0625 13.4121 14.5C13.4316 12.918 14.7402 11.5508 16.4785 11.5508C18.1777 11.5508 19.4082 12.8594 19.4082 14.4805ZM8.12695 19.0703V4.92969H6.01758L2.50195 7.23438V9.28516L5.88086 7.07812H5.95898V19.0703H8.12695Z" fill="#414A4E"/>
</svg>
