<svg width="24" height="24" viewBox="0 0 24 24" fill="none" xmlns="http://www.w3.org/2000/svg">
<path fill-rule="evenodd" clip-rule="evenodd" d="M1.49624 17.6016V19.1641H11.008V17.3281H4.48452V17.2109L7.35561 14.3008C10.0119 11.6836 10.7541 10.4336 10.7736 8.85156C10.7541 6.54688 8.87905 4.82812 6.14467 4.82812C3.44936 4.82812 1.47671 6.54688 1.49624 9.125H3.52749C3.52749 7.62109 4.54311 6.625 6.10561 6.625C7.58999 6.625 8.7228 7.52344 8.7228 8.91016C8.7228 10.1406 7.94155 11.0391 6.39858 12.6602L1.49624 17.6016ZM12.9923 17.6016V19.1641H22.504V17.3281H15.9806V17.2109L18.8517 14.3008C21.508 11.6836 22.2501 10.4336 22.2697 8.85156C22.2501 6.54688 20.3751 4.82812 17.6408 4.82812C14.9455 4.82812 12.9728 6.54688 12.9923 9.125H15.0236C15.0236 7.62109 16.0392 6.625 17.6017 6.625C19.0861 6.625 20.2189 7.52344 20.2189 8.91016C20.2189 10.1406 19.4376 11.0391 17.8947 12.6602L12.9923 17.6016Z" fill="#414A4E"/>
</svg>
