<svg width="24" height="24" viewBox="0 0 24 24" fill="none" xmlns="http://www.w3.org/2000/svg">
<path fill-rule="evenodd" clip-rule="evenodd" d="M0.705078 18.4688L0.726562 19.8867H10.8242V18.168H3.41211V18.0391L6.97852 14.3652C9.72852 11.5293 10.5449 10.1758 10.5449 8.43555C10.5449 6.00781 8.52539 4.11719 5.71094 4.11719C2.89648 4.11719 0.769531 5.96484 0.791016 8.71484H2.61719C2.61719 6.97461 3.79883 5.79297 5.64648 5.79297C7.38672 5.79297 8.74023 6.8457 8.74023 8.43555C8.74023 9.875 7.85938 10.9277 6.01172 12.8828L0.705078 18.4688ZM13.1772 18.4688L13.1987 19.8867H23.2963V18.168H15.8842V18.0391L19.4506 14.3652C22.2006 11.5293 23.017 10.1758 23.017 8.43555C23.017 6.00781 20.9975 4.11719 18.183 4.11719C15.3686 4.11719 13.2416 5.96484 13.2631 8.71484H15.0893C15.0893 6.97461 16.2709 5.79297 18.1186 5.79297C19.8588 5.79297 21.2123 6.8457 21.2123 8.43555C21.2123 9.875 20.3315 10.9277 18.4838 12.8828L13.1772 18.4688Z" fill="#C1C8CC"/>
</svg>
