<svg width="24" height="24" viewBox="0 0 24 24" fill="none" xmlns="http://www.w3.org/2000/svg">
<path fill-rule="evenodd" clip-rule="evenodd" d="M11.7227 17.875L11.7422 19.1641H20.9219V17.6016H14.1836V17.4844L17.4258 14.1445C19.9258 11.5664 20.668 10.3359 20.668 8.75391C20.668 6.54688 18.832 4.82812 16.2734 4.82812C13.7148 4.82812 11.7812 6.50781 11.8008 9.00781H13.4609C13.4609 7.42578 14.5352 6.35156 16.2148 6.35156C17.7969 6.35156 19.0273 7.30859 19.0273 8.75391C19.0273 10.0625 18.2266 11.0195 16.5469 12.7969L11.7227 17.875ZM8.37109 19.1719V5.03125H6.59375L3.07812 7.375V9.15234L6.51562 6.86719H6.59375V19.1719H8.37109Z" fill="#C1C8CC"/>
</svg>
