<svg width="24" height="24" viewBox="0 0 24 24" fill="none" xmlns="http://www.w3.org/2000/svg">
<path fill-rule="evenodd" clip-rule="evenodd" d="M0.339844 18.4688L0.361328 19.8867H10.459V18.168H3.04688V18.0391L6.61328 14.3652C9.36328 11.5293 10.1797 10.1758 10.1797 8.43555C10.1797 6.00781 8.16016 4.11719 5.3457 4.11719C2.53125 4.11719 0.404297 5.96484 0.425781 8.71484H2.25195C2.25195 6.97461 3.43359 5.79297 5.28125 5.79297C7.02148 5.79297 8.375 6.8457 8.375 8.43555C8.375 9.875 7.49414 10.9277 5.64648 12.8828L0.339844 18.4688ZM12.1016 15.1133V16.7031H19.6426V19.8828H21.4902V16.7031H23.6602V15.0059H21.4902V4.32812H19.1055L12.1016 15.1133ZM19.6426 15.0059H14.1855V14.877L19.4492 6.77734H19.6426V15.0059Z" fill="#C1C8CC"/>
</svg>
