<svg width="24" height="24" viewBox="0 0 24 24" fill="none" xmlns="http://www.w3.org/2000/svg">
<path fill-rule="evenodd" clip-rule="evenodd" d="M11.6948 18.4688L11.7163 19.8867H21.8139V18.168H14.4018V18.0391L17.9682 14.3652C20.7182 11.5293 21.5346 10.1758 21.5346 8.43555C21.5346 6.00781 19.5151 4.11719 16.7006 4.11719C13.8862 4.11719 11.7592 5.96484 11.7807 8.71484H13.6069C13.6069 6.97461 14.7885 5.79297 16.6362 5.79297C18.3764 5.79297 19.7299 6.8457 19.7299 8.43555C19.7299 9.875 18.8491 10.9277 17.0014 12.8828L11.6948 18.4688ZM8.00977 19.8867V4.33203H6.05469L2.1875 6.91016V8.86523L5.96875 6.35156H6.05469V19.8867H8.00977Z" fill="#C1C8CC"/>
</svg>
