<svg width="24" height="24" viewBox="0 0 24 24" fill="none" xmlns="http://www.w3.org/2000/svg">
<path fill-rule="evenodd" clip-rule="evenodd" d="M0.490234 18.3594L0.511719 19.7773H10.6094V18.0586H3.19727V17.9297L6.76367 14.2559C9.51367 11.4199 10.3301 10.0664 10.3301 8.32617C10.3301 5.89844 8.31055 4.00781 5.49609 4.00781C2.68164 4.00781 0.554688 5.85547 0.576172 8.60547H2.40234C2.40234 6.86523 3.58398 5.68359 5.43164 5.68359C7.17188 5.68359 8.52539 6.73633 8.52539 8.32617C8.52539 9.76562 7.64453 10.8184 5.79688 12.7734L0.490234 18.3594ZM12.6401 12C12.6401 17.0918 14.6166 19.9922 18.0756 19.9922C21.5131 19.9922 23.5112 17.0918 23.5112 12C23.5112 6.95117 21.4916 4.00781 18.0756 4.00781C14.6596 4.00781 12.6401 6.95117 12.6401 12ZM21.6205 12C21.6205 16.0176 20.31 18.2734 18.0756 18.2734C15.8198 18.2734 14.5092 16.0176 14.5092 12C14.5092 7.98242 15.8413 5.68359 18.0756 5.68359C20.31 5.68359 21.6205 7.98242 21.6205 12Z" fill="#C1C8CC"/>
</svg>
