<svg width="24" height="24" viewBox="0 0 24 24" fill="none" xmlns="http://www.w3.org/2000/svg">
<path d="M3 18.5V10.571C3 9.82266 3.33525 9.11365 3.91366 8.63879L10.4137 3.30237C11.3357 2.54534 12.6643 2.54534 13.5863 3.30236L20.0863 8.63879C20.6647 9.11365 21 9.82266 21 10.571V18.5C21 19.8807 19.8807 21 18.5 21H15.9C15.0716 21 14.4 20.3284 14.4 19.5V17.2222C14.4 16.3938 13.7284 15.7222 12.9 15.7222H10.6C10.0477 15.7222 9.6 16.1699 9.6 16.7222V19.5C9.6 20.3284 8.92843 21 8.1 21H5.5C4.11929 21 3 19.8807 3 18.5Z" stroke="#C1C8CC" stroke-width="1.4" stroke-linejoin="round"/>
</svg>
