<svg width="24" height="24" viewBox="0 0 24 24" fill="none" xmlns="http://www.w3.org/2000/svg">
<circle cx="11.9996" cy="4.9" r="2.2" stroke="#C1C8CC" stroke-width="1.4"/>
<path d="M2.69922 20.2969L21.3 20.2969" stroke="#C1C8CC" stroke-width="1.4" stroke-linecap="round"/>
<path d="M12 20V7.5" stroke="#C1C8CC" stroke-width="1.4" stroke-linecap="round"/>
<path d="M2.7998 5L9.7998 5" stroke="#C1C8CC" stroke-width="1.4" stroke-linecap="round"/>
<path d="M14.2002 5H21.0002" stroke="#C1C8CC" stroke-width="1.4" stroke-linecap="round"/>
<path d="M8.19961 13C8.19961 14.3927 7.2105 15.3 5.99961 15.3C4.78872 15.3 3.79961 14.3927 3.79961 13C3.79961 12.3004 4.20714 11.1818 4.79062 10.189C5.07449 9.70589 5.37522 9.2957 5.64339 9.01665C5.77791 8.87667 5.88895 8.78576 5.97075 8.73419C5.98161 8.72735 5.99122 8.72165 5.99961 8.71693C6.008 8.72165 6.0176 8.72735 6.02846 8.73419C6.11027 8.78576 6.22131 8.87667 6.35583 9.01665C6.624 9.2957 6.92473 9.70589 7.2086 10.189C7.79208 11.1818 8.19961 12.3004 8.19961 13Z" stroke="#C1C8CC" stroke-width="1.4"/>
<path d="M6 9L6 5" stroke="#C1C8CC" stroke-width="1.4"/>
<path d="M20.1996 13C20.1996 14.3927 19.2105 15.3 17.9996 15.3C16.7887 15.3 15.7996 14.3927 15.7996 13C15.7996 12.3004 16.2071 11.1818 16.7906 10.189C17.0745 9.70589 17.3752 9.2957 17.6434 9.01665C17.7779 8.87667 17.8889 8.78576 17.9708 8.73419C17.9816 8.72735 17.9912 8.72165 17.9996 8.71693C18.008 8.72165 18.0176 8.72735 18.0285 8.73419C18.1103 8.78576 18.2213 8.87667 18.3558 9.01665C18.624 9.2957 18.9247 9.70589 19.2086 10.189C19.7921 11.1818 20.1996 12.3004 20.1996 13Z" stroke="#C1C8CC" stroke-width="1.4"/>
<path d="M18 9V5" stroke="#C1C8CC" stroke-width="1.4"/>
</svg>
