<svg width="64" height="64" viewBox="0 0 64 64" fill="none" xmlns="http://www.w3.org/2000/svg">
<rect width="64" height="64" rx="12" fill="#1B76FF"/>
<path d="M42.7904 37.6712C41.3749 36.854 39.5709 37.3434 38.7579 38.7516L37.2819 41.3081C35.6516 44.1318 32.0405 45.0993 29.2167 43.4689C26.3929 41.8386 25.4252 38.2275 27.0554 35.4039L31.4833 27.7345L39.1532 32.1626C40.5687 32.9799 42.3727 32.4905 43.1858 31.0822C44.003 29.6668 43.5135 27.8628 42.1051 27.0497L34.4353 22.6215L37.3873 17.5086C38.2045 16.0931 37.7149 14.2891 36.3066 13.4761C34.8983 12.663 33.0871 13.1482 32.274 14.5565L22.0589 32.2495C18.7484 37.9835 20.6701 45.4962 26.467 48.6986C32.2638 51.901 39.1721 49.8426 42.3951 44.2602L43.8711 41.7038C44.6883 40.2883 44.1988 38.4843 42.7904 37.6712Z" fill="white"/>
</svg>
