<svg width="64" height="64" viewBox="0 0 64 64" fill="none" xmlns="http://www.w3.org/2000/svg">
<rect width="64" height="64" rx="12" fill="#1B76FF"/>
<path fill-rule="evenodd" clip-rule="evenodd" d="M37.653 24.363C36.8734 24.6337 36.1193 24.9323 35.3653 25.2826L35.4435 25.2463C34.076 23.0316 33.1774 20.3085 32.8648 17.295C32.7085 15.9153 32.7476 14.572 32.8648 13.2649C32.9429 12.6114 33.2164 11.9578 33.6462 11.4495C34.5839 10.324 36.303 10.1788 37.4361 11.1228C37.944 11.5584 38.3738 12.1394 38.5691 12.7929C38.9208 14.0636 39.1943 15.407 39.3506 16.7867C39.4462 17.6884 39.475 18.5767 39.4451 19.444C40.3432 18.6963 41.3361 17.9909 42.4144 17.3398C43.659 16.5737 44.9592 15.9854 46.2608 15.4783C46.9207 15.2408 47.6708 15.1644 48.3544 15.2838C49.8618 15.5368 50.7945 16.8866 50.4169 18.2565C50.2357 18.8763 49.8797 19.4989 49.3462 19.9618C48.2958 20.8385 47.1399 21.6845 45.8953 22.4506C43.5613 23.8667 41.0785 24.7817 38.7106 25.2727C38.36 24.9574 38.0096 24.6549 37.653 24.363Z" fill="white"/>
<path fill-rule="evenodd" clip-rule="evenodd" d="M34.3428 51.0707C26.6262 56.7911 15.667 51.1241 16.5502 41.8702L17.8926 27.806C18.6281 20.0999 27.3637 15.5235 34.3962 19.16L44.7816 24.5303C49.3834 26.9099 51.2661 31.7772 50.2174 36.1923C49.8736 37.6393 48.1902 38.153 46.8508 37.4744L34.4638 31.1979C33.5643 30.7422 32.4371 31.08 31.9461 31.9525C31.455 32.825 31.7862 33.9018 32.6857 34.3576L45.9225 41.0646C46.4464 41.33 46.5414 42.0277 46.0705 42.3767L44.5187 43.5271C43.6784 44.1501 42.5515 44.2448 41.6165 43.771L34.4638 40.1468C33.5643 39.691 32.4371 40.0289 31.9461 40.9014C31.455 41.7739 31.7862 42.8507 32.6857 43.3065L35.9881 44.9798C37.7919 45.8938 38.0043 48.3563 36.383 49.5582L34.3428 51.0707Z" fill="#FFA317"/>
</svg>
