<svg width="64" height="64" viewBox="0 0 64 64" fill="none" xmlns="http://www.w3.org/2000/svg">
<g clip-path="url(#clip0_5255_131524)">
<rect width="64" height="64" rx="12" fill="#1B76FF"/>
<path d="M65.2464 57.1154V44.6211C62.8454 39.452 58.7779 35.2056 53.7313 32.5881C54.9741 30.9499 56.1228 29.1515 57.1396 27.2025C58.2695 25.0464 59.1546 22.8526 59.8042 20.687C60.1432 19.5477 60.1338 18.352 59.8325 17.2504C59.164 14.8777 56.6783 13.5783 54.3527 14.3881C53.2699 14.7647 52.2907 15.4426 51.5469 16.3747C50.144 18.1542 48.854 20.1315 47.7336 22.297C46.4249 24.8016 45.4457 27.3531 44.7677 29.8577C43.8168 29.7541 42.8564 29.6882 41.8772 29.6882C39.9188 29.6882 38.0169 29.9142 36.1903 30.3284C36.7081 27.1178 36.8399 23.6435 36.5104 20.0562C36.2656 17.3728 35.776 14.8118 35.0792 12.4014C34.712 11.1397 33.9965 10.0381 33.0455 9.19073C31.0023 7.38297 27.9141 7.66543 26.2381 9.82157C25.4566 10.8196 24.9576 12.0342 24.8258 13.3429C24.5904 15.838 24.581 18.4461 24.8258 21.1295C25.2495 25.7431 26.3982 30.0177 28.0553 33.7086C24.5151 35.9683 21.5586 39.066 19.4778 42.7286C19.1295 42.7757 18.7717 42.8039 18.4139 42.8039C17.7736 42.8039 17.1428 42.7286 16.5402 42.5873C16.3237 42.5403 16.1071 42.512 15.8717 42.512C14.2805 42.512 13 43.8019 13 45.3837C13 45.6662 13.0565 45.9393 13.1318 46.1935H13.1224C14.6289 50.3269 15.7305 54.6391 16.3801 59.1021V59.0832C16.6344 60.778 17.0486 62.4257 17.6042 63.9981H58.3542C62.1581 63.9981 65.2369 60.9192 65.2369 57.1154H65.2464Z" fill="white"/>
<path d="M30.5435 32.3249C31.5792 31.8164 32.662 31.3739 33.7636 31.0067C34.3756 28.7564 34.611 26.2048 34.3662 23.512C34.2344 22.062 33.9708 20.678 33.5941 19.388C33.3964 18.7101 33.0104 18.1075 32.4925 17.6556C31.3909 16.6764 29.7244 16.8365 28.8205 17.9946C28.3968 18.5312 28.1332 19.1903 28.0578 19.8965C27.926 21.2429 27.926 22.6458 28.0578 24.0958C28.3497 27.2123 29.2442 30.0463 30.5341 32.3249H30.5435Z" fill="#FFC2C2"/>
<path d="M51.9065 31.7128C52.8198 30.5453 53.639 29.2177 54.3357 27.7583C54.9195 26.5249 55.3714 25.2726 55.6916 24.0392C55.861 23.3895 55.8328 22.721 55.6351 22.109C55.2114 20.7909 53.7802 20.113 52.4903 20.6214C51.8877 20.8568 51.351 21.2616 50.9556 21.7983C50.2023 22.8246 49.5244 23.9733 48.9407 25.2067C48.1404 26.8921 47.6037 28.6057 47.293 30.2628C48.8936 30.6018 50.4377 31.0914 51.9065 31.7128Z" fill="#FFC2C2"/>
<path d="M32.5369 49.978C33.4105 49.978 34.1187 49.2699 34.1187 48.3962C34.1187 47.5226 33.4105 46.8145 32.5369 46.8145C31.6633 46.8145 30.9551 47.5226 30.9551 48.3962C30.9551 49.2699 31.6633 49.978 32.5369 49.978Z" fill="#1B76FF"/>
<path d="M48.6287 49.978C49.5023 49.978 50.2105 49.2699 50.2105 48.3962C50.2105 47.5226 49.5023 46.8145 48.6287 46.8145C47.7551 46.8145 47.0469 47.5226 47.0469 48.3962C47.0469 49.2699 47.7551 49.978 48.6287 49.978Z" fill="#1B76FF"/>
<path d="M40.5484 50.9355L41.4146 50.9544C42.375 50.9732 42.9681 51.9053 42.5068 52.4985L42.1019 53.0258C42.1019 53.0258 42.0925 53.0352 42.0831 53.0446L41.9136 53.2423C41.1886 54.0615 39.9081 54.0615 39.1831 53.2423L39.0136 53.0446C39.0136 53.0446 39.0042 53.0352 38.9948 53.0258L38.5899 52.4985C38.138 51.9053 38.7312 50.9732 39.6821 50.9544L40.5484 50.9355Z" fill="#1B76FF"/>
<path d="M30.5435 32.3249C31.5792 31.8164 32.662 31.3739 33.7636 31.0067C34.3756 28.7564 34.611 26.2048 34.3662 23.512C34.2344 22.062 33.9708 20.678 33.5941 19.388C33.3964 18.7101 33.0104 18.1075 32.4925 17.6556C31.3909 16.6764 29.7244 16.8365 28.8205 17.9946C28.3968 18.5312 28.1332 19.1903 28.0578 19.8965C27.926 21.2429 27.926 22.6458 28.0578 24.0958C28.3497 27.2123 29.2442 30.0463 30.5341 32.3249H30.5435Z" fill="#FFC2C2"/>
<path d="M51.9065 31.7128C52.8198 30.5453 53.639 29.2177 54.3357 27.7583C54.9195 26.5249 55.3714 25.2726 55.6916 24.0392C55.861 23.3895 55.8328 22.721 55.6351 22.109C55.2114 20.7909 53.7802 20.113 52.4903 20.6214C51.8877 20.8568 51.351 21.2616 50.9556 21.7983C50.2023 22.8246 49.5244 23.9733 48.9407 25.2067C48.1404 26.8921 47.6037 28.6057 47.293 30.2628C48.8936 30.6018 50.4377 31.0914 51.9065 31.7128Z" fill="#FFC2C2"/>
<path d="M32.5369 49.978C33.4105 49.978 34.1187 49.2699 34.1187 48.3962C34.1187 47.5226 33.4105 46.8145 32.5369 46.8145C31.6633 46.8145 30.9551 47.5226 30.9551 48.3962C30.9551 49.2699 31.6633 49.978 32.5369 49.978Z" fill="#1B76FF"/>
<path d="M48.6287 49.978C49.5023 49.978 50.2105 49.2699 50.2105 48.3962C50.2105 47.5226 49.5023 46.8145 48.6287 46.8145C47.7551 46.8145 47.0469 47.5226 47.0469 48.3962C47.0469 49.2699 47.7551 49.978 48.6287 49.978Z" fill="#1B76FF"/>
<path d="M40.5484 50.9355L41.4146 50.9544C42.375 50.9732 42.9681 51.9053 42.5068 52.4985L42.1019 53.0258C42.1019 53.0258 42.0925 53.0352 42.0831 53.0446L41.9136 53.2423C41.1886 54.0615 39.9081 54.0615 39.1831 53.2423L39.0136 53.0446C39.0136 53.0446 39.0042 53.0352 38.9948 53.0258L38.5899 52.4985C38.138 51.9053 38.7312 50.9732 39.6821 50.9544L40.5484 50.9355Z" fill="#1B76FF"/>
</g>
<defs>
<clipPath id="clip0_5255_131524">
<rect width="64" height="64" rx="12" fill="white"/>
</clipPath>
</defs>
</svg>
