<svg width="140" height="140" viewBox="0 0 140 140" fill="none" xmlns="http://www.w3.org/2000/svg">
<g clip-path="url(#clip0_5515_89932)">
<rect width="140" height="140" rx="70" fill="#DEE1E3"/>
<path d="M107.602 81.3793C109.814 78.4242 111.866 75.1857 113.717 71.6639C115.729 67.7778 117.338 63.8107 118.505 59.9246C119.108 57.8601 119.108 55.7146 118.545 53.7311C117.338 49.4401 112.912 47.1327 108.728 48.59C106.797 49.2782 105.027 50.4926 103.699 52.1523C101.205 55.3503 98.8714 58.9126 96.8598 62.7987C94.5263 67.3325 92.7561 71.9068 91.5492 76.4406C89.8594 76.2382 88.1295 76.1573 86.3593 76.1573C82.8591 76.1573 79.4394 76.5621 76.1806 77.2907C77.1059 71.502 77.3473 65.268 76.7438 58.7911C76.3013 53.9739 75.4162 49.3592 74.169 45.0278C73.5253 42.7608 72.2379 40.7773 70.5481 39.239C66.887 36.0006 61.3753 36.4864 58.3579 40.3725C56.9498 42.1536 56.0647 44.3801 55.8233 46.7279C55.3807 51.2213 55.3807 55.917 55.8233 60.7342C56.5877 69.0327 58.6395 76.724 61.6167 83.4033C48.8631 91.6613 40.334 106.113 40.334 122.548C40.334 148.172 60.9729 168.898 86.3995 168.898C111.826 168.898 132.465 148.132 132.465 122.548C132.465 104.656 122.367 89.111 107.602 81.3793Z" fill="white"/>
<path d="M74.8148 111.47C76.3122 111.47 77.5261 110.257 77.5261 108.759C77.5261 107.262 76.3122 106.048 74.8148 106.048C73.3174 106.048 72.1035 107.262 72.1035 108.759C72.1035 110.257 73.3174 111.47 74.8148 111.47Z" fill="#C1C8CC"/>
<path d="M97.9847 111.47C99.4821 111.47 100.696 110.257 100.696 108.759C100.696 107.262 99.4821 106.048 97.9847 106.048C96.4873 106.048 95.2734 107.262 95.2734 108.759C95.2734 110.257 96.4873 111.47 97.9847 111.47Z" fill="#C1C8CC"/>
<path d="M86.3954 112.456L87.4047 112.481C88.5238 112.507 89.2149 113.765 88.6773 114.566L88.2056 115.278C88.2056 115.278 88.1946 115.291 88.1837 115.303L87.9862 115.57C87.1414 116.676 85.6494 116.676 84.8047 115.57L84.6072 115.303C84.6072 115.303 84.5962 115.291 84.5852 115.278L84.1135 114.566C83.5869 113.765 84.2781 112.507 85.3861 112.481L86.3954 112.456Z" fill="#C1C8CC"/>
<path d="M65.1006 81.5877C67.4428 80.411 69.8649 79.4017 72.3795 78.5339C73.7054 73.4577 74.1914 67.6782 73.5556 61.6127C73.2224 58.3535 72.5914 55.2398 71.7154 52.3229C71.2441 50.7871 70.3586 49.4628 69.1903 48.4522C66.6699 46.2775 62.9015 46.6665 60.8867 49.3029C59.9498 50.5297 59.3539 52.0119 59.2015 53.606C58.947 56.6382 58.9672 59.823 59.3005 63.0822C60.0243 70.1049 62.1331 76.4658 65.1006 81.5877Z" fill="#ECEEEF"/>
<path d="M105.407 80.4791C107.475 77.8509 109.335 74.8602 110.909 71.5588C112.236 68.7623 113.264 65.94 113.992 63.1694C114.369 61.7065 114.304 60.1917 113.862 58.8065C112.899 55.8289 109.66 54.3013 106.733 55.4537C105.38 55.9845 104.158 56.8908 103.26 58.1078C101.556 60.4253 100.021 63.0017 98.6946 65.7981C96.8867 69.6045 95.6641 73.4625 94.9618 77.2041C98.578 77.9678 102.077 79.0681 105.42 80.4791L105.407 80.4791Z" fill="#ECEEEF"/>
<path fill-rule="evenodd" clip-rule="evenodd" d="M41.033 128.261C40.9158 127.129 40.8367 125.986 40.7969 124.832C40.4908 115.947 42.5569 107.53 46.4264 100.191C45.7768 100.296 45.1153 100.361 44.4419 100.384C43.2188 100.426 42.0128 100.326 40.8678 100.094C40.4607 100.021 40.0326 99.9703 39.5958 99.9853C36.582 100.089 34.2089 102.608 34.3126 105.619C34.331 106.151 34.4468 106.659 34.6166 107.143L34.5955 107.165C37.3468 113.914 39.513 120.967 41.033 128.261Z" fill="white"/>
<rect x="69.416" y="109.084" width="5.25" height="2.91667" rx="1.45833" fill="#DEE1E3"/>
<rect width="5.25" height="2.91667" rx="1.45833" transform="matrix(-1 0 0 1 102.084 109.084)" fill="#DEE1E3"/>
<rect x="66.5" y="112.584" width="4.08333" height="4.08333" rx="2.04167" fill="#DEE1E3"/>
<rect x="68.25" y="107.917" width="4.08333" height="4.08333" rx="2.04167" fill="#DEE1E3"/>
<rect width="4.08333" height="4.08333" rx="2.04167" transform="matrix(-1 0 0 1 103.25 107.917)" fill="#DEE1E3"/>
<rect x="67.666" y="119" width="2.91667" height="1.75" rx="0.875" fill="#DEE1E3"/>
</g>
<defs>
<clipPath id="clip0_5515_89932">
<rect width="140" height="140" rx="70" fill="white"/>
</clipPath>
</defs>
</svg>
