<svg width="170" height="33" viewBox="0 0 170 33" fill="none" xmlns="http://www.w3.org/2000/svg">
<g clip-path="url(#clip0_496_39386)">
<path d="M46.3308 30.1094L44.7816 19.2456C44.2579 14.1185 39.8721 10.1172 34.5334 10.1172C28.8457 10.1172 24.2344 14.6635 24.2344 20.271V22.8095C24.2344 28.4171 28.8457 32.9633 34.5334 32.9633C37.0718 32.9633 39.3993 32.0527 41.1958 30.554L41.2322 30.8121C41.4286 32.2032 42.7305 33.1713 44.1415 32.9705C45.5526 32.7769 46.5345 31.4933 46.3308 30.1022V30.1094ZM39.683 20.2782V22.8167C39.683 25.6204 37.3773 27.8936 34.5334 27.8936C31.6896 27.8936 29.3839 25.6204 29.3839 22.8167V20.2782C29.3839 17.4744 31.6896 15.2013 34.5334 15.2013C37.1155 15.2013 39.2538 17.08 39.6175 19.5253C39.6175 19.5253 39.6175 19.5396 39.6175 19.5468L39.6539 19.8049C39.6684 19.9627 39.6757 20.1204 39.6757 20.2782H39.683Z" fill="#1B76FF"/>
<path d="M105.085 30.1094L103.536 19.2456C103.012 14.1185 98.626 10.1172 93.2873 10.1172C87.5996 10.1172 82.9883 14.6635 82.9883 20.271V22.8095C82.9883 28.4171 87.5996 32.9633 93.2873 32.9633C95.8257 32.9633 98.1532 32.0527 99.9497 30.554L99.9861 30.8121C100.182 32.2032 101.484 33.1713 102.895 32.9705C104.306 32.7769 105.288 31.4933 105.085 30.1022V30.1094ZM98.4442 20.2782V22.8167C98.4442 25.6204 96.1385 27.8936 93.2946 27.8936C90.4507 27.8936 88.1451 25.6204 88.1451 22.8167V20.2782C88.1451 17.4744 90.4507 15.2013 93.2946 15.2013C95.8767 15.2013 98.015 17.08 98.3787 19.5253C98.3787 19.5253 98.3787 19.5396 98.3787 19.5468L98.4151 19.8049C98.4296 19.9627 98.4369 20.1204 98.4369 20.2782H98.4442Z" fill="#1B76FF"/>
<path d="M18.0234 17.7698C16.5978 17.7698 15.4486 18.91 15.4486 20.3083V22.8468C15.4486 25.6505 13.1429 27.9237 10.2991 27.9237C7.45518 27.9237 5.14953 25.6505 5.14953 22.8468V15.2314H12.8738C14.2994 15.2314 15.4486 14.0912 15.4486 12.6929C15.4486 11.2874 14.2921 10.1544 12.8738 10.1544H5.14953V5.07752C5.14953 3.67205 3.99307 2.53906 2.57477 2.53906C1.15646 2.53906 0 3.67922 0 5.07752V22.646C0 28.3396 4.72768 33.1082 10.5027 33.0006C16.2778 32.893 20.5981 28.3898 20.5981 22.8468V20.3083C20.5981 18.9028 19.4417 17.7698 18.0234 17.7698Z" fill="#1B76FF"/>
<path d="M167.426 17.7698C166 17.7698 164.851 18.91 164.851 20.3083V22.8468C164.851 25.6505 162.545 27.9237 159.701 27.9237C156.858 27.9237 154.552 25.6505 154.552 22.8468V15.2314H162.276C163.702 15.2314 164.851 14.0912 164.851 12.6929C164.851 11.2874 163.694 10.1544 162.276 10.1544H154.552V5.07752C154.552 3.67205 153.395 2.53906 151.977 2.53906C150.552 2.53906 149.402 3.67922 149.402 5.07752V22.646C149.402 28.3396 154.13 33.1082 159.905 33.0006C165.68 32.893 170 28.3898 170 22.8468V20.3083C170 18.9028 168.844 17.7698 167.426 17.7698Z" fill="#1B76FF"/>
<path d="M55.1398 2.53846C55.1398 1.13651 53.987 0 52.565 0C51.143 0 49.9902 1.13651 49.9902 2.53846V30.4615C49.9902 31.8635 51.143 33 52.565 33C53.987 33 55.1398 31.8635 55.1398 30.4615V2.53846Z" fill="#1B76FF"/>
<path d="M79.3604 19.9014C79.1422 14.4802 74.6182 10.1562 69.0686 10.1562C63.519 10.1562 58.7695 14.7025 58.7695 20.3101V22.8486C58.7695 28.4561 63.3808 33.0024 69.0686 33.0024C72.378 33.0024 75.3237 31.4607 77.2075 29.0728C78.5167 27.4092 77.302 24.9783 75.1637 24.9783C74.3636 24.9783 73.6144 25.3583 73.1198 25.975C72.1816 27.1582 70.7196 27.9183 69.0759 27.9183C66.3847 27.9183 64.1736 25.8818 63.9482 23.2788H75.9346C77.833 23.2788 79.3677 21.7658 79.3677 19.8942L79.3604 19.9014ZM63.9409 19.9014C64.1518 17.2912 66.3629 15.2332 69.0686 15.2332C71.7743 15.2332 73.9854 17.2912 74.1963 19.9014H63.9409Z" fill="#1B76FF"/>
<path d="M118.411 12.7162C116.782 12.8166 115.247 13.2971 113.901 14.0643V12.6947C113.901 11.2892 112.745 10.1562 111.327 10.1562C109.901 10.1562 108.752 11.2892 108.752 12.6947V30.4639C108.752 31.8694 109.901 33.0024 111.327 33.0024C112.752 33.0024 113.901 31.8622 113.901 30.4639V30.0839C113.901 30.0839 113.901 30.0194 113.901 29.9907V22.9848C113.901 22.9418 113.901 22.8916 113.901 22.8486C113.901 20.0448 116.207 17.7716 119.051 17.7716C119.058 17.7716 119.073 17.7716 119.08 17.7716C120.477 17.7788 121.626 16.7104 121.626 15.3336V15.1328C121.626 13.7918 120.528 12.7091 119.175 12.6947C118.927 12.6947 118.673 12.6947 118.418 12.7162H118.411Z" fill="#1B76FF"/>
<path d="M145.852 20.3062C145.852 14.6054 141.081 9.99461 135.262 10.1524C130.003 10.2958 125.625 14.4333 125.276 19.6106C125.261 19.8473 125.254 20.0767 125.254 20.3134V30.4601C125.254 31.8655 126.41 32.9985 127.829 32.9985C129.254 32.9985 130.403 31.8655 130.403 30.4601V20.3134C130.403 17.5096 132.709 15.2365 135.553 15.2365C138.397 15.2365 140.702 17.5096 140.702 20.3134V30.4672C140.702 31.8727 141.859 33.0057 143.277 33.0057C144.703 33.0057 145.852 31.8727 145.852 30.4672V20.3206V20.3062Z" fill="#1B76FF"/>
</g>
<defs>
<clipPath id="clip0_496_39386">
<rect width="170" height="33" fill="white"/>
</clipPath>
</defs>
</svg>
