<svg width="24" height="24" viewBox="0 0 24 24" fill="none" xmlns="http://www.w3.org/2000/svg">
<path d="M9.52896 14.2897L14.8064 18.0128C15.4688 18.4802 16.3829 18.0064 16.3829 17.1957V4.42874C16.3829 3.61815 15.469 3.14436 14.8066 3.61148L9.52896 7.33289H4.5C3.94772 7.33289 3.5 7.78061 3.5 8.33289V13.2914C3.5 13.8437 3.94771 14.2914 4.5 14.2914L5.28125 14.2914M9.52896 14.2897L5.28125 14.2914M9.52896 14.2897V20.5C9.52896 21.0523 9.08125 21.5 8.52896 21.5H6.28125C5.72897 21.5 5.28125 21.0523 5.28125 20.5V14.2914M20.9167 7.65938C22.6734 9.82412 22.6689 12.7917 20.9167 15.2548" stroke="#C1C8CC" stroke-width="1.4" stroke-linecap="round" stroke-linejoin="round"/>
</svg>
