<svg width="40" height="40" viewBox="0 0 40 40" fill="none" xmlns="http://www.w3.org/2000/svg">
<rect width="40" height="40" rx="20" fill="#1B76FF"/>
<path d="M11.6641 16.9784C11.6641 16.6865 11.6641 16.5405 11.6762 16.4176C11.7937 15.2318 12.7318 14.2937 13.9176 14.1762C14.0405 14.1641 14.1944 14.1641 14.502 14.1641C14.6206 14.1641 14.6799 14.1641 14.7302 14.161C15.3729 14.1221 15.9357 13.7165 16.1758 13.1191C16.1947 13.0723 16.2122 13.0195 16.2474 12.9141C16.2826 12.8086 16.3001 12.7558 16.3189 12.7091C16.5591 12.1117 17.1219 11.706 17.7646 11.6671C17.8149 11.6641 17.8705 11.6641 17.9817 11.6641H22.0131C22.1243 11.6641 22.1799 11.6641 22.2302 11.6671C22.8729 11.706 23.4357 12.1117 23.6758 12.7091C23.6946 12.7558 23.7122 12.8086 23.7474 12.9141C23.7826 13.0195 23.8001 13.0723 23.819 13.1191C24.0591 13.7165 24.6219 14.1221 25.2646 14.161C25.3149 14.1641 25.3741 14.1641 25.4927 14.1641C25.8004 14.1641 25.9543 14.1641 26.0772 14.1762C27.263 14.2937 28.2011 15.2318 28.3186 16.4176C28.3307 16.5405 28.3307 16.6865 28.3307 16.9784V23.4974C28.3307 24.8976 28.3307 25.5976 28.0582 26.1324C27.8186 26.6028 27.4361 26.9852 26.9657 27.2249C26.4309 27.4974 25.7309 27.4974 24.3307 27.4974H15.6641C14.2639 27.4974 13.5639 27.4974 13.0291 27.2249C12.5587 26.9852 12.1762 26.6028 11.9365 26.1324C11.6641 25.5976 11.6641 24.8976 11.6641 23.4974V16.9784Z" stroke="white" stroke-width="1.4" stroke-linecap="round" stroke-linejoin="round"/>
<path d="M19.9974 23.7448C21.8383 23.7448 23.3307 22.2524 23.3307 20.4115C23.3307 18.5705 21.8383 17.0781 19.9974 17.0781C18.1564 17.0781 16.6641 18.5705 16.6641 20.4115C16.6641 22.2524 18.1564 23.7448 19.9974 23.7448Z" stroke="white" stroke-width="1.4" stroke-linecap="round" stroke-linejoin="round"/>
</svg>
