<svg width="24" height="24" viewBox="0 0 24 24" fill="none" xmlns="http://www.w3.org/2000/svg">
<path d="M21 17V10.9333C21 5.92595 16.9706 3 12 3C7.02944 3 3 5.92595 3 10.9333V17H5.57143C6.28151 17 6.85714 16.4201 6.85714 15.7048V13.1143C6.85714 12.3989 6.28151 11.819 5.57143 11.819H3M21 17H18.4286C17.7185 17 17.1429 16.4201 17.1429 15.7048V13.1143C17.1429 12.3989 17.7185 11.819 18.4286 11.819H21M21 17V17C21 19.4853 18.9853 21.5 16.5 21.5H14.5M14.5 21.5H11.5V20.5C11.5 19.9477 11.9477 19.5 12.5 19.5H13.5C14.0523 19.5 14.5 19.9477 14.5 20.5V21.5Z" stroke="#C1C8CC" stroke-width="1.4" stroke-linejoin="round"/>
</svg>
