<svg width="64" height="64" viewBox="0 0 64 64" fill="none" xmlns="http://www.w3.org/2000/svg">
<g clip-path="url(#clip0_496_39352)">
<path d="M56.69 0H7.31C3.2728 0 0 3.2728 0 7.31V56.69C0 60.7272 3.2728 64 7.31 64H56.69C60.7272 64 64 60.7272 64 56.69V7.31C64 3.2728 60.7272 0 56.69 0Z" fill="#1B76FF"/>
<path d="M63.9998 56.6881V43.4181C61.4498 37.9281 57.1298 33.4181 51.7698 30.6381C53.0898 28.8981 54.3098 26.9881 55.3898 24.9181C56.5898 22.6281 57.5298 20.2981 58.2198 17.9981C58.5798 16.7881 58.5698 15.5181 58.2498 14.3481C57.5398 11.8281 54.8998 10.4481 52.4298 11.3081C51.2798 11.7081 50.2398 12.4281 49.4498 13.4181C47.9598 15.3081 46.5898 17.4081 45.3998 19.7081C44.0098 22.3681 42.9698 25.0781 42.2498 27.7381C41.2398 27.6281 40.2198 27.5581 39.1798 27.5581C37.0998 27.5581 35.0798 27.7981 33.1398 28.2381C33.6898 24.8281 33.8298 21.1381 33.4798 17.3281C33.2198 14.4781 32.6998 11.7581 31.9598 9.1981C31.5698 7.8581 30.8098 6.6881 29.7998 5.7881C27.6298 3.8681 24.3498 4.1681 22.5698 6.4581C21.7398 7.5181 21.2098 8.8081 21.0698 10.1981C20.8198 12.8481 20.8098 15.6181 21.0698 18.4681C21.5198 23.3681 22.7398 27.9081 24.4998 31.8281C20.7398 34.2281 17.5998 37.5181 15.3898 41.4081C15.0198 41.4581 14.6398 41.4881 14.2598 41.4881C13.5798 41.4881 12.9098 41.4081 12.2698 41.2581C12.0398 41.2081 11.8098 41.1781 11.5598 41.1781C9.86977 41.1781 8.50977 42.5481 8.50977 44.2281C8.50977 44.5281 8.56977 44.8181 8.64977 45.0881H8.63977C10.2398 49.4781 11.4098 54.0581 12.0998 58.7981V58.7781C12.3698 60.5781 12.8098 62.3281 13.3998 63.9981H56.6798C60.7198 63.9981 63.9898 60.7281 63.9898 56.6881H63.9998Z" fill="white"/>
<path d="M27.1395 30.3566C28.2395 29.8166 29.3895 29.3466 30.5595 28.9566C31.2095 26.5666 31.4595 23.8566 31.1995 20.9966C31.0595 19.4566 30.7795 17.9866 30.3795 16.6166C30.1695 15.8966 29.7595 15.2566 29.2095 14.7766C28.0395 13.7366 26.2695 13.9066 25.3095 15.1366C24.8595 15.7066 24.5795 16.4066 24.4995 17.1566C24.3595 18.5866 24.3595 20.0766 24.4995 21.6166C24.8095 24.9266 25.7595 27.9366 27.1295 30.3566H27.1395Z" fill="#FFC2C2"/>
<path d="M49.8297 29.7097C50.7997 28.4697 51.6697 27.0597 52.4097 25.5097C53.0297 24.1997 53.5097 22.8697 53.8497 21.5597C54.0297 20.8697 53.9997 20.1597 53.7897 19.5097C53.3397 18.1097 51.8197 17.3897 50.4497 17.9297C49.8097 18.1797 49.2397 18.6097 48.8197 19.1797C48.0197 20.2697 47.2997 21.4897 46.6797 22.7997C45.8297 24.5897 45.2597 26.4097 44.9297 28.1697C46.6297 28.5297 48.2697 29.0497 49.8297 29.7097Z" fill="#FFC2C2"/>
<path d="M29.2601 49.11C30.1879 49.11 30.9401 48.3578 30.9401 47.43C30.9401 46.5022 30.1879 45.75 29.2601 45.75C28.3322 45.75 27.5801 46.5022 27.5801 47.43C27.5801 48.3578 28.3322 49.11 29.2601 49.11Z" fill="#1B76FF"/>
<path d="M46.3499 49.11C47.2778 49.11 48.0299 48.3578 48.0299 47.43C48.0299 46.5022 47.2778 45.75 46.3499 45.75C45.4221 45.75 44.6699 46.5022 44.6699 47.43C44.6699 48.3578 45.4221 49.11 46.3499 49.11Z" fill="#1B76FF"/>
<path d="M37.7694 50.125L38.6894 50.145C39.7094 50.165 40.3394 51.155 39.8494 51.785L39.4194 52.345C39.4194 52.345 39.4094 52.355 39.3994 52.365L39.2194 52.575C38.4494 53.445 37.0894 53.445 36.3194 52.575L36.1394 52.365C36.1394 52.365 36.1294 52.355 36.1194 52.345L35.6894 51.785C35.2094 51.155 35.8394 50.165 36.8494 50.145L37.7694 50.125Z" fill="#1B76FF"/>
</g>
<defs>
<clipPath id="clip0_496_39352">
<rect width="64" height="64" fill="white"/>
</clipPath>
</defs>
</svg>
