<svg width="24" height="24" viewBox="0 0 24 24" fill="none" xmlns="http://www.w3.org/2000/svg">
<path fill-rule="evenodd" clip-rule="evenodd" d="M12 2C17.5228 2 22 6.47715 22 12C22 17.5228 17.5228 22 12 22C6.47715 22 2 17.5228 2 12C2 6.47715 6.47715 2 12 2ZM9.49497 8.50503C9.22161 8.23166 8.77839 8.23166 8.50503 8.50503C8.23166 8.77839 8.23166 9.22161 8.50503 9.49497L11.2601 12.25L8.50503 15.005C8.23166 15.2784 8.23166 15.7216 8.50503 15.995C8.77839 16.2683 9.22161 16.2683 9.49497 15.995L12.25 13.2399L15.005 15.995C15.2784 16.2683 15.7216 16.2683 15.995 15.995C16.2683 15.7216 16.2683 15.2784 15.995 15.005L13.2399 12.25L15.995 9.49497C16.2683 9.22161 16.2683 8.77839 15.995 8.50503C15.7216 8.23166 15.2784 8.23166 15.005 8.50503L12.25 11.2601L9.49497 8.50503Z" fill="#DEE1E3"/>
</svg>
